<?xml version="1.0" standalone="no"?>
<!DOCTYPE svg PUBLIC "-//W3C//DTD SVG 1.1//EN" "http://www.w3.org/Graphics/SVG/1.1/DTD/svg11.dtd" >
<svg xmlns="http://www.w3.org/2000/svg" xmlns:xlink="http://www.w3.org/1999/xlink" version="1.1">
<metadata>
Created by FontForge 20160407 at Tue Nov  1 20:56:27 2016
 By Jimmy Wärting
(c) 2016 Aditya Bayu Perdana

&#60;DISCLAIMER&#62; 
The opentype attributes and coding of Pustaka is derived from { Prada Sunawa } by Team Prada with modifications by Aditya Bayu Perdana

----------------------------------------------------------------------------------------------
(c) 2016 Aditya Bayu Perdana

&#60;PERHATIAN&#62; 
Atribut opentype dan koding Pustaka diturunkan dari { Prada Sunawa } oleh Team Prada dengan modifikasi oleh Aditya Bayu Perdana
</metadata>
<defs>
<font id="Bangil" horiz-adv-x="0" >
  <font-face 
    font-family="Bangil"
    font-weight="400"
    font-stretch="normal"
    units-per-em="2048"
    panose-1="2 0 5 0 0 0 0 0 0 0"
    ascent="1638"
    descent="-410"
    x-height="920"
    cap-height="1397"
    bbox="-2585.61 -3330.84 3886 2604.25"
    underline-thickness="150"
    underline-position="-292"
    unicode-range="U+001D-FB04"
  />
<missing-glyph horiz-adv-x="617" 
d="M719 -17v1202h-813v-1202h813zM317 481l232 -401h-464zM317 687l-232 401h464zM376 584l241 417v-834zM8 151v866l250 -433z" />
    <glyph glyph-name=".notdef" horiz-adv-x="617" 
d="M719 -17v1202h-813v-1202h813zM317 481l232 -401h-464zM317 687l-232 401h464zM376 584l241 417v-834zM8 151v866l250 -433z" />
    <glyph glyph-name=".null" 
 />
    <glyph glyph-name=".null" 
 />
    <glyph glyph-name="nonmarkingreturn" horiz-adv-x="530" 
 />
    <glyph glyph-name="space" unicode=" " horiz-adv-x="530" 
 />
    <glyph glyph-name="A" unicode="A" horiz-adv-x="1366" 
d="M600 1405h141l625 -1405h-205l-186 414h-594l-176 -414h-205zM893 592l-225 506l-209 -506h434z" />
    <glyph glyph-name="B" unicode="B" horiz-adv-x="1153" 
d="M627 0h-473v1397h366q173 0 270 -46.5t148 -128t51 -188.5q0 -206 -213 -295q153 -29 243.5 -126t90.5 -232q0 -107 -55 -191t-161.5 -137t-266.5 -53zM526 1219h-172v-420h133q160 0 227.5 61t67.5 158q0 201 -256 201zM541 621h-187v-443h197q164 0 222.5 25.5t94 79.5
t35.5 116q0 64 -37.5 117t-106.5 79t-218 26z" />
    <glyph glyph-name="C" unicode="C" horiz-adv-x="1450" 
d="M1358 324v-220q-220 -120 -508 -120q-234 0 -397 94t-258 259t-95 357q0 305 217.5 513t536.5 208q220 0 489 -115v-215q-245 140 -479 140q-240 0 -398.5 -151.5t-158.5 -379.5q0 -230 156 -378t399 -148q254 0 496 156z" />
    <glyph glyph-name="D" unicode="D" horiz-adv-x="1536" 
d="M156 2v1395h471q285 0 451 -85.5t264 -251.5t98 -362q0 -140 -54 -268t-154 -225q-102 -100 -237 -151q-79 -31 -145 -41.5t-252 -10.5h-442zM606 1219h-250v-1039h256q150 0 233 20.5t138.5 52t101.5 77.5q148 150 148 379q0 225 -152 367q-56 53 -128.5 87t-137.5 45
t-209 11z" />
    <glyph glyph-name="E" unicode="E" horiz-adv-x="1024" 
d="M154 1397h792v-178h-592v-426h572v-179h-572v-434h611v-178h-811v1395z" />
    <glyph glyph-name="F" unicode="F" horiz-adv-x="961" 
d="M156 1397h745v-178h-545v-390h545v-178h-545v-651h-200v1397z" />
    <glyph glyph-name="G" unicode="G" horiz-adv-x="1516" 
d="M909 688h469v-592q-258 -112 -512 -112q-347 0 -554.5 202.5t-207.5 499.5q0 313 215 521t539 208q118 0 224 -25.5t268 -93.5v-204q-250 145 -496 145q-229 0 -386 -156t-157 -383q0 -238 157 -389t404 -151q120 0 287 55l19 6v291h-269v178z" />
    <glyph glyph-name="H" unicode="H" horiz-adv-x="1493" 
d="M1139 1397h200v-1397h-200v608h-785v-608h-200v1397h200v-604h785v604z" />
    <glyph glyph-name="I" unicode="I" horiz-adv-x="512" 
d="M156 1397h200v-1397h-200v1397z" />
    <glyph glyph-name="J" unicode="J" horiz-adv-x="512" 
d="M156 1397h200v-1379q0 -193 -39.5 -285.5t-127.5 -148t-212 -55.5q-19 0 -65 6l-37 186h51q86 0 131.5 21t72 74t26.5 225v1356z" />
    <glyph glyph-name="K" unicode="K" horiz-adv-x="1343" 
d="M944 1397h250l-606 -662l755 -735h-274l-713 690v-690h-200v1397h200v-639z" />
    <glyph glyph-name="L" unicode="L" horiz-adv-x="1004" 
d="M154 1397h200v-1215h629v-182h-829v1397z" />
    <glyph glyph-name="M" unicode="M" horiz-adv-x="1599" 
d="M1266 1397h186v-1397h-201v1087l-430 -540h-37l-434 540v-1087h-200v1397h188l465 -574z" />
    <glyph glyph-name="N" unicode="N" horiz-adv-x="1599" 
d="M1264 1397h190v-1397h-172l-934 1075v-1075h-188v1397h162l942 -1084v1084z" />
    <glyph glyph-name="O" unicode="O" horiz-adv-x="1686" 
d="M840 1417q324 0 539.5 -205t215.5 -514t-217.5 -511.5t-548.5 -202.5q-316 0 -526.5 202.5t-210.5 507.5q0 313 212 518t536 205zM848 1227q-240 0 -394.5 -150t-154.5 -383q0 -226 155 -376t388 -150q234 0 390.5 153t156.5 381q0 222 -156.5 373.5t-384.5 151.5z" />
    <glyph glyph-name="P" unicode="P" horiz-adv-x="1044" 
d="M143 0v1399h443q200 0 319 -108t119 -290q0 -122 -61 -216t-167 -136.5t-304 -42.5h-148v-606h-201zM551 1221h-207v-437h219q122 0 188 57.5t66 164.5q0 215 -266 215z" />
    <glyph glyph-name="Q" unicode="Q" horiz-adv-x="1686" 
d="M1563 -88l-201 -195q-94 5 -196.5 33.5t-208 78.5t-281.5 171q-255 46 -420.5 242t-165.5 452q0 313 213 518t539 205q324 0 538.5 -203.5t214.5 -511.5q0 -259 -162 -455t-419 -247l53 -20q247 -95 356 -95q60 0 140 27zM842 1227q-236 0 -390 -152t-154 -383
q0 -225 155 -374.5t389 -149.5q231 0 389 153t158 377q0 229 -155 379t-392 150z" />
    <glyph glyph-name="R" unicode="R" horiz-adv-x="1237" 
d="M160 0v1397h350q212 0 336.5 -105t124.5 -284q0 -122 -61 -211t-175 -133q67 -44 131 -120t180 -265q73 -119 117 -179l74 -100h-238l-61 92q-3 5 -12 17l-39 55l-62 102l-67 109q-62 86 -113.5 137t-93 73.5t-139.5 22.5h-52v-608h-200zM420 1227h-60v-441h76
q152 0 208.5 26t88 78.5t31.5 119.5q0 66 -35 119.5t-98.5 75.5t-210.5 22z" />
    <glyph glyph-name="S" unicode="S" horiz-adv-x="938" 
d="M500 586l-152 92q-143 87 -203.5 171.5t-60.5 194.5q0 165 114.5 268t297.5 103q175 0 321 -98v-227q-151 145 -325 145q-98 0 -161 -45.5t-63 -116.5q0 -63 46 -118t149 -115l153 -90q256 -152 256 -388q0 -168 -112.5 -273t-292.5 -105q-207 0 -377 127v254
q162 -205 375 -205q94 0 156.5 52.5t62.5 131.5q0 128 -184 242z" />
    <glyph glyph-name="T" unicode="T" horiz-adv-x="1237" 
d="M35 1399h1167v-178h-487v-1221h-201v1221h-479v178z" />
    <glyph glyph-name="U" unicode="U" horiz-adv-x="1450" 
d="M1126 1397h201v-793q0 -161 -23.5 -243t-58 -136.5t-84.5 -97.5q-166 -143 -434 -143q-273 0 -438 142q-50 44 -84.5 98.5t-57 133.5t-22.5 248v791h201v-793q0 -197 45 -274t137 -123.5t217 -46.5q178 0 290 93q59 50 85 118t26 233v793z" />
    <glyph glyph-name="V" unicode="V" horiz-adv-x="1237" 
d="M1038 1397h199l-590 -1403h-45l-602 1403h201l420 -981z" />
    <glyph glyph-name="W" unicode="W" horiz-adv-x="2134" 
d="M1933 1397h199l-565 -1403h-43l-457 1136l-461 -1136h-43l-563 1403h201l385 -963l387 963h190l389 -963z" />
    <glyph glyph-name="X" unicode="X" horiz-adv-x="1450" 
d="M1165 1397h242l-557 -674l596 -723h-242l-475 578l-481 -578h-244l602 723l-559 674h244l438 -533z" />
    <glyph glyph-name="Y" unicode="Y" horiz-adv-x="1237" 
d="M995 1397h242l-516 -658v-739h-205v739l-516 658h242l374 -482z" />
    <glyph glyph-name="Z" unicode="Z" horiz-adv-x="1323" 
d="M82 1399h1204l-893 -1221h893v-178h-1261l895 1221h-838v178z" />
    <glyph glyph-name="Agrave" unicode="&#xc0;" horiz-adv-x="1366" 
d="M600 1405h141l625 -1405h-205l-186 414h-594l-176 -414h-205zM893 592l-225 506l-209 -506h434zM637 1800l138 -300h-112l-230 300h204z" />
    <glyph glyph-name="Aacute" unicode="&#xc1;" horiz-adv-x="1366" 
d="M600 1405h141l625 -1405h-205l-186 414h-594l-176 -414h-205zM893 592l-225 506l-209 -506h434zM908 1800l-226 -300h-112l135 300h203z" />
    <glyph glyph-name="Acircumflex" unicode="&#xc2;" horiz-adv-x="1366" 
d="M600 1405h141l625 -1405h-205l-186 414h-594l-176 -414h-205zM893 592l-225 506l-209 -506h434zM775 1809l193 -309h-112l-179 177l-171 -177h-108l187 309h190z" />
    <glyph glyph-name="Atilde" unicode="&#xc3;" horiz-adv-x="1366" 
d="M600 1405h141l625 -1405h-205l-186 414h-594l-176 -414h-205zM893 592l-225 506l-209 -506h434zM964 1777q-1 -121 -56 -189q-42 -53 -105 -53q-55 0 -148 40t-140 40q-26 0 -45 -20t-23 -60h-84q16 141 58 188.5t106 47.5q58 0 189 -53q67 -27 96 -27q28 0 47.5 19.5
t26.5 66.5h78z" />
    <glyph glyph-name="Adieresis" unicode="&#xc4;" horiz-adv-x="1366" 
d="M600 1405h141l625 -1405h-205l-186 414h-594l-176 -414h-205zM893 592l-225 506l-209 -506h434zM490 1706q39 0 67.5 -28t28.5 -68t-27 -67.5t-66 -27.5q-40 0 -68 28.5t-28 67.5q0 40 27.5 67.5t65.5 27.5zM875 1706q39 0 67.5 -28t28.5 -68t-27 -67.5t-66 -27.5
q-40 0 -68 28.5t-28 67.5q0 40 27.5 67.5t65.5 27.5z" />
    <glyph glyph-name="Aring" unicode="&#xc5;" horiz-adv-x="1366" 
d="M600 1405h141l625 -1405h-205l-186 414h-594l-176 -414h-205zM893 592l-225 506l-209 -506h434zM685 1880q77 0 132.5 -55t55.5 -134t-55.5 -135t-134.5 -56q-78 0 -133.5 55.5t-55.5 133.5q0 80 56.5 135.5t134.5 55.5zM680 1799q-51 0 -81.5 -30.5t-30.5 -79.5
q0 -48 33.5 -81.5t81.5 -33.5t82 33t34 80t-34 79.5t-85 32.5z" />
    <glyph glyph-name="Amacron" unicode="&#x100;" horiz-adv-x="1366" 
d="M600 1405h141l625 -1405h-205l-186 414h-594l-176 -414h-205zM893 592l-225 506l-209 -506h434zM1010 1669v-149h-677v149h677z" />
    <glyph glyph-name="AE" unicode="&#xc6;" horiz-adv-x="1835" 
d="M831 1397h912v-178h-574v-422h555v-179h-555v-438h596v-178h-796v616h-381l-365 -616h-219zM969 797v465l-277 -465h277z" />
    <glyph glyph-name="Ccedilla" unicode="&#xc7;" horiz-adv-x="1450" 
d="M846 -16l-5 -17q54 -13 84.5 -50t30.5 -84q0 -76 -61 -129.5t-195 -53.5q-37 0 -65 5v113q51 -4 64 -4q57 0 89 22q19 13 19 34q0 24 -20.5 40t-75.5 16q-11 0 -23 -3l42 118q-159 18 -277 87q-164 95 -258.5 259.5t-94.5 356.5q0 305 217.5 513t536.5 208
q220 0 489 -115v-215q-245 140 -479 140q-240 0 -398.5 -151.5t-158.5 -379.5q0 -230 156 -378t399 -148q254 0 496 156v-220q-220 -120 -508 -120h-4z" />
    <glyph glyph-name="uni1E0C" unicode="&#x1e0c;" horiz-adv-x="1536" 
d="M156 2v1395h471q285 0 451 -85.5t264 -251.5t98 -362q0 -140 -54 -268t-154 -225q-102 -100 -237 -151q-79 -31 -145 -41.5t-252 -10.5h-442zM606 1219h-250v-1039h256q150 0 233 20.5t138.5 52t101.5 77.5q148 150 148 379q0 225 -152 367q-56 53 -128.5 87t-137.5 45
t-209 11zM723 -117q51 0 87 -35t36 -86q0 -50 -35.5 -84t-87.5 -34q-51 0 -86 34t-35 84q0 51 35 86t86 35z" />
    <glyph glyph-name="Egrave" unicode="&#xc8;" horiz-adv-x="1024" 
d="M154 1397h792v-178h-592v-426h572v-179h-572v-434h611v-178h-811v1395zM497 1800l138 -300h-112l-230 300h204z" />
    <glyph glyph-name="Eacute" unicode="&#xc9;" horiz-adv-x="1024" 
d="M154 1397h792v-178h-592v-426h572v-179h-572v-434h611v-178h-811v1395zM736 1800l-226 -300h-112l135 300h203z" />
    <glyph glyph-name="Ecircumflex" unicode="&#xca;" horiz-adv-x="1024" 
d="M154 1397h792v-178h-592v-426h572v-179h-572v-434h611v-178h-811v1395zM643 1809l193 -309h-112l-179 177l-171 -177h-108l187 309h190z" />
    <glyph glyph-name="Edieresis" unicode="&#xcb;" horiz-adv-x="1024" 
d="M154 1397h792v-178h-592v-426h572v-179h-572v-434h611v-178h-811v1395zM318 1706q39 0 67.5 -28t28.5 -68t-27 -67.5t-66 -27.5q-40 0 -68 28.5t-28 67.5q0 40 27.5 67.5t65.5 27.5zM703 1706q39 0 67.5 -28t28.5 -68t-27 -67.5t-66 -27.5q-40 0 -68 28.5t-28 67.5
q0 40 27.5 67.5t65.5 27.5z" />
    <glyph glyph-name="Ebreve" unicode="&#x114;" horiz-adv-x="1024" 
d="M154 1397h792v-178h-592v-426h572v-179h-572v-434h611v-178h-811v1395zM832 1764q-24 -132 -99.5 -198t-191.5 -66q-110 0 -188 68.5t-101 195.5h137q16 -65 55 -96t102 -31q58 0 94.5 29.5t52.5 97.5h139z" />
    <glyph glyph-name="uni018F" unicode="&#x18f;" horiz-adv-x="1024" 
d="M905 2h-811v178h611v434h-572v179h572v426h-592v178h792v-1395z" />
    <glyph glyph-name="uni1E24" unicode="&#x1e24;" horiz-adv-x="1493" 
d="M1139 1397h200v-1397h-200v608h-785v-608h-200v1397h200v-604h785v604zM753 -117q51 0 87 -35t36 -86q0 -50 -35.5 -84t-87.5 -34q-51 0 -86 34t-35 84q0 51 35 86t86 35z" />
    <glyph glyph-name="Igrave" unicode="&#xcc;" horiz-adv-x="512" 
d="M156 1397h200v-1397h-200v1397zM206 1800l138 -300h-112l-230 300h204z" />
    <glyph glyph-name="Iacute" unicode="&#xcd;" horiz-adv-x="512" 
d="M156 1397h200v-1397h-200v1397zM533 1800l-226 -300h-112l135 300h203z" />
    <glyph glyph-name="Icircumflex" unicode="&#xce;" horiz-adv-x="512" 
d="M156 1397h200v-1397h-200v1397zM361 1809l193 -309h-112l-179 177l-171 -177h-108l187 309h190z" />
    <glyph glyph-name="Idieresis" unicode="&#xcf;" horiz-adv-x="512" 
d="M156 1397h200v-1397h-200v1397zM70 1706q39 0 67.5 -28t28.5 -68t-27 -67.5t-66 -27.5q-40 0 -68 28.5t-28 67.5q0 40 27.5 67.5t65.5 27.5zM455 1706q39 0 67.5 -28t28.5 -68t-27 -67.5t-66 -27.5q-40 0 -68 28.5t-28 67.5q0 40 27.5 67.5t65.5 27.5z" />
    <glyph glyph-name="Imacron" unicode="&#x12a;" horiz-adv-x="512" 
d="M156 1397h200v-1397h-200v1397zM590 1669v-149h-677v149h677z" />
    <glyph glyph-name="uni1E36" unicode="&#x1e36;" horiz-adv-x="1004" 
d="M154 1397h200v-1215h629v-182h-829v1397zM573 -117q51 0 87 -35t36 -86q0 -50 -35.5 -84t-87.5 -34q-51 0 -86 34t-35 84q0 51 35 86t86 35z" />
    <glyph glyph-name="uni1E38" unicode="&#x1e38;" horiz-adv-x="1004" 
d="M154 1397h200v-1215h629v-182h-829v1397zM573 -117q51 0 87 -35t36 -86q0 -50 -35.5 -84t-87.5 -34q-51 0 -86 34t-35 84q0 51 35 86t86 35zM910 1669v-149h-677v149h677z" />
    <glyph glyph-name="uni1E40" unicode="&#x1e40;" horiz-adv-x="1599" 
d="M1266 1397h186v-1397h-201v1087l-430 -540h-37l-434 540v-1087h-200v1397h188l465 -574zM793 1713q51 0 87 -35t36 -86q0 -50 -35.5 -84t-87.5 -34q-51 0 -86 34t-35 84q0 51 35 86t86 35z" />
    <glyph glyph-name="uni1E42" unicode="&#x1e42;" horiz-adv-x="1599" 
d="M1266 1397h186v-1397h-201v1087l-430 -540h-37l-434 540v-1087h-200v1397h188l465 -574zM793 -117q51 0 87 -35t36 -86q0 -50 -35.5 -84t-87.5 -34q-51 0 -86 34t-35 84q0 51 35 86t86 35z" />
    <glyph glyph-name="Ntilde" unicode="&#xd1;" horiz-adv-x="1599" 
d="M1264 1397h190v-1397h-172l-934 1075v-1075h-188v1397h162l942 -1084v1084zM1126 1777q-1 -121 -56 -189q-42 -53 -105 -53q-55 0 -148 40t-140 40q-26 0 -45 -20t-23 -60h-84q16 141 58 188.5t106 47.5q58 0 189 -53q67 -27 96 -27q28 0 47.5 19.5t26.5 66.5h78z" />
    <glyph glyph-name="uni1E44" unicode="&#x1e44;" horiz-adv-x="1599" 
d="M1264 1397h190v-1397h-172l-934 1075v-1075h-188v1397h162l942 -1084v1084zM793 1713q51 0 87 -35t36 -86q0 -50 -35.5 -84t-87.5 -34q-51 0 -86 34t-35 84q0 51 35 86t86 35z" />
    <glyph glyph-name="uni1E46" unicode="&#x1e46;" horiz-adv-x="1599" 
d="M1264 1397h190v-1397h-172l-934 1075v-1075h-188v1397h162l942 -1084v1084zM793 -117q51 0 87 -35t36 -86q0 -50 -35.5 -84t-87.5 -34q-51 0 -86 34t-35 84q0 51 35 86t86 35z" />
    <glyph glyph-name="Eng" unicode="&#x14a;" horiz-adv-x="1599" 
d="M1454 0q-2 -179 -39 -267q-40 -93 -128 -148.5t-212 -55.5q-19 0 -55 6l-37 186h51q86 0 131.5 21t72.5 74q24 50 26 205l-916 1054v-1075h-188v1397h162l942 -1084v1084h190v-1397z" />
    <glyph glyph-name="Ograve" unicode="&#xd2;" horiz-adv-x="1686" 
d="M840 1417q324 0 539.5 -205t215.5 -514t-217.5 -511.5t-548.5 -202.5q-316 0 -526.5 202.5t-210.5 507.5q0 313 212 518t536 205zM848 1227q-240 0 -394.5 -150t-154.5 -383q0 -226 155 -376t388 -150q234 0 390.5 153t156.5 381q0 222 -156.5 373.5t-384.5 151.5z
M808 1800l138 -300h-112l-230 300h204z" />
    <glyph glyph-name="Oacute" unicode="&#xd3;" horiz-adv-x="1686" 
d="M840 1417q324 0 539.5 -205t215.5 -514t-217.5 -511.5t-548.5 -202.5q-316 0 -526.5 202.5t-210.5 507.5q0 313 212 518t536 205zM848 1227q-240 0 -394.5 -150t-154.5 -383q0 -226 155 -376t388 -150q234 0 390.5 153t156.5 381q0 222 -156.5 373.5t-384.5 151.5z
M1043 1800l-226 -300h-112l135 300h203z" />
    <glyph glyph-name="Ocircumflex" unicode="&#xd4;" horiz-adv-x="1686" 
d="M840 1417q324 0 539.5 -205t215.5 -514t-217.5 -511.5t-548.5 -202.5q-316 0 -526.5 202.5t-210.5 507.5q0 313 212 518t536 205zM848 1227q-240 0 -394.5 -150t-154.5 -383q0 -226 155 -376t388 -150q234 0 390.5 153t156.5 381q0 222 -156.5 373.5t-384.5 151.5z
M902 1809l193 -309h-112l-179 177l-171 -177h-108l187 309h190z" />
    <glyph glyph-name="Otilde" unicode="&#xd5;" horiz-adv-x="1686" 
d="M840 1417q324 0 539.5 -205t215.5 -514t-217.5 -511.5t-548.5 -202.5q-316 0 -526.5 202.5t-210.5 507.5q0 313 212 518t536 205zM848 1227q-240 0 -394.5 -150t-154.5 -383q0 -226 155 -376t388 -150q234 0 390.5 153t156.5 381q0 222 -156.5 373.5t-384.5 151.5z
M1148 1777q-1 -121 -56 -189q-42 -53 -105 -53q-55 0 -148 40t-140 40q-26 0 -45 -20t-23 -60h-84q16 141 58 188.5t106 47.5q58 0 189 -53q67 -27 96 -27q28 0 47.5 19.5t26.5 66.5h78z" />
    <glyph glyph-name="Odieresis" unicode="&#xd6;" horiz-adv-x="1686" 
d="M840 1417q324 0 539.5 -205t215.5 -514t-217.5 -511.5t-548.5 -202.5q-316 0 -526.5 202.5t-210.5 507.5q0 313 212 518t536 205zM848 1227q-240 0 -394.5 -150t-154.5 -383q0 -226 155 -376t388 -150q234 0 390.5 153t156.5 381q0 222 -156.5 373.5t-384.5 151.5z
M637 1706q39 0 67.5 -28t28.5 -68t-27 -67.5t-66 -27.5q-40 0 -68 28.5t-28 67.5q0 40 27.5 67.5t65.5 27.5zM1022 1706q39 0 67.5 -28t28.5 -68t-27 -67.5t-66 -27.5q-40 0 -68 28.5t-28 67.5q0 40 27.5 67.5t65.5 27.5z" />
    <glyph glyph-name="Oslash" unicode="&#xd8;" horiz-adv-x="1686" 
d="M1374 1419l94 -82l-94 -114q104 -95 161.5 -232t57.5 -289q0 -309 -213.5 -512.5t-537.5 -203.5q-263 0 -432 114l-101 -118l-96 77l96 119q-102 93 -158.5 228.5t-56.5 285.5q0 314 212.5 518.5t537.5 204.5q228 0 432 -117zM1239 1071l-700 -819q144 -82 303 -82
q236 0 390 151.5t154 383.5q0 103 -39 200t-108 166zM442 328l703 821q-141 82 -299 82q-235 0 -390 -151t-155 -380q0 -211 141 -372z" />
    <glyph glyph-name="OE" unicode="&#x152;" horiz-adv-x="1878" 
d="M887 1397h905v-178h-571v-422h551v-179h-551v-438h594v-178h-861q-230 0 -373.5 47t-259.5 147q-225 194 -225 496q0 315 219 510t572 195zM881 174h139v1049h-78q-232 0 -362 -71t-201.5 -191t-71.5 -263q0 -224 164 -374t410 -150z" />
    <glyph glyph-name="uni1E5A" unicode="&#x1e5a;" horiz-adv-x="1237" 
d="M160 0v1397h350q212 0 336.5 -105t124.5 -284q0 -122 -61 -211t-175 -133q67 -44 131 -120t180 -265q73 -119 117 -179l74 -100h-238l-61 92q-3 5 -12 17l-39 55l-62 102l-67 109q-62 86 -113.5 137t-93 73.5t-139.5 22.5h-52v-608h-200zM420 1227h-60v-441h76
q152 0 208.5 26t88 78.5t31.5 119.5q0 66 -35 119.5t-98.5 75.5t-210.5 22zM633 -117q51 0 87 -35t36 -86q0 -50 -35.5 -84t-87.5 -34q-51 0 -86 34t-35 84q0 51 35 86t86 35z" />
    <glyph glyph-name="uni1E5C" unicode="&#x1e5c;" horiz-adv-x="1237" 
d="M160 0v1397h350q212 0 336.5 -105t124.5 -284q0 -122 -61 -211t-175 -133q67 -44 131 -120t180 -265q73 -119 117 -179l74 -100h-238l-61 92q-3 5 -12 17l-39 55l-62 102l-67 109q-62 86 -113.5 137t-93 73.5t-139.5 22.5h-52v-608h-200zM420 1227h-60v-441h76
q152 0 208.5 26t88 78.5t31.5 119.5q0 66 -35 119.5t-98.5 75.5t-210.5 22zM633 -117q51 0 87 -35t36 -86q0 -50 -35.5 -84t-87.5 -34q-51 0 -86 34t-35 84q0 51 35 86t86 35zM960 1669v-149h-677v149h677z" />
    <glyph glyph-name="Sacute" unicode="&#x15a;" horiz-adv-x="938" 
d="M500 586l-152 92q-143 87 -203.5 171.5t-60.5 194.5q0 165 114.5 268t297.5 103q175 0 321 -98v-227q-151 145 -325 145q-98 0 -161 -45.5t-63 -116.5q0 -63 46 -118t149 -115l153 -90q256 -152 256 -388q0 -168 -112.5 -273t-292.5 -105q-207 0 -377 127v254
q162 -205 375 -205q94 0 156.5 52.5t62.5 131.5q0 128 -184 242zM719 1800l-226 -300h-112l135 300h203z" />
    <glyph glyph-name="uni1E62" unicode="&#x1e62;" horiz-adv-x="938" 
d="M500 586l-152 92q-143 87 -203.5 171.5t-60.5 194.5q0 165 114.5 268t297.5 103q175 0 321 -98v-227q-151 145 -325 145q-98 0 -161 -45.5t-63 -116.5q0 -63 46 -118t149 -115l153 -90q256 -152 256 -388q0 -168 -112.5 -273t-292.5 -105q-207 0 -377 127v254
q162 -205 375 -205q94 0 156.5 52.5t62.5 131.5q0 128 -184 242zM473 -117q51 0 87 -35t36 -86q0 -50 -35.5 -84t-87.5 -34q-51 0 -86 34t-35 84q0 51 35 86t86 35z" />
    <glyph glyph-name="uni1E6C" unicode="&#x1e6c;" horiz-adv-x="1237" 
d="M35 1399h1167v-178h-487v-1221h-201v1221h-479v178zM603 -117q51 0 87 -35t36 -86q0 -50 -35.5 -84t-87.5 -34q-51 0 -86 34t-35 84q0 51 35 86t86 35z" />
    <glyph glyph-name="Ugrave" unicode="&#xd9;" horiz-adv-x="1450" 
d="M1126 1397h201v-793q0 -161 -23.5 -243t-58 -136.5t-84.5 -97.5q-166 -143 -434 -143q-273 0 -438 142q-50 44 -84.5 98.5t-57 133.5t-22.5 248v791h201v-793q0 -197 45 -274t137 -123.5t217 -46.5q178 0 290 93q59 50 85 118t26 233v793zM667 1800l138 -300h-112
l-230 300h204z" />
    <glyph glyph-name="Uacute" unicode="&#xda;" horiz-adv-x="1450" 
d="M1126 1397h201v-793q0 -161 -23.5 -243t-58 -136.5t-84.5 -97.5q-166 -143 -434 -143q-273 0 -438 142q-50 44 -84.5 98.5t-57 133.5t-22.5 248v791h201v-793q0 -197 45 -274t137 -123.5t217 -46.5q178 0 290 93q59 50 85 118t26 233v793zM962 1800l-226 -300h-112
l135 300h203z" />
    <glyph glyph-name="Ucircumflex" unicode="&#xdb;" horiz-adv-x="1450" 
d="M1126 1397h201v-793q0 -161 -23.5 -243t-58 -136.5t-84.5 -97.5q-166 -143 -434 -143q-273 0 -438 142q-50 44 -84.5 98.5t-57 133.5t-22.5 248v791h201v-793q0 -197 45 -274t137 -123.5t217 -46.5q178 0 290 93q59 50 85 118t26 233v793zM809 1809l193 -309h-112
l-179 177l-171 -177h-108l187 309h190z" />
    <glyph glyph-name="Udieresis" unicode="&#xdc;" horiz-adv-x="1450" 
d="M1126 1397h201v-793q0 -161 -23.5 -243t-58 -136.5t-84.5 -97.5q-166 -143 -434 -143q-273 0 -438 142q-50 44 -84.5 98.5t-57 133.5t-22.5 248v791h201v-793q0 -197 45 -274t137 -123.5t217 -46.5q178 0 290 93q59 50 85 118t26 233v793zM533 1706q39 0 67.5 -28
t28.5 -68t-27 -67.5t-66 -27.5q-40 0 -68 28.5t-28 67.5q0 40 27.5 67.5t65.5 27.5zM918 1706q39 0 67.5 -28t28.5 -68t-27 -67.5t-66 -27.5q-40 0 -68 28.5t-28 67.5q0 40 27.5 67.5t65.5 27.5z" />
    <glyph glyph-name="Umacron" unicode="&#x16a;" horiz-adv-x="1450" 
d="M1126 1397h201v-793q0 -161 -23.5 -243t-58 -136.5t-84.5 -97.5q-166 -143 -434 -143q-273 0 -438 142q-50 44 -84.5 98.5t-57 133.5t-22.5 248v791h201v-793q0 -197 45 -274t137 -123.5t217 -46.5q178 0 290 93q59 50 85 118t26 233v793zM1050 1669v-149h-677v149h677z
" />
    <glyph glyph-name="Yacute" unicode="&#xdd;" horiz-adv-x="1237" 
d="M995 1397h242l-516 -658v-739h-205v739l-516 658h242l374 -482zM842 1800l-226 -300h-112l135 300h203z" />
    <glyph glyph-name="Ydieresis" unicode="&#x178;" horiz-adv-x="1237" 
d="M995 1397h242l-516 -658v-739h-205v739l-516 658h242l374 -482zM400 1706q39 0 67.5 -28t28.5 -68t-27 -67.5t-66 -27.5q-40 0 -68 28.5t-28 67.5q0 40 27.5 67.5t65.5 27.5zM785 1706q39 0 67.5 -28t28.5 -68t-27 -67.5t-66 -27.5q-40 0 -68 28.5t-28 67.5
q0 40 27.5 67.5t65.5 27.5z" />
    <glyph glyph-name="Eth" unicode="&#xd0;" horiz-adv-x="1536" 
d="M156 2v631h-162v131h162v633h471q285 0 451 -85.5t264 -251.5t98 -362q0 -140 -54 -268t-154 -225q-102 -100 -237 -151q-79 -31 -145 -41.5t-252 -10.5h-442zM752 633h-396v-453h256q150 0 233 20.5t138.5 52t101.5 77.5q148 150 148 379q0 225 -152 367
q-56 53 -128.5 87t-137.5 45t-209 11h-250v-455h396v-131z" />
    <glyph glyph-name="Thorn" unicode="&#xde;" horiz-adv-x="1044" 
d="M143 0v1397h201v-301h242q201 0 319.5 -108.5t118.5 -291.5q0 -174 -120 -284q-66 -60 -159 -84.5t-253 -24.5h-148v-303h-201zM551 917h-207v-436h219q122 0 188 57.5t66 163.5q0 215 -266 215z" />
    <glyph glyph-name="a" unicode="a" horiz-adv-x="874" 
d="M707 553v-391q0 -47 32 -47q33 0 103 49v-111q-62 -40 -99.5 -54.5t-78.5 -14.5q-117 0 -138 92q-116 -90 -247 -90q-96 0 -160 63.5t-64 159.5q0 87 62.5 155.5t177.5 108.5l233 80v49q0 166 -166 166q-149 0 -290 -154v199q106 125 305 125q149 0 239 -78
q30 -25 54 -66.5t30.5 -83t6.5 -157.5zM528 182v273l-122 -47q-93 -37 -131.5 -74.5t-38.5 -93.5q0 -57 36.5 -93t94.5 -36q87 0 161 71z" />
    <glyph glyph-name="b" unicode="b" horiz-adv-x="1024" 
d="M121 1397h182v-543q118 86 252 86q175 0 286 -132t111 -339q0 -222 -132.5 -353.5t-354.5 -131.5q-89 0 -187.5 19t-156.5 48v1346zM303 680v-498q93 -28 191 -28q121 0 197.5 86t76.5 221q0 137 -71.5 223t-186.5 86q-102 0 -207 -90z" />
    <glyph glyph-name="c" unicode="c" horiz-adv-x="897" 
d="M819 215v-180q-137 -51 -268 -51q-216 0 -344.5 128t-128.5 343q0 217 125 350t329 133q71 0 127.5 -13.5t139.5 -50.5v-194q-138 88 -256 88q-123 0 -202 -86.5t-79 -220.5q0 -141 85.5 -224t230.5 -83q105 0 241 61z" />
    <glyph glyph-name="d" unicode="d" horiz-adv-x="1044" 
d="M743 1397h183v-1397h-389q-204 0 -325.5 129t-121.5 346q0 203 127.5 334t325.5 131q92 0 200 -39v496zM743 156v583q-85 43 -172 43q-136 0 -216.5 -89t-80.5 -240q0 -142 70 -219q42 -46 89 -62t169 -16h141z" />
    <glyph glyph-name="e" unicode="e" horiz-adv-x="981" 
d="M913 444h-647q7 -132 88.5 -210t210.5 -78q180 0 332 112v-178q-84 -56 -166.5 -80t-193.5 -24q-152 0 -246 63t-150.5 169.5t-56.5 246.5q0 210 119 341.5t309 131.5q183 0 292 -128t109 -343v-23zM270 553h463q-7 109 -65 168t-156 59t-160.5 -59t-81.5 -168z" />
    <glyph glyph-name="f" unicode="f" horiz-adv-x="512" 
d="M150 920v55q0 222 94.5 331t226.5 109q57 0 135 -18v-178q-44 16 -84 16q-107 0 -148.5 -57t-41.5 -203v-55h164v-164h-164v-756h-182v756h-132v164h132z" />
    <glyph glyph-name="g" unicode="g" horiz-adv-x="874" 
d="M82 602q0 147 107.5 232.5t293.5 85.5h379v-142h-186q54 -55 75 -100t21 -103q0 -72 -41 -141.5t-105.5 -106.5t-211.5 -59q-103 -15 -103 -71q0 -32 38.5 -52.5t139.5 -42.5q169 -37 217.5 -58t87.5 -60q66 -66 66 -166q0 -131 -116.5 -209t-311.5 -78
q-197 0 -314.5 78.5t-117.5 210.5q0 187 231 241q-92 59 -92 117q0 44 39.5 80t106.5 53q-203 90 -203 291zM424 762q-74 0 -126 -50t-52 -120q0 -71 51 -117.5t129 -46.5q77 0 128.5 47.5t51.5 118.5q0 72 -52 120t-130 48zM381 -43q-92 0 -150.5 -39t-58.5 -100
q0 -142 256 -142q121 0 187.5 35.5t66.5 100.5q0 64 -84 104.5t-217 40.5z" />
    <glyph glyph-name="h" unicode="h" horiz-adv-x="1024" 
d="M125 1397h182v-598q114 139 283 139q92 0 165 -46t108.5 -127t35.5 -241v-524h-182v569q0 101 -49.5 162.5t-130.5 61.5q-60 0 -113 -31t-117 -103v-659h-182v1397z" />
    <glyph glyph-name="i" unicode="i" horiz-adv-x="449" 
d="M223 1307q45 0 77 -31t32 -76q0 -44 -32 -76t-77 -32q-42 0 -74 32.5t-32 75.5q0 42 32 74.5t74 32.5zM133 920h182v-920h-182v920z" />
    <glyph glyph-name="j" unicode="j" horiz-adv-x="449" 
d="M213 1307q45 0 77 -31.5t32 -75.5q0 -46 -30.5 -77t-76.5 -31q-43 0 -76 32t-33 76q0 42 32.5 74.5t74.5 32.5zM127 920h182v-1051q0 -239 -184 -338l-135 133q63 22 100 77t37 128v1051z" />
    <glyph glyph-name="k" unicode="k" horiz-adv-x="981" 
d="M727 920h217l-393 -451l473 -469h-244l-461 469zM129 1397h182v-1397h-182v1397z" />
    <glyph glyph-name="l" unicode="l" horiz-adv-x="449" 
d="M133 1397h182v-1397h-182v1397z" />
    <glyph glyph-name="m" unicode="m" horiz-adv-x="1579" 
d="M883 668v-668h-183v512q0 153 -41 213.5t-143 60.5q-57 0 -104.5 -26t-108.5 -92v-668h-182v920h182v-121q139 139 272 139q175 0 271 -166q146 168 305 168q134 0 220.5 -98t86.5 -299v-543h-182v545q0 115 -47 176t-135 61q-113 0 -211 -114z" />
    <glyph glyph-name="n" unicode="n" horiz-adv-x="1024" 
d="M311 920v-117q122 135 277 135q86 0 160 -44.5t112.5 -122t38.5 -245.5v-526h-182v524q0 141 -43 201.5t-144 60.5q-129 0 -219 -129v-657h-186v920h186z" />
    <glyph glyph-name="o" unicode="o" horiz-adv-x="1130" 
d="M569 922q210 0 349 -135.5t139 -340.5q0 -199 -141 -330.5t-355 -131.5q-207 0 -346 133.5t-139 333.5q0 202 140.5 336.5t352.5 134.5zM559 758q-131 0 -215 -86t-84 -219q0 -132 86 -215.5t221 -83.5q134 0 219.5 84.5t85.5 216.5q0 131 -89 217t-224 86z" />
    <glyph glyph-name="p" unicode="p" horiz-adv-x="1024" 
d="M117 -469v1389h319q245 0 381.5 -122t136.5 -341q0 -207 -128.5 -340t-327.5 -133q-88 0 -195 39v-492h-186zM432 750h-129v-566q84 -43 176 -43q128 0 209.5 89t81.5 229q0 90 -38.5 159t-105 100.5t-194.5 31.5z" />
    <glyph glyph-name="q" unicode="q" horiz-adv-x="1024" 
d="M563 920h344v-1389h-182v485q-119 -32 -201 -32q-196 0 -324 132t-128 335q0 215 133 342t358 127zM725 174v576h-115q-118 0 -157.5 -10.5t-68.5 -29t-53 -45.5q-75 -85 -75 -210q0 -141 84.5 -230.5t218.5 -89.5q31 0 51 4t88 27l14 4z" />
    <glyph glyph-name="r" unicode="r" horiz-adv-x="811" 
d="M324 920v-211l10 16q132 213 264 213q103 0 215 -104l-96 -160q-95 90 -176 90q-88 0 -152.5 -84t-64.5 -199v-481h-183v920h183z" />
    <glyph glyph-name="s" unicode="s" horiz-adv-x="788" 
d="M84 66v196q77 -54 157.5 -87.5t135.5 -33.5q57 0 98 28t41 67q0 40 -26.5 66.5t-114.5 76.5q-176 98 -230.5 167.5t-54.5 151.5q0 106 82.5 173t212.5 67q135 0 277 -76v-180q-162 98 -265 98q-53 0 -85.5 -22.5t-32.5 -59.5q0 -32 29.5 -61t103.5 -70l65 -37
q230 -130 230 -288q0 -113 -88.5 -185.5t-227.5 -72.5q-82 0 -146 17.5t-161 64.5z" />
    <glyph glyph-name="t" unicode="t" horiz-adv-x="682" 
d="M0 774l342 336v-190h291v-164h-291v-451q0 -158 131 -158q98 0 207 66v-170q-105 -59 -229 -59q-125 0 -208 73q-26 22 -43 49.5t-28.5 72t-11.5 169.5v408h-160v18z" />
    <glyph glyph-name="u" unicode="u" horiz-adv-x="1024" 
d="M715 0v117q-58 -63 -132.5 -98t-148.5 -35q-87 0 -160.5 43.5t-111 118t-37.5 247.5v527h182v-525q0 -145 41.5 -202.5t145.5 -57.5q130 0 221 127v658h182v-920h-182z" />
    <glyph glyph-name="v" unicode="v" horiz-adv-x="897" 
d="M692 920h197l-406 -936h-61l-416 936h199l248 -566z" />
    <glyph glyph-name="w" unicode="w" horiz-adv-x="1473" 
d="M1278 920h195l-406 -936h-57l-273 641l-268 -641h-59l-410 936h195l241 -558l234 558h135l233 -558z" />
    <glyph glyph-name="x" unicode="x" horiz-adv-x="1024" 
d="M764 920h233l-379 -453l406 -467h-233l-289 330l-273 -330h-229l387 467l-387 453h229l273 -316z" />
    <glyph glyph-name="y" unicode="y" horiz-adv-x="897" 
d="M692 920h205l-651 -1389h-203l313 666l-356 723h207l248 -519z" />
    <glyph glyph-name="z" unicode="z" horiz-adv-x="854" 
d="M43 920h786l-487 -750h487v-170h-806l483 750h-463v170z" />
    <glyph glyph-name="agrave" unicode="&#xe0;" horiz-adv-x="874" 
d="M707 553v-391q0 -47 32 -47q33 0 103 49v-111q-62 -40 -99.5 -54.5t-78.5 -14.5q-117 0 -138 92q-116 -90 -247 -90q-96 0 -160 63.5t-64 159.5q0 87 62.5 155.5t177.5 108.5l233 80v49q0 166 -166 166q-149 0 -290 -154v199q106 125 305 125q149 0 239 -78
q30 -25 54 -66.5t30.5 -83t6.5 -157.5zM528 182v273l-122 -47q-93 -37 -131.5 -74.5t-38.5 -93.5q0 -57 36.5 -93t94.5 -36q87 0 161 71zM423 1420l138 -300h-112l-230 300h204z" />
    <glyph glyph-name="aacute" unicode="&#xe1;" horiz-adv-x="874" 
d="M707 553v-391q0 -47 32 -47q33 0 103 49v-111q-62 -40 -99.5 -54.5t-78.5 -14.5q-117 0 -138 92q-116 -90 -247 -90q-96 0 -160 63.5t-64 159.5q0 87 62.5 155.5t177.5 108.5l233 80v49q0 166 -166 166q-149 0 -290 -154v199q106 125 305 125q149 0 239 -78
q30 -25 54 -66.5t30.5 -83t6.5 -157.5zM528 182v273l-122 -47q-93 -37 -131.5 -74.5t-38.5 -93.5q0 -57 36.5 -93t94.5 -36q87 0 161 71zM662 1419l-226 -300h-112l135 300h203z" />
    <glyph glyph-name="acircumflex" unicode="&#xe2;" horiz-adv-x="874" 
d="M707 553v-391q0 -47 32 -47q33 0 103 49v-111q-62 -40 -99.5 -54.5t-78.5 -14.5q-117 0 -138 92q-116 -90 -247 -90q-96 0 -160 63.5t-64 159.5q0 87 62.5 155.5t177.5 108.5l233 80v49q0 166 -166 166q-149 0 -290 -154v199q106 125 305 125q149 0 239 -78
q30 -25 54 -66.5t30.5 -83t6.5 -157.5zM528 182v273l-122 -47q-93 -37 -131.5 -74.5t-38.5 -93.5q0 -57 36.5 -93t94.5 -36q87 0 161 71zM529 1427l193 -309h-112l-179 177l-171 -177h-108l187 309h190z" />
    <glyph glyph-name="atilde" unicode="&#xe3;" horiz-adv-x="874" 
d="M707 553v-391q0 -47 32 -47q33 0 103 49v-111q-62 -40 -99.5 -54.5t-78.5 -14.5q-117 0 -138 92q-116 -90 -247 -90q-96 0 -160 63.5t-64 159.5q0 87 62.5 155.5t177.5 108.5l233 80v49q0 166 -166 166q-149 0 -290 -154v199q106 125 305 125q149 0 239 -78
q30 -25 54 -66.5t30.5 -83t6.5 -157.5zM528 182v273l-122 -47q-93 -37 -131.5 -74.5t-38.5 -93.5q0 -57 36.5 -93t94.5 -36q87 0 161 71zM244 1366q39 0 67.5 -28t28.5 -68t-27 -67.5t-66 -27.5q-40 0 -68 28.5t-28 67.5q0 40 27.5 67.5t65.5 27.5zM629 1366q39 0 67.5 -28
t28.5 -68t-27 -67.5t-66 -27.5q-40 0 -68 28.5t-28 67.5q0 40 27.5 67.5t65.5 27.5z" />
    <glyph glyph-name="adieresis" unicode="&#xe4;" horiz-adv-x="874" 
d="M707 553v-391q0 -47 32 -47q33 0 103 49v-111q-62 -40 -99.5 -54.5t-78.5 -14.5q-117 0 -138 92q-116 -90 -247 -90q-96 0 -160 63.5t-64 159.5q0 87 62.5 155.5t177.5 108.5l233 80v49q0 166 -166 166q-149 0 -290 -154v199q106 125 305 125q149 0 239 -78
q30 -25 54 -66.5t30.5 -83t6.5 -157.5zM528 182v273l-122 -47q-93 -37 -131.5 -74.5t-38.5 -93.5q0 -57 36.5 -93t94.5 -36q87 0 161 71zM738 1397q-1 -121 -56 -189q-42 -53 -105 -53q-55 0 -148 40t-140 40q-26 0 -45 -20t-23 -60h-84q16 141 58 188.5t106 47.5
q58 0 189 -53q67 -27 96 -27q28 0 47.5 19.5t26.5 66.5h78z" />
    <glyph glyph-name="aring" unicode="&#xe5;" horiz-adv-x="874" 
d="M707 553v-391q0 -47 32 -47q33 0 103 49v-111q-62 -40 -99.5 -54.5t-78.5 -14.5q-117 0 -138 92q-116 -90 -247 -90q-96 0 -160 63.5t-64 159.5q0 87 62.5 155.5t177.5 108.5l233 80v49q0 166 -166 166q-149 0 -290 -154v199q106 125 305 125q149 0 239 -78
q30 -25 54 -66.5t30.5 -83t6.5 -157.5zM528 182v273l-122 -47q-93 -37 -131.5 -74.5t-38.5 -93.5q0 -57 36.5 -93t94.5 -36q87 0 161 71zM439 1497q77 0 132.5 -55t55.5 -134t-55.5 -135t-134.5 -56q-78 0 -133.5 55.5t-55.5 133.5q0 80 56.5 135.5t134.5 55.5zM434 1416
q-51 0 -81.5 -30.5t-30.5 -79.5q0 -48 33.5 -81.5t81.5 -33.5t82 33t34 80t-34 79.5t-85 32.5z" />
    <glyph glyph-name="amacron" unicode="&#x101;" horiz-adv-x="874" 
d="M707 553v-391q0 -47 32 -47q33 0 103 49v-111q-62 -40 -99.5 -54.5t-78.5 -14.5q-117 0 -138 92q-116 -90 -247 -90q-96 0 -160 63.5t-64 159.5q0 87 62.5 155.5t177.5 108.5l233 80v49q0 166 -166 166q-149 0 -290 -154v199q106 125 305 125q149 0 239 -78
q30 -25 54 -66.5t30.5 -83t6.5 -157.5zM528 182v273l-122 -47q-93 -37 -131.5 -74.5t-38.5 -93.5q0 -57 36.5 -93t94.5 -36q87 0 161 71zM760 1339v-149h-677v149h677z" />
    <glyph glyph-name="ae" unicode="&#xe6;" horiz-adv-x="1366" 
d="M936 938q158 0 254 -112.5t96 -297.5v-28h-567q5 -135 43.5 -207.5t100.5 -109t143 -36.5q131 0 280 111v-178q-83 -55 -149.5 -75.5t-163.5 -20.5q-95 0 -181.5 39.5t-127.5 101.5q-179 -141 -345 -141q-110 0 -178.5 64.5t-68.5 168.5q0 77 47 138t144.5 103.5
t146.5 53.5l127 39v29q0 103 -34.5 145.5t-117.5 42.5q-157 0 -293 -152v220q77 56 144 79t151 23q181 0 277 -119q76 65 137.5 92t134.5 27zM741 616h363q-11 78 -56.5 121t-117.5 43q-137 0 -189 -164zM537 162v297l-99 -39q-100 -39 -143 -78t-43 -90q0 -60 38.5 -101.5
t92.5 -41.5q37 0 66 10.5t88 42.5z" />
    <glyph glyph-name="ccedilla" unicode="&#xe7;" horiz-adv-x="897" 
d="M538 -16l-5 -17q54 -13 84.5 -50t30.5 -84q0 -76 -61 -129.5t-195 -53.5q-37 0 -65 5v113q51 -4 64 -4q57 0 89 22q19 13 19 34q0 24 -20.5 40t-75.5 16q-11 0 -23 -3l44 123q-130 29 -238 136.5t-108 322.5q0 217 125 350t329 133q71 0 127.5 -13.5t139.5 -50.5v-194
q-138 88 -256 88q-123 0 -202 -86.5t-79 -220.5q0 -141 85.5 -224t230.5 -83q105 0 241 61v-180q-137 -51 -268 -51h-13z" />
    <glyph glyph-name="uni1E0D" unicode="&#x1e0d;" horiz-adv-x="1044" 
d="M743 1397h183v-1397h-389q-204 0 -325.5 129t-121.5 346q0 203 127.5 334t325.5 131q92 0 200 -39v496zM743 156v583q-85 43 -172 43q-136 0 -216.5 -89t-80.5 -240q0 -142 70 -219q42 -46 89 -62t169 -16h141zM563 -117q51 0 87 -35t36 -86q0 -50 -35.5 -84t-87.5 -34
q-51 0 -86 34t-35 84q0 51 35 86t86 35z" />
    <glyph glyph-name="egrave" unicode="&#xe8;" horiz-adv-x="981" 
d="M913 444h-647q7 -132 88.5 -210t210.5 -78q180 0 332 112v-178q-84 -56 -166.5 -80t-193.5 -24q-152 0 -246 63t-150.5 169.5t-56.5 246.5q0 210 119 341.5t309 131.5q183 0 292 -128t109 -343v-23zM270 553h463q-7 109 -65 168t-156 59t-160.5 -59t-81.5 -168zM716 1419
l-226 -300h-112l135 300h203z" />
    <glyph glyph-name="eacute" unicode="&#xe9;" horiz-adv-x="981" 
d="M913 444h-647q7 -132 88.5 -210t210.5 -78q180 0 332 112v-178q-84 -56 -166.5 -80t-193.5 -24q-152 0 -246 63t-150.5 169.5t-56.5 246.5q0 210 119 341.5t309 131.5q183 0 292 -128t109 -343v-23zM270 553h463q-7 109 -65 168t-156 59t-160.5 -59t-81.5 -168zM477 1419
l138 -300h-112l-230 300h204z" />
    <glyph glyph-name="ecircumflex" unicode="&#xea;" horiz-adv-x="981" 
d="M913 444h-647q7 -132 88.5 -210t210.5 -78q180 0 332 112v-178q-84 -56 -166.5 -80t-193.5 -24q-152 0 -246 63t-150.5 169.5t-56.5 246.5q0 210 119 341.5t309 131.5q183 0 292 -128t109 -343v-23zM270 553h463q-7 109 -65 168t-156 59t-160.5 -59t-81.5 -168zM582 1427
l193 -309h-112l-179 177l-171 -177h-108l187 309h190z" />
    <glyph glyph-name="edieresis" unicode="&#xeb;" horiz-adv-x="981" 
d="M913 444h-647q7 -132 88.5 -210t210.5 -78q180 0 332 112v-178q-84 -56 -166.5 -80t-193.5 -24q-152 0 -246 63t-150.5 169.5t-56.5 246.5q0 210 119 341.5t309 131.5q183 0 292 -128t109 -343v-23zM270 553h463q-7 109 -65 168t-156 59t-160.5 -59t-81.5 -168zM297 1366
q39 0 67.5 -28t28.5 -68t-27 -67.5t-66 -27.5q-40 0 -68 28.5t-28 67.5q0 40 27.5 67.5t65.5 27.5zM682 1366q39 0 67.5 -28t28.5 -68t-27 -67.5t-66 -27.5q-40 0 -68 28.5t-28 67.5q0 40 27.5 67.5t65.5 27.5z" />
    <glyph glyph-name="ebreve" unicode="&#x115;" horiz-adv-x="981" 
d="M913 444h-647q7 -132 88.5 -210t210.5 -78q180 0 332 112v-178q-84 -56 -166.5 -80t-193.5 -24q-152 0 -246 63t-150.5 169.5t-56.5 246.5q0 210 119 341.5t309 131.5q183 0 292 -128t109 -343v-23zM270 553h463q-7 109 -65 168t-156 59t-160.5 -59t-81.5 -168zM811 1397
q-24 -132 -99.5 -198t-191.5 -66q-110 0 -188 68.5t-101 195.5h137q16 -65 55 -96t102 -31q58 0 94.5 29.5t52.5 97.5h139z" />
    <glyph glyph-name="uni0259" unicode="&#x259;" horiz-adv-x="981" 
d="M84 480h647q-7 132 -88.5 210t-210.5 78q-180 0 -332 -112v178q84 56 166.5 80t193.5 24q152 0 246 -63t150.5 -169.5t56.5 -246.5q0 -210 -119 -341.5t-309 -131.5q-183 0 -292 128t-109 343v23zM727 371h-463q7 -109 65 -168t156 -59t160.5 59t81.5 168z" />
    <glyph glyph-name="uni1E25" unicode="&#x1e25;" horiz-adv-x="1024" 
d="M125 1397h182v-598q114 139 283 139q92 0 165 -46t108.5 -127t35.5 -241v-524h-182v569q0 101 -49.5 162.5t-130.5 61.5q-60 0 -113 -31t-117 -103v-659h-182v1397zM503 -117q51 0 87 -35t36 -86q0 -50 -35.5 -84t-87.5 -34q-51 0 -86 34t-35 84q0 51 35 86t86 35z" />
    <glyph glyph-name="igrave" unicode="&#xec;" horiz-adv-x="449" 
d="M133 920h182v-920h-182v920zM167 1419l138 -300h-112l-230 300h204z" />
    <glyph glyph-name="iacute" unicode="&#xed;" horiz-adv-x="449" 
d="M133 920h182v-920h-182v920zM522 1419l-226 -300h-112l135 300h203z" />
    <glyph glyph-name="icircumflex" unicode="&#xee;" horiz-adv-x="449" 
d="M133 920h182v-920h-182v920zM332 1427l193 -309h-112l-179 177l-171 -177h-108l187 309h190z" />
    <glyph glyph-name="idieresis" unicode="&#xef;" horiz-adv-x="449" 
d="M133 920h182v-920h-182v920zM31 1366q39 0 67.5 -28t28.5 -68t-27 -67.5t-66 -27.5q-40 0 -68 28.5t-28 67.5q0 40 27.5 67.5t65.5 27.5zM416 1366q39 0 67.5 -28t28.5 -68t-27 -67.5t-66 -27.5q-40 0 -68 28.5t-28 67.5q0 40 27.5 67.5t65.5 27.5z" />
    <glyph glyph-name="imacron" unicode="&#x12b;" horiz-adv-x="449" 
d="M133 920h182v-920h-182v920zM560 1339v-149h-677v149h677z" />
    <glyph glyph-name="dotlessi" unicode="&#x131;" horiz-adv-x="449" 
d="M133 920h182v-920h-182v920z" />
    <glyph glyph-name="uni1E37" unicode="&#x1e37;" horiz-adv-x="449" 
d="M133 1397h182v-1397h-182v1397zM223 -117q51 0 87 -35t36 -86q0 -50 -35.5 -84t-87.5 -34q-51 0 -86 34t-35 84q0 51 35 86t86 35z" />
    <glyph glyph-name="uni1E39" unicode="&#x1e39;" horiz-adv-x="449" 
d="M133 1397h182v-1397h-182v1397zM223 -117q51 0 87 -35t36 -86q0 -50 -35.5 -84t-87.5 -34q-51 0 -86 34t-35 84q0 51 35 86t86 35zM560 1739v-149h-677v149h677z" />
    <glyph glyph-name="uni1E41" unicode="&#x1e41;" horiz-adv-x="1579" 
d="M883 668v-668h-183v512q0 153 -41 213.5t-143 60.5q-57 0 -104.5 -26t-108.5 -92v-668h-182v920h182v-121q139 139 272 139q175 0 271 -166q146 168 305 168q134 0 220.5 -98t86.5 -299v-543h-182v545q0 115 -47 176t-135 61q-113 0 -211 -114zM802 1356q51 0 87 -35
t36 -86q0 -50 -35.5 -84t-87.5 -34q-51 0 -86 34t-35 84q0 51 35 86t86 35z" />
    <glyph glyph-name="uni1E43" unicode="&#x1e43;" horiz-adv-x="1579" 
d="M883 668v-668h-183v512q0 153 -41 213.5t-143 60.5q-57 0 -104.5 -26t-108.5 -92v-668h-182v920h182v-121q139 139 272 139q175 0 271 -166q146 168 305 168q134 0 220.5 -98t86.5 -299v-543h-182v545q0 115 -47 176t-135 61q-113 0 -211 -114zM793 -117q51 0 87 -35
t36 -86q0 -50 -35.5 -84t-87.5 -34q-51 0 -86 34t-35 84q0 51 35 86t86 35z" />
    <glyph glyph-name="ntilde" unicode="&#xf1;" horiz-adv-x="1024" 
d="M311 920v-117q122 135 277 135q86 0 160 -44.5t112.5 -122t38.5 -245.5v-526h-182v524q0 141 -43 201.5t-144 60.5q-129 0 -219 -129v-657h-186v920h186zM812 1397q-1 -121 -56 -189q-42 -53 -105 -53q-55 0 -148 40t-140 40q-26 0 -45 -20t-23 -60h-84q16 141 58 188.5
t106 47.5q58 0 189 -53q67 -27 96 -27q28 0 47.5 19.5t26.5 66.5h78z" />
    <glyph glyph-name="uni1E45" unicode="&#x1e45;" horiz-adv-x="1024" 
d="M311 920v-117q122 135 277 135q86 0 160 -44.5t112.5 -122t38.5 -245.5v-526h-182v524q0 141 -43 201.5t-144 60.5q-129 0 -219 -129v-657h-186v920h186zM502 1356q51 0 87 -35t36 -86q0 -50 -35.5 -84t-87.5 -34q-51 0 -86 34t-35 84q0 51 35 86t86 35z" />
    <glyph glyph-name="uni1E47" unicode="&#x1e47;" horiz-adv-x="1024" 
d="M311 920v-117q122 135 277 135q86 0 160 -44.5t112.5 -122t38.5 -245.5v-526h-182v524q0 141 -43 201.5t-144 60.5q-129 0 -219 -129v-657h-186v920h186zM503 -117q51 0 87 -35t36 -86q0 -50 -35.5 -84t-87.5 -34q-51 0 -86 34t-35 84q0 51 35 86t86 35z" />
    <glyph glyph-name="eng" unicode="&#x14b;" horiz-adv-x="1024" 
d="M899 -131q0 -239 -184 -338l-135 133q63 22 100 77t37 128v655q0 141 -43 201.5t-144 60.5q-129 0 -219 -129v-657h-186v920h186v-117q122 135 277 135q86 0 160 -44.5t112.5 -122t38.5 -245.5v-657z" />
    <glyph glyph-name="ograve" unicode="&#xf2;" horiz-adv-x="1130" 
d="M569 922q210 0 349 -135.5t139 -340.5q0 -199 -141 -330.5t-355 -131.5q-207 0 -346 133.5t-139 333.5q0 202 140.5 336.5t352.5 134.5zM559 758q-131 0 -215 -86t-84 -219q0 -132 86 -215.5t221 -83.5q134 0 219.5 84.5t85.5 216.5q0 131 -89 217t-224 86zM489 1419
l138 -300h-112l-230 300h204z" />
    <glyph glyph-name="oacute" unicode="&#xf3;" horiz-adv-x="1130" 
d="M569 922q210 0 349 -135.5t139 -340.5q0 -199 -141 -330.5t-355 -131.5q-207 0 -346 133.5t-139 333.5q0 202 140.5 336.5t352.5 134.5zM559 758q-131 0 -215 -86t-84 -219q0 -132 86 -215.5t221 -83.5q134 0 219.5 84.5t85.5 216.5q0 131 -89 217t-224 86zM771 1419
l-226 -300h-112l135 300h203z" />
    <glyph glyph-name="ocircumflex" unicode="&#xf4;" horiz-adv-x="1130" 
d="M569 922q210 0 349 -135.5t139 -340.5q0 -199 -141 -330.5t-355 -131.5q-207 0 -346 133.5t-139 333.5q0 202 140.5 336.5t352.5 134.5zM559 758q-131 0 -215 -86t-84 -219q0 -132 86 -215.5t221 -83.5q134 0 219.5 84.5t85.5 216.5q0 131 -89 217t-224 86zM641 1427
l193 -309h-112l-179 177l-171 -177h-108l187 309h190z" />
    <glyph glyph-name="otilde" unicode="&#xf5;" horiz-adv-x="1130" 
d="M569 922q210 0 349 -135.5t139 -340.5q0 -199 -141 -330.5t-355 -131.5q-207 0 -346 133.5t-139 333.5q0 202 140.5 336.5t352.5 134.5zM559 758q-131 0 -215 -86t-84 -219q0 -132 86 -215.5t221 -83.5q134 0 219.5 84.5t85.5 216.5q0 131 -89 217t-224 86zM888 1397
q-1 -121 -56 -189q-42 -53 -105 -53q-55 0 -148 40t-140 40q-26 0 -45 -20t-23 -60h-84q16 141 58 188.5t106 47.5q58 0 189 -53q67 -27 96 -27q28 0 47.5 19.5t26.5 66.5h78z" />
    <glyph glyph-name="odieresis" unicode="&#xf6;" horiz-adv-x="1130" 
d="M569 922q210 0 349 -135.5t139 -340.5q0 -199 -141 -330.5t-355 -131.5q-207 0 -346 133.5t-139 333.5q0 202 140.5 336.5t352.5 134.5zM559 758q-131 0 -215 -86t-84 -219q0 -132 86 -215.5t221 -83.5q134 0 219.5 84.5t85.5 216.5q0 131 -89 217t-224 86zM344 1366
q39 0 67.5 -28t28.5 -68t-27 -67.5t-66 -27.5q-40 0 -68 28.5t-28 67.5q0 40 27.5 67.5t65.5 27.5zM729 1366q39 0 67.5 -28t28.5 -68t-27 -67.5t-66 -27.5q-40 0 -68 28.5t-28 67.5q0 40 27.5 67.5t65.5 27.5z" />
    <glyph glyph-name="oslash" unicode="&#xf8;" horiz-adv-x="1130" 
d="M848 856l94 113l68 -62l-90 -106q139 -155 139 -346q0 -206 -142.5 -338.5t-363.5 -132.5q-146 0 -270 73l-115 -131l-68 62l111 127q-139 142 -139 344q0 205 140.5 342t352.5 137q154 0 283 -82zM805 670l-410 -480q72 -49 168 -49q135 0 227.5 91.5t92.5 224.5
q0 64 -17 110t-61 103zM326 248l407 477q-83 49 -168 49q-135 0 -226 -92t-91 -229q0 -117 78 -205z" />
    <glyph glyph-name="oe" unicode="&#x153;" horiz-adv-x="1706" 
d="M1278 938q150 0 248 -105q49 -53 75.5 -126t32.5 -207h-577v-23q0 -163 81 -245t205 -82q143 0 291 114v-184q-87 -54 -156.5 -74t-174.5 -20q-234 0 -342 178q-147 -180 -402 -180q-207 0 -347 136.5t-140 338.5q0 205 143 342t358 137q242 0 388 -190q55 91 138 140.5
t179 49.5zM1075 618h377q-35 162 -180 162q-71 0 -122.5 -42.5t-74.5 -119.5zM567 760q-132 0 -218.5 -87t-86.5 -220q0 -127 87.5 -211t219.5 -84t215.5 84t83.5 217q0 130 -85.5 215.5t-215.5 85.5z" />
    <glyph glyph-name="uni1E5B" unicode="&#x1e5b;" horiz-adv-x="811" 
d="M324 920v-211l10 16q132 213 264 213q103 0 215 -104l-96 -160q-95 90 -176 90q-88 0 -152.5 -84t-64.5 -199v-481h-183v920h183zM233 -117q51 0 87 -35t36 -86q0 -50 -35.5 -84t-87.5 -34q-51 0 -86 34t-35 84q0 51 35 86t86 35z" />
    <glyph glyph-name="uni1E5D" unicode="&#x1e5d;" horiz-adv-x="811" 
d="M324 920v-211l10 16q132 213 264 213q103 0 215 -104l-96 -160q-95 90 -176 90q-88 0 -152.5 -84t-64.5 -199v-481h-183v920h183zM233 -117q51 0 87 -35t36 -86q0 -50 -35.5 -84t-87.5 -34q-51 0 -86 34t-35 84q0 51 35 86t86 35zM800 1339v-149h-677v149h677z" />
    <glyph glyph-name="sacute" unicode="&#x15b;" horiz-adv-x="788" 
d="M84 66v196q77 -54 157.5 -87.5t135.5 -33.5q57 0 98 28t41 67q0 40 -26.5 66.5t-114.5 76.5q-176 98 -230.5 167.5t-54.5 151.5q0 106 82.5 173t212.5 67q135 0 277 -76v-180q-162 98 -265 98q-53 0 -85.5 -22.5t-32.5 -59.5q0 -32 29.5 -61t103.5 -70l65 -37
q230 -130 230 -288q0 -113 -88.5 -185.5t-227.5 -72.5q-82 0 -146 17.5t-161 64.5zM620 1419l-226 -300h-112l135 300h203z" />
    <glyph glyph-name="uni1E63" unicode="&#x1e63;" horiz-adv-x="788" 
d="M84 66v196q77 -54 157.5 -87.5t135.5 -33.5q57 0 98 28t41 67q0 40 -26.5 66.5t-114.5 76.5q-176 98 -230.5 167.5t-54.5 151.5q0 106 82.5 173t212.5 67q135 0 277 -76v-180q-162 98 -265 98q-53 0 -85.5 -22.5t-32.5 -59.5q0 -32 29.5 -61t103.5 -70l65 -37
q230 -130 230 -288q0 -113 -88.5 -185.5t-227.5 -72.5q-82 0 -146 17.5t-161 64.5zM393 -117q51 0 87 -35t36 -86q0 -50 -35.5 -84t-87.5 -34q-51 0 -86 34t-35 84q0 51 35 86t86 35z" />
    <glyph glyph-name="longs" unicode="&#x17f;" horiz-adv-x="512" 
d="M150 975q0 222 94.5 331t226.5 109q57 0 135 -18v-178q-44 16 -84 16q-107 0 -148.5 -57t-41.5 -203v-975h-182v975z" />
    <glyph glyph-name="germandbls" unicode="&#xdf;" horiz-adv-x="1024" 
d="M473 846h27q103 0 160 56t57 157q0 94 -59.5 154.5t-151.5 60.5q-106 0 -154.5 -65t-48.5 -208v-1001h-182v999q0 124 40 222.5t128.5 146t220.5 47.5q180 0 283.5 -89.5t103.5 -244.5q0 -107 -53 -189t-148 -122q124 -32 192 -128.5t68 -240.5q0 -184 -100 -299.5
t-258 -115.5q-76 0 -141 14v178q50 -22 100 -22q98 0 156.5 70t58.5 188q0 79 -29.5 137.5t-87 92t-182.5 36.5v166z" />
    <glyph glyph-name="uni1E6D" unicode="&#x1e6d;" horiz-adv-x="682" 
d="M0 774l342 336v-190h291v-164h-291v-451q0 -158 131 -158q98 0 207 66v-170q-105 -59 -229 -59q-125 0 -208 73q-26 22 -43 49.5t-28.5 72t-11.5 169.5v408h-160v18zM393 -117q51 0 87 -35t36 -86q0 -50 -35.5 -84t-87.5 -34q-51 0 -86 34t-35 84q0 51 35 86t86 35z" />
    <glyph glyph-name="ugrave" unicode="&#xf9;" horiz-adv-x="1024" 
d="M715 0v117q-58 -63 -132.5 -98t-148.5 -35q-87 0 -160.5 43.5t-111 118t-37.5 247.5v527h182v-525q0 -145 41.5 -202.5t145.5 -57.5q130 0 221 127v658h182v-920h-182zM497 1419l138 -300h-112l-230 300h204z" />
    <glyph glyph-name="uacute" unicode="&#xfa;" horiz-adv-x="1024" 
d="M715 0v117q-58 -63 -132.5 -98t-148.5 -35q-87 0 -160.5 43.5t-111 118t-37.5 247.5v527h182v-525q0 -145 41.5 -202.5t145.5 -57.5q130 0 221 127v658h182v-920h-182zM736 1419l-226 -300h-112l135 300h203z" />
    <glyph glyph-name="ucircumflex" unicode="&#xfb;" horiz-adv-x="1024" 
d="M715 0v117q-58 -63 -132.5 -98t-148.5 -35q-87 0 -160.5 43.5t-111 118t-37.5 247.5v527h182v-525q0 -145 41.5 -202.5t145.5 -57.5q130 0 221 127v658h182v-920h-182zM603 1427l193 -309h-112l-179 177l-171 -177h-108l187 309h190z" />
    <glyph glyph-name="udieresis" unicode="&#xfc;" horiz-adv-x="1024" 
d="M715 0v117q-58 -63 -132.5 -98t-148.5 -35q-87 0 -160.5 43.5t-111 118t-37.5 247.5v527h182v-525q0 -145 41.5 -202.5t145.5 -57.5q130 0 221 127v658h182v-920h-182zM318 1366q39 0 67.5 -28t28.5 -68t-27 -67.5t-66 -27.5q-40 0 -68 28.5t-28 67.5q0 40 27.5 67.5
t65.5 27.5zM703 1366q39 0 67.5 -28t28.5 -68t-27 -67.5t-66 -27.5q-40 0 -68 28.5t-28 67.5q0 40 27.5 67.5t65.5 27.5z" />
    <glyph glyph-name="umacron" unicode="&#x16b;" horiz-adv-x="1024" 
d="M715 0v117q-58 -63 -132.5 -98t-148.5 -35q-87 0 -160.5 43.5t-111 118t-37.5 247.5v527h182v-525q0 -145 41.5 -202.5t145.5 -57.5q130 0 221 127v658h182v-920h-182zM850 1339v-149h-677v149h677z" />
    <glyph glyph-name="yacute" unicode="&#xfd;" horiz-adv-x="897" 
d="M692 920h205l-651 -1389h-203l313 666l-356 723h207l248 -519zM672 1419l-226 -300h-112l135 300h203z" />
    <glyph glyph-name="ydieresis" unicode="&#xff;" horiz-adv-x="897" 
d="M692 920h205l-651 -1389h-203l313 666l-356 723h207l248 -519zM254 1366q39 0 67.5 -28t28.5 -68t-27 -67.5t-66 -27.5q-40 0 -68 28.5t-28 67.5q0 40 27.5 67.5t65.5 27.5zM639 1366q39 0 67.5 -28t28.5 -68t-27 -67.5t-66 -27.5q-40 0 -68 28.5t-28 67.5
q0 40 27.5 67.5t65.5 27.5z" />
    <glyph glyph-name="eth" unicode="&#xf0;" horiz-adv-x="1153" 
d="M270 1286l97 127q90 -28 132.5 -45.5t118.5 -58.5l224 104l49 -110l-154 -76q115 -98 167 -172t89 -155q84 -179 84 -376q0 -251 -136 -395.5t-372 -144.5q-207 0 -347 134.5t-140 334.5q0 209 143 347t359 138q64 0 105.5 -9t107.5 -38q-61 103 -99 145.5t-129 112.5
l-295 -137l-47 112l215 101q-85 42 -172 61zM897 463q0 138 -88 224.5t-229 86.5q-136 0 -229 -93t-93 -228q0 -133 92 -219.5t232 -86.5q143 0 229 86.5t86 229.5z" />
    <glyph glyph-name="thorn" unicode="&#xfe;" horiz-adv-x="1024" 
d="M117 -469v1866h186v-477h133q245 0 381.5 -122t136.5 -341q0 -207 -128.5 -340t-327.5 -133q-88 0 -195 39v-492h-186zM432 750h-129v-566q84 -43 176 -43q128 0 209.5 89t81.5 229q0 90 -38.5 159t-105 100.5t-194.5 31.5z" />
    <glyph glyph-name="ampersand" unicode="&#x26;" horiz-adv-x="1280" 
d="M1014 0l-162 190q-21 -21 -72 -61l-2 -2q-71 -59 -175.5 -101t-196.5 -42q-145 0 -246 94.5t-101 230.5q0 98 49.5 177t161.5 161l3 3q66 49 114 75q-158 169 -158 324q0 143 97 232t252 89q152 0 250 -87t98 -222q0 -183 -244 -356l-14 -11l196 -225q86 94 150 225h200
q-72 -186 -227 -366l283 -328h-256zM684 289l45 41l-227 262l-88 -62q-156 -105 -156 -213q0 -59 51 -101t123 -42q56 0 126.5 32t125.5 83zM555 829l76 54q106 75 106 174q0 61 -44.5 102t-112.5 41q-66 0 -109 -38t-43 -95q0 -55 34 -119.5t93 -118.5z" />
    <glyph glyph-name="uniFB00" unicode="&#xfb00;" horiz-adv-x="1024" 
d="M338 922h309v-156h-309v-766h-178v766h-142v156h142v45q0 150 34 237t113 149t191 62q64 0 123 -18v-166q-52 14 -82 14q-110 0 -155.5 -63.5t-45.5 -218.5v-41zM891 922h209v-156h-209v-766h-178v766h-142v156h142v45q0 150 34 237t113 149t191 62q64 0 123 -18v-166
q-52 14 -82 14q-110 0 -155.5 -63.5t-45.5 -218.5v-41z" />
    <glyph glyph-name="uniFB01" unicode="&#xfb01;" horiz-adv-x="1024" 
d="M346 922h205v-156h-205v-766h-182v766h-137v156h137v30q0 223 101 343t288 120q153 0 242 -78t92 -215h-172q-27 73 -66 104t-102 31q-203 0 -203 -301q0 -16 2 -34zM715 922h172v-922h-172v922z" />
    <glyph glyph-name="uniFB02" unicode="&#xfb02;" horiz-adv-x="1024" 
d="M338 922h209v-156h-209v-766h-178v766h-142v156h142v45q0 150 34 237t113 149t191 62q64 0 123 -18v-166q-52 14 -82 14q-110 0 -155.5 -63.5t-45.5 -218.5v-41zM713 1397h182v-1397h-182v1397z" />
    <glyph glyph-name="uniFB03" unicode="&#xfb03;" horiz-adv-x="1602" 
d="M338 922h309v-156h-309v-766h-178v766h-142v156h142v45q0 150 34 237t113 149t191 62q64 0 123 -18v-166q-52 14 -82 14q-110 0 -155.5 -63.5t-45.5 -218.5v-41zM896 922h205v-156h-205v-766h-182v766h-137v156h137v30q0 223 101 343t288 120q153 0 242 -78t92 -215h-172
q-27 73 -66 104t-102 31q-203 0 -203 -301q0 -16 2 -34zM1265 922h172v-922h-172v922z" />
    <glyph glyph-name="uniFB04" unicode="&#xfb04;" horiz-adv-x="1623" 
d="M338 922h309v-156h-309v-766h-178v766h-142v156h142v45q0 150 34 237t113 149t191 62q64 0 123 -18v-166q-52 14 -82 14q-110 0 -155.5 -63.5t-45.5 -218.5v-41zM888 922h209v-156h-209v-766h-178v766h-142v156h142v45q0 150 34 237t113 149t191 62q64 0 123 -18v-166
q-52 14 -82 14q-110 0 -155.5 -63.5t-45.5 -218.5v-41zM1263 1397h182v-1397h-182v1397z" />
    <glyph glyph-name="comma" unicode="," horiz-adv-x="449" 
d="M100 -242v37q45 43 63 86.5t21 118.5q-106 31 -106 131q0 54 36.5 93.5t86.5 39.5q61 0 100 -54t39 -138q0 -111 -64 -195t-176 -119z" />
    <glyph glyph-name="semicolon" unicode=";" horiz-adv-x="469" 
d="M207 -10l2 10q-107 31 -107 131q0 54 36.5 93.5t86.5 39.5q60 0 100 -55t40 -137q0 -111 -64 -195t-176 -119v37q43 41 61 84t21 111zM244 938q51 0 87 -36t36 -87q0 -50 -36 -85.5t-85 -35.5q-51 0 -87 35.5t-36 85.5q0 51 35.5 87t85.5 36z" />
    <glyph glyph-name="colon" unicode=":" horiz-adv-x="449" 
d="M215 227q51 0 87 -36t36 -87q0 -50 -36 -85t-87 -35q-49 0 -85 35t-36 85q0 51 35 87t86 36zM231 938q51 0 87 -36t36 -87q0 -50 -36 -85.5t-87 -35.5q-49 0 -84.5 35.5t-35.5 85.5q0 51 35 87t85 36z" />
    <glyph glyph-name="period" unicode="." horiz-adv-x="449" 
d="M223 223q51 0 87 -35t36 -86q0 -50 -35.5 -84t-87.5 -34q-51 0 -86 34t-35 84q0 51 35 86t86 35z" />
    <glyph glyph-name="ellipsis" unicode="&#x2026;" horiz-adv-x="2048" 
d="M1708 227q51 0 86 -36t35 -87q0 -50 -35 -85t-86 -35q-52 0 -87.5 34.5t-35.5 85.5q0 52 35.5 87.5t87.5 35.5zM1024 227q51 0 87 -36t36 -87q0 -50 -36 -85t-87 -35t-86 35t-35 85q0 51 35 87t86 36zM340 225q51 0 87 -37t36 -88q0 -50 -35.5 -84t-87.5 -34
q-51 0 -86 34t-35 84q0 52 35.5 88.5t85.5 36.5z" />
    <glyph glyph-name="exclam" unicode="!" horiz-adv-x="555" 
d="M401 104q0 -50 -35.5 -85t-86.5 -35q-54 0 -90.5 34.5t-36.5 85.5q0 54 36 90.5t88 36.5q54 0 89.5 -36.5t35.5 -90.5zM256 436l-16 51q-21 60 -48.5 273t-27.5 362q0 293 115 293q112 0 112 -285q0 -237 -45 -485l-27 -153l-16 -58q-9 -31 -27 -31q-11 0 -20 33z" />
    <glyph glyph-name="question" unicode="?" horiz-adv-x="682" 
d="M133 1198l131 219q162 -6 246 -90.5t84 -208.5q0 -80 -32.5 -169.5t-145.5 -262.5q-131 -202 -131 -287q0 -13 6 -41q-68 31 -97.5 74.5t-29.5 116.5q0 70 23.5 125t113.5 196q86 136 86 226q0 62 -38.5 98.5t-102.5 36.5q-48 0 -113 -33zM438 104q0 -51 -36 -85.5
t-89 -34.5q-50 0 -84 34t-34 84q0 52 35 88.5t85 36.5q52 0 87.5 -35.5t35.5 -87.5z" />
    <glyph glyph-name="exclamdown" unicode="&#xa1;" horiz-adv-x="555" 
d="M152 924q0 50 37 86.5t87 36.5q53 0 89 -35.5t36 -87.5q0 -54 -35 -90.5t-87 -36.5q-54 0 -90.5 36.5t-36.5 90.5zM207 379l14 74q20 104 30.5 136t22.5 32q16 0 25 -33q0 -6 16 -53q22 -65 48 -275t26 -358q0 -293 -113 -293q-114 0 -114 287q0 248 45 483z" />
    <glyph glyph-name="questiondown" unicode="&#xbf;" horiz-adv-x="682" 
d="M594 -172l-133 -217q-156 3 -242 87t-86 210q0 80 32.5 169t144.5 260q132 203 132 288q0 11 -6 43q68 -32 96.5 -76.5t28.5 -116.5q0 -70 -23.5 -125t-112.5 -197q-85 -136 -85 -221q0 -63 37.5 -100t101.5 -37q48 0 115 33zM287 922q0 50 36.5 85t88.5 35t87.5 -34.5
t35.5 -85.5q0 -52 -36 -87.5t-87 -35.5q-53 0 -89 35.5t-36 87.5z" />
    <glyph glyph-name="parenleft" unicode="(" horiz-adv-x="662" 
d="M524 1415h113q-125 -186 -181.5 -318t-85 -302.5t-28.5 -329.5q0 -546 295 -934h-113l-30 37q-113 136 -167.5 223t-108.5 226q-87 222 -87 454q0 236 87 455.5t306 488.5z" />
    <glyph glyph-name="parenright" unicode=")" horiz-adv-x="662" 
d="M137 -469h-112q130 196 185 332.5t82 300t27 313.5q0 174 -31.5 337t-94 309.5t-168.5 291.5h112l31 -37q112 -133 166.5 -220t108.5 -227q87 -222 87 -458q0 -226 -79 -435q-39 -104 -98.5 -207t-215.5 -300z" />
    <glyph glyph-name="bracketleft" unicode="[" horiz-adv-x="682" 
d="M176 1397h477v-164h-280v-1520h280v-164h-477v1848z" />
    <glyph glyph-name="bracketright" unicode="]" horiz-adv-x="682" 
d="M506 -451h-475v164h278v1520h-278v164h475v-1848z" />
    <glyph glyph-name="braceleft" unicode="{" horiz-adv-x="682" 
d="M57 449v163q72 0 121.5 35.5t67 105t18.5 246.5q2 212 14.5 280.5t57.5 124.5q39 49 92 68t152 19h57v-156h-33q-105 0 -137.5 -39.5t-32.5 -167.5v-147q0 -133 -19 -217.5t-60.5 -138t-131.5 -95.5q118 -49 164.5 -148t46.5 -304v-144q0 -128 32 -167t138 -39h33v-156
h-57q-102 0 -155.5 19.5t-91.5 69.5q-43 57 -55 125t-14 275q-1 180 -19.5 249t-70.5 104t-117 35z" />
    <glyph glyph-name="braceright" unicode="}" horiz-adv-x="682" 
d="M47 1491h55q101 0 155 -19.5t91 -69.5q44 -58 56.5 -126t15.5 -277q0 -176 17 -246t66.5 -105.5t121.5 -35.5v-163q-65 0 -118 -35.5t-71 -106t-19 -246.5q-1 -208 -13 -276.5t-56 -125.5q-39 -50 -91 -68.5t-155 -18.5h-55v156h31q107 0 139.5 39t32.5 167v144
q0 204 46 303.5t163 148.5q-85 41 -125 87t-62 133.5t-22 230.5v147q0 129 -33 168t-139 39h-31v156z" />
    <glyph glyph-name="bar" unicode="|" horiz-adv-x="532" 
d="M188 -472v1869h157v-1869h-157z" />
    <glyph glyph-name="slash" unicode="/" horiz-adv-x="575" 
d="M5 -18l402 1434h144l-401 -1434h-145z" />
    <glyph glyph-name="backslash" unicode="\" horiz-adv-x="575" 
d="M426 -18l-402 1434h145l401 -1434h-144z" />
    <glyph glyph-name="quotesingle" unicode="'" horiz-adv-x="385" 
d="M248 946h-113l-45 275v245h205v-245z" />
    <glyph glyph-name="quotedbl" unicode="&#x22;" horiz-adv-x="725" 
d="M254 946h-111l-49 281v239h205v-239zM584 946h-109l-49 281v239h205v-239z" />
    <glyph glyph-name="quoteleft" unicode="&#x2018;" horiz-adv-x="449" 
d="M350 1415v-31q-86 -95 -86 -198q0 -13 2 -23q107 -34 107 -125q0 -50 -36.5 -84t-88.5 -34q-63 0 -100 50.5t-37 135.5q0 231 239 309z" />
    <glyph glyph-name="quoteright" unicode="&#x2019;" horiz-adv-x="449" 
d="M100 907v39q45 44 63 87t21 118q-106 34 -106 131q0 55 36.5 94t86.5 39q61 0 100 -54t39 -138q0 -112 -64 -196.5t-176 -119.5z" />
    <glyph glyph-name="quotedblleft" unicode="&#x201c;" horiz-adv-x="874" 
d="M764 1415v-41q-36 -24 -58 -71.5t-22 -100.5q0 -26 4 -49q47 -3 75 -34.5t28 -80.5q0 -50 -34.5 -84t-86.5 -34q-65 0 -105.5 53t-40.5 137q0 67 28.5 130t76.5 102.5t135 72.5zM227 1153h9q37 0 65.5 -35t28.5 -80q0 -50 -33 -84t-82 -34q-63 0 -105 56t-42 140
q0 106 62.5 185.5t172.5 113.5v-43q-80 -64 -80 -168z" />
    <glyph glyph-name="quotedblright" unicode="&#x201d;" horiz-adv-x="874" 
d="M651 1145v26q-106 14 -106 121q0 54 33.5 88.5t85.5 34.5q64 0 103.5 -52t39.5 -138q0 -109 -63.5 -191t-172.5 -114v38q80 70 80 187zM190 1147v22q-47 5 -74.5 36t-27.5 79q0 60 33 95.5t88 35.5q63 0 102 -53.5t39 -140.5q0 -219 -239 -301v38q79 62 79 189z" />
    <glyph glyph-name="quotesinglbase" unicode="&#x201a;" horiz-adv-x="449" 
d="M100 -242v37q45 43 63 86.5t21 118.5q-106 31 -106 131q0 54 36.5 93.5t86.5 39.5q61 0 100 -54t39 -138q0 -111 -64 -195t-176 -119z" />
    <glyph glyph-name="quotedblbase" unicode="&#x201e;" horiz-adv-x="918" 
d="M588 -236v37q80 90 80 199q0 10 -2 23q-49 6 -77 38t-28 82q0 54 33.5 88.5t85.5 34.5q64 0 103.5 -53.5t39.5 -140.5q0 -108 -64 -192t-171 -116zM125 -238v41q84 86 84 193q0 2 -1 8q-1 9 -1 16q-48 5 -76.5 36.5t-28.5 78.5q0 60 33 96.5t88 36.5q64 0 103 -55
t39 -145q0 -64 -26.5 -123.5t-75.5 -105t-138 -77.5z" />
    <glyph glyph-name="guilsinglleft" unicode="&#x2039;" horiz-adv-x="641" 
d="M252 461l303 -461h-180l-301 461l301 459h180z" />
    <glyph glyph-name="guilsinglright" unicode="&#x203a;" horiz-adv-x="641" 
d="M389 459l-303 461h178l303 -461l-303 -459h-178z" />
    <glyph glyph-name="guillemotleft" unicode="&#xab;" horiz-adv-x="1004" 
d="M653 461l303 -461h-180l-301 461l301 459h180zM238 461l303 -461h-181l-303 461l303 459h181z" />
    <glyph glyph-name="guillemotright" unicode="&#xbb;" horiz-adv-x="1004" 
d="M350 459l-303 461h178l303 -461l-303 -459h-178zM766 459l-303 461h178l303 -461l-303 -459h-178z" />
    <glyph glyph-name="asterisk" unicode="*" horiz-adv-x="854" 
d="M444 1102h5q21 0 36 -21l172 164q54 51 95 51q27 0 46 -20.5t19 -50.5q0 -68 -78 -88l-22 -7l-219 -79q4 -13 4 -25t-4 -22l231 -87l45 -22q17 -10 30 -30.5t13 -37.5q0 -23 -19.5 -46t-45.5 -23q-50 0 -117 67l-150 150q-21 -21 -41 -21l41 -211q9 -39 9 -92
q0 -88 -68 -88q-70 0 -70 96q0 27 6 52l52 243q-19 2 -39 21l-160 -148q-75 -67 -113 -67q-27 0 -47 20t-20 47q0 66 123 107l202 70q-4 16 -4 24l4 23l-231 86q-90 32 -90 86q0 29 21 52t49 23q23 0 65 -32l27 -21l174 -164q17 19 39 21l-39 205l-10 43q-5 23 -5 45
q0 92 70 92q68 0 68 -82q0 -29 -13 -94z" />
    <glyph glyph-name="dagger" unicode="&#x2020;" horiz-adv-x="1004" 
d="M506 1415q96 0 96 -184q0 -104 -33 -250l-28 -133q137 53 264 53q63 0 103 -26.5t40 -67.5q0 -39 -39 -64.5t-98 -25.5q-82 0 -270 53l8 -106l10 -117l13 -152q31 -339 31 -541q0 -180 -24.5 -251.5t-80.5 -71.5q-60 0 -83.5 67.5t-23.5 239.5q0 96 24.5 419t33.5 402
l12 111q-5 -1 -25 -7q-140 -46 -237 -46q-66 0 -105 24t-39 64q0 44 38 70t104 26q134 0 264 -53l-25 125q-33 176 -33 254q0 89 27.5 138.5t75.5 49.5z" />
    <glyph glyph-name="daggerdbl" unicode="&#x2021;" horiz-adv-x="1004" 
d="M55 854q0 44 40 71t106 27q101 0 262 -51l-37 168q-23 102 -23 186q0 71 28 115.5t73 44.5t71.5 -46t26.5 -124q0 -101 -47 -287l-14 -57q173 51 270 51q59 0 97 -26t38 -66q0 -41 -39.5 -66.5t-101.5 -25.5q-106 0 -264 53q0 -70 23 -227q11 -78 11 -125q0 -24 -10 -102
l-18 -125q-6 -39 -6 -115q153 51 274 51q57 0 95 -26t38 -64q0 -43 -36 -66.5t-101 -23.5q-122 0 -270 53q61 -223 61 -352q0 -76 -29 -122t-77 -46q-42 0 -67.5 46.5t-25.5 121.5q0 123 60 352q-168 -55 -275 -55q-62 0 -97.5 24.5t-35.5 67.5q0 39 40 65.5t98 26.5
q92 0 270 -53l-10 119l-15 116q-8 82 -8 111q0 43 13 121q20 123 20 211v16l-33 -8q-179 -45 -240 -45q-59 0 -97 24.5t-38 61.5z" />
    <glyph glyph-name="periodcentered" unicode="&#xb7;" horiz-adv-x="580" 
d="M290 312q-30 0 -56.5 10.5t-45.5 29t-30 44.5t-11 57t11 57.5t30.5 45.5t45.5 29.5t56 10.5t55.5 -10.5t45 -29t30.5 -44.5t11 -57q0 -32 -11 -58t-30.5 -45t-45.5 -29.5t-55 -10.5z" />
    <glyph glyph-name="bullet" unicode="&#x2022;" horiz-adv-x="580" 
d="M290 282q-36 0 -68 13t-55 35t-36.5 53.5t-13.5 69.5q0 37 13.5 69t37 55t55 36t67.5 13t67 -13t54.5 -35t37 -53.5t13.5 -69.5q0 -39 -13.5 -70t-37 -54t-55 -36t-66.5 -13z" />
    <glyph glyph-name="at" unicode="@" horiz-adv-x="2068" 
d="M1012 1083q192 0 301 -184l35 156h180l-160 -742q-14 -64 -14 -84q0 -28 20 -47.5t49 -19.5q65 0 166.5 83.5t160 209.5t58.5 262q0 270 -204 450.5t-510 180.5q-361 0 -597.5 -244.5t-236.5 -618.5q0 -364 227.5 -565t638.5 -201q242 0 422 82q68 32 141 81.5t136 135.5
h180q-59 -120 -198 -230.5t-303.5 -162t-381.5 -51.5q-471 0 -741.5 238.5t-270.5 653.5q0 287 133.5 535.5t353 370t507.5 121.5q372 0 614 -221t242 -561q0 -177 -86 -343.5t-227 -268t-291 -101.5q-101 0 -143.5 36.5t-51.5 129.5q-66 -78 -146 -121t-159 -43
q-155 0 -258.5 128t-103.5 318q0 157 74 306t195 240t249 91zM678 430q0 -124 61 -204.5t154 -80.5q139 0 250.5 155t111.5 349q0 130 -63.5 209.5t-167.5 79.5q-135 0 -240.5 -155.5t-105.5 -352.5z" />
    <glyph glyph-name="copyright" unicode="&#xa9;" horiz-adv-x="1516" 
d="M1108 850l-119 -29q-61 154 -227 154q-120 0 -191 -86.5t-71 -231.5q0 -144 67.5 -226.5t184.5 -82.5q91 0 157.5 51.5t89.5 140.5l123 -36q-31 -128 -128 -201.5t-236 -73.5q-180 0 -288 118t-108 314q0 197 108.5 310.5t295.5 113.5q131 0 219.5 -61t122.5 -174z
M758 1417q202 0 377 -101.5t276.5 -276t101.5 -376.5q0 -203 -101 -377t-276 -275t-378 -101q-204 0 -379 100.5t-276 275t-101 377.5t101.5 377.5t276.5 275.5t378 101zM758 1292q-260 0 -444.5 -184.5t-184.5 -444.5q0 -261 184 -444.5t445 -183.5q260 0 444 184t184 444
t-184.5 444.5t-443.5 184.5z" />
    <glyph glyph-name="registered" unicode="&#xae;" horiz-adv-x="1516" 
d="M587 258h-131v811h281q149 0 210.5 -23.5t98.5 -78.5t37 -117q0 -93 -65 -157t-167 -72q46 -19 86.5 -62.5t102.5 -142.5l98 -158h-160l-71 127q-77 137 -122 177.5t-120 40.5h-78v-345zM587 959v-244h160q102 0 149 29.5t47 93.5q0 67 -45.5 94t-160.5 27h-150z
M758 1417q202 0 377 -101.5t276.5 -276t101.5 -376.5q0 -203 -101 -377t-276 -275t-378 -101q-204 0 -379 100.5t-276 275t-101 377.5t101.5 377.5t276.5 275.5t378 101zM758 1292q-260 0 -444.5 -184.5t-184.5 -444.5q0 -261 184 -444.5t445 -183.5q260 0 444 184t184 444
t-184.5 444.5t-443.5 184.5z" />
    <glyph glyph-name="trademark" unicode="&#x2122;" horiz-adv-x="2048" 
d="M625 582h-136v695h-264v120h666v-120h-266v-695zM1108 582h-125v815h201l205 -651l198 651h197v-815h-125v684l-209 -684h-123l-219 695v-695z" />
    <glyph glyph-name="section" unicode="&#xa7;" horiz-adv-x="831" 
d="M145 1098q0 136 88 226.5t220 90.5q107 0 175 -48.5t68 -125.5q0 -49 -30 -81t-76 -32q-35 0 -58.5 24.5t-23.5 61.5v11q2 8 2 16q0 43 -64 43q-63 0 -100 -37.5t-37 -101.5q0 -129 180 -299l95 -88q66 -61 124 -163.5t58 -211.5q0 -90 -35 -162.5t-117 -154.5
q72 -99 72 -224q0 -130 -91.5 -220.5t-223.5 -90.5q-105 0 -173.5 51.5t-68.5 130.5q0 52 33 89.5t80 37.5q43 0 70.5 -27.5t27.5 -70.5q0 -17 -4 -34q-2 -8 -2 -11q0 -14 14 -24.5t33 -10.5q60 0 103.5 44t43.5 104q0 63 -45 133t-168 202q-111 111 -155 175.5t-69 142.5
t-25 153q0 162 135 285q-56 96 -56 197zM434 643l-147 143q-64 -74 -64 -151q0 -41 17.5 -89.5t49 -94t140.5 -160.5l100 -107q34 35 55 83t21 89t-12.5 79.5t-36.5 73.5t-123 134z" />
    <glyph glyph-name="paragraph" unicode="&#xb6;" horiz-adv-x="1110" 
d="M569 -406h-163v1043q-186 11 -295 121.5t-109 290.5q0 189 121 303q52 49 133 81.5t217 32.5h633v-174h-143v-1698h-170v1698h-224v-1698z" />
    <glyph glyph-name="hyphen" unicode="-" horiz-adv-x="662" 
d="M82 551h498v-195h-498v195z" />
    <glyph glyph-name="endash" unicode="&#x2013;" horiz-adv-x="1024" 
d="M-16 584h1058v-131h-1058v131z" />
    <glyph glyph-name="emdash" unicode="&#x2014;" horiz-adv-x="2048" 
d="M-16 584h2082v-131h-2082v131z" />
    <glyph glyph-name="figuredash" unicode="&#x2012;" horiz-adv-x="1024" 
d="M-16 584h1058v-131h-1058v131z" />
    <glyph glyph-name="uni2015" unicode="&#x2015;" horiz-adv-x="3890" 
d="M-16 584h3902v-131h-3902v131z" />
    <glyph glyph-name="numbersign" unicode="#" horiz-adv-x="1196" 
d="M4 871v123h326l86 403h121l-86 -403h421l84 403h123l-86 -403h199v-123h-223l-76 -371h299v-123h-324l-84 -399h-122l86 399h-424l-84 -399h-123l84 399h-197v123h223l78 371h-301zM848 871h-422l-78 -371h424z" />
    <glyph glyph-name="zero" unicode="0" horiz-adv-x="1024" 
d="M520 1415q192 0 317.5 -201.5t125.5 -511.5q0 -318 -125.5 -517t-325.5 -199q-203 0 -326 195t-123 517q0 318 127 517.5t330 199.5zM522 1225h-10q-115 0 -182.5 -141.5t-67.5 -383.5q0 -248 66 -389t182 -141t183 141t67 383q0 243 -64.5 387t-173.5 144z" />
    <glyph glyph-name="one" unicode="1" horiz-adv-x="1024" 
d="M414 1397h200v-1397h-200v1397z" />
    <glyph glyph-name="two" unicode="2" horiz-adv-x="1024" 
d="M422 193h532v-193h-884v14l84 99q197 244 313.5 414t152 257t35.5 172q0 118 -67 189.5t-178 71.5q-84 0 -165.5 -49.5t-146.5 -139.5v254q163 133 336 133q183 0 301.5 -122t118.5 -310q0 -84 -29.5 -179.5t-104.5 -220t-255 -339.5z" />
    <glyph glyph-name="three" unicode="3" horiz-adv-x="1024" 
d="M369 813h12q131 0 199.5 54t68.5 157q0 93 -66.5 151t-174.5 58q-109 0 -242 -68v191q122 61 266 61q193 0 304.5 -101t111.5 -276q0 -106 -43 -178.5t-137 -124.5q82 -32 120 -78.5t59 -112.5t21 -140q0 -183 -122 -302.5t-308 -119.5q-159 0 -307 77v218
q158 -99 307 -99q101 0 162.5 60t61.5 159q0 83 -51 145q-30 35 -66.5 51.5t-157.5 31.5l-18 2v184z" />
    <glyph glyph-name="four" unicode="4" horiz-adv-x="1024" 
d="M727 1415h82v-784h156v-170h-156v-461h-195v461h-591v86zM614 631v405l-323 -405h323z" />
    <glyph glyph-name="five" unicode="5" horiz-adv-x="1024" 
d="M207 1397h620v-178h-438v-353q21 2 43 2q203 0 334 -123.5t131 -314.5q0 -197 -129.5 -320.5t-335.5 -123.5q-170 0 -330 82v206q151 -98 295 -98q126 0 211.5 73.5t85.5 180.5q0 111 -93 185.5t-232 74.5q-119 0 -162 -20v727z" />
    <glyph glyph-name="six" unicode="6" horiz-adv-x="1024" 
d="M629 1401l20 14l121 -153q-160 -103 -265.5 -225t-162.5 -287q111 57 221 57q165 0 278 -117t113 -287q0 -175 -123 -297t-299 -122q-197 0 -318.5 138.5t-121.5 362.5q0 168 62.5 334.5t180 312t294.5 269.5zM299 543q-8 -47 -8 -105q0 -118 68.5 -194t175.5 -76
q96 0 158.5 65t62.5 164q0 101 -66.5 163.5t-175.5 62.5q-56 0 -101.5 -17t-113.5 -63z" />
    <glyph glyph-name="seven" unicode="7" horiz-adv-x="1024" 
d="M100 1397h904l-633 -1413l-178 75l512 1147h-605v191z" />
    <glyph glyph-name="eight" unicode="8" horiz-adv-x="1024" 
d="M98 1022q0 164 123 278.5t301 114.5q175 0 295.5 -113.5t120.5 -279.5q0 -187 -174 -309q194 -112 194 -330q0 -173 -126 -286t-318 -113q-190 0 -319 115.5t-129 285.5q0 213 198 328q-89 72 -127.5 143.5t-38.5 165.5zM739 1016q0 91 -62.5 150t-158.5 59
q-97 0 -159 -58t-62 -149q0 -87 65.5 -149t157.5 -62q91 0 155 61.5t64 147.5zM756 375v20q0 96 -68.5 156.5t-177.5 60.5q-107 0 -174.5 -61t-67.5 -158t69 -158t179 -61q105 0 172.5 56t67.5 145z" />
    <glyph glyph-name="nine" unicode="9" horiz-adv-x="1024" 
d="M383 -16l-123 145q155 98 271 237.5t155 286.5q-95 -59 -223 -59q-160 0 -274.5 119t-114.5 286q0 174 122 295t298 121q198 0 324 -143t126 -367q0 -254 -158 -513.5t-403 -407.5zM725 852q12 80 12 104q0 121 -67.5 198t-173.5 77q-97 0 -160.5 -65.5t-63.5 -164.5
q0 -91 69 -157t165 -66q112 0 219 74z" />
    <glyph glyph-name="uni00B9" unicode="&#xb9;" horiz-adv-x="662" 
d="M260 1407h141v-727h-141v727z" />
    <glyph glyph-name="uni00B2" unicode="&#xb2;" horiz-adv-x="662" 
d="M297 791h307v-111h-547v14l6 6q9 11 37 39q125 128 213 240.5t88 193.5q0 58 -35.5 92.5t-95.5 34.5q-103 0 -194 -118v159q101 74 209 74q113 0 186.5 -64t73.5 -163q0 -39 -16 -84.5t-41 -83.5t-179 -215z" />
    <glyph glyph-name="uni00B3" unicode="&#xb3;" horiz-adv-x="662" 
d="M233 1108h13q153 0 153 102q0 45 -35.5 72t-95.5 27q-59 0 -153 -41v112q77 35 168 35q118 0 187 -53.5t69 -144.5q0 -103 -97 -154q111 -42 111 -170q0 -97 -75.5 -160t-190.5 -63q-94 0 -193 45v129q103 -60 193 -60q55 0 87 28.5t32 76.5q0 52 -34.5 78t-113.5 32
l-25 2v107z" />
    <glyph glyph-name="percent" unicode="%" horiz-adv-x="1384" 
d="M1071 1417h153l-919 -1433h-154zM1021 608q128 0 220 -91.5t92 -219.5t-91.5 -217.5t-220.5 -89.5q-130 0 -221.5 89.5t-91.5 217.5q0 129 92 220t221 91zM1019 457q-66 0 -112.5 -47t-46.5 -113q0 -67 46.5 -114.5t112.5 -47.5q68 0 115 47t47 115q0 67 -47 113.5
t-115 46.5zM362 1413q129 0 220 -92t91 -221q0 -128 -91.5 -220t-219.5 -92t-219.5 92t-91.5 220q0 129 91 221t220 92zM360 1262q-67 0 -114.5 -47.5t-47.5 -114.5q0 -66 48 -113t114 -47q67 0 114.5 47t47.5 113q0 68 -47 115t-115 47z" />
    <glyph glyph-name="perthousand" unicode="&#x2030;" horiz-adv-x="2068" 
d="M1047 1417h153l-919 -1433h-156zM995 608q129 0 221.5 -91t92.5 -220q0 -128 -92 -217.5t-222 -89.5t-220.5 89.5t-90.5 217.5q0 129 91 220t220 91zM995 457q-66 0 -112.5 -47t-46.5 -113q0 -67 46.5 -114.5t112.5 -47.5q68 0 115 47t47 115q0 66 -47.5 113t-114.5 47z
M338 1413q129 0 220 -92t91 -221q0 -128 -91.5 -220t-219.5 -92t-219.5 92t-91.5 220q0 129 91 221t220 92zM336 1262q-67 0 -114.5 -47t-47.5 -115q0 -66 47.5 -113t114.5 -47q66 0 114 47t48 113q0 67 -47.5 114.5t-114.5 47.5zM1733 608q129 0 220 -91t91 -220
q0 -128 -90.5 -217.5t-220.5 -89.5t-221 89.5t-91 217.5q0 129 91.5 220t220.5 91zM1733 457q-67 0 -113.5 -46.5t-46.5 -113.5q0 -68 46 -115t114 -47q66 0 112.5 47.5t46.5 114.5q0 66 -46.5 113t-112.5 47z" />
    <glyph glyph-name="fraction" unicode="&#x2044;" horiz-adv-x="405" 
d="M737 1416l-931 -1471h-138l931 1471h138z" />
    <glyph glyph-name="onequarter" unicode="&#xbc;" horiz-adv-x="1729" 
d="M258 1407h141v-727h-141v727zM1283 1415h139l-930 -1468h-137zM1520 737h67v-401h92v-100h-92v-236h-139v236h-348v51zM1448 336v172l-160 -172h160z" />
    <glyph glyph-name="onehalf" unicode="&#xbd;" horiz-adv-x="1729" 
d="M258 1407h141v-727h-141v727zM1222 1415h139l-930 -1468h-137zM1366 112h307v-111h-547v14l6 6q9 11 37 39q125 128 213 240.5t88 193.5q0 58 -35.5 92.5t-95.5 34.5q-103 0 -194 -118v159q101 74 209 74q113 0 186.5 -64t73.5 -163q0 -39 -16 -84.5t-41 -83.5t-179 -215
z" />
    <glyph glyph-name="threequarters" unicode="&#xbe;" horiz-adv-x="1729" 
d="M231 1108h13q153 0 153 102q0 45 -35.5 72t-95.5 27q-59 0 -153 -41v112q77 35 168 35q118 0 187 -53.5t69 -144.5q0 -103 -97 -154q111 -42 111 -170q0 -97 -75.5 -160t-190.5 -63q-94 0 -193 45v129q103 -60 193 -60q55 0 87 28.5t32 76.5q0 52 -34.5 78t-113.5 32
l-25 2v107zM1259 1415h139l-930 -1468h-137zM1520 737h67v-401h92v-100h-92v-236h-139v236h-348v51zM1448 336v172l-160 -172h160z" />
    <glyph glyph-name="plus" unicode="+" horiz-adv-x="1196" 
d="M513 237v402h-399v168h399v399h170v-399h399v-168h-399v-402h-170z" />
    <glyph glyph-name="minus" unicode="&#x2212;" horiz-adv-x="662" 
d="M82 551h498v-195h-498v195z" />
    <glyph glyph-name="plusminus" unicode="&#xb1;" horiz-adv-x="1196" 
d="M513 260v403h-399v167h399v399h170v-399h399v-167h-399v-403h-170zM1082 0h-968v168h968v-168z" />
    <glyph glyph-name="multiply" unicode="&#xd7;" horiz-adv-x="1196" 
d="M161 410l315 315l-315 313l122 122l314 -314l314 314l121 -122l-313 -313l313 -315l-121 -121l-314 314l-314 -314z" />
    <glyph glyph-name="divide" unicode="&#xf7;" horiz-adv-x="1196" 
d="M604 1131q45 0 76.5 -31.5t31.5 -76.5t-31.5 -77t-76.5 -32t-77 32t-32 77t31.5 76.5t77.5 31.5zM1082 639h-968v168h968v-168zM605 529q45 0 76.5 -32t31.5 -77t-31.5 -77t-76.5 -32t-77 32t-32 77t31.5 77t77.5 32z" />
    <glyph glyph-name="equal" unicode="=" horiz-adv-x="1196" 
d="M1082 862h-968v168h968v-168zM1082 417h-968v168h968v-168z" />
    <glyph glyph-name="less" unicode="&#x3c;" horiz-adv-x="1196" 
d="M112 641v168l971 410v-179l-770 -316l770 -319v-179z" />
    <glyph glyph-name="greater" unicode="&#x3e;" horiz-adv-x="1196" 
d="M1083 641l-971 -415v179l769 319l-769 316v179l971 -410v-168z" />
    <glyph glyph-name="logicalnot" unicode="&#xac;" horiz-adv-x="1196" 
d="M1081 257h-170v438h-798v168h968v-606z" />
    <glyph glyph-name="mu" unicode="&#xb5;" horiz-adv-x="1130" 
d="M793 0v109q-46 -71 -97 -100t-129 -29q-71 0 -118.5 24.5t-96.5 87.5v-442h-174v1270h174v-447q0 -146 20.5 -209.5t70.5 -104t116 -40.5q68 0 122 38t75.5 99.5t21.5 212.5v451h174v-920h-159z" />
    <glyph glyph-name="degree" unicode="&#xb0;" horiz-adv-x="811" 
d="M127 1214q0 114 82 195.5t197 81.5q114 0 195 -81.5t81 -195.5q0 -115 -81 -196.5t-195 -81.5q-115 0 -197 81.5t-82 196.5zM236 1214q0 -70 50 -120t120 -50q69 0 118 50t49 120t-48.5 119t-118.5 49q-71 0 -120.5 -49t-49.5 -119z" />
    <glyph glyph-name="asciicircum" unicode="^" horiz-adv-x="961" 
d="M479 1194l-241 -598h-185l355 801h145l354 -801h-182z" />
    <glyph glyph-name="asciitilde" unicode="~" horiz-adv-x="1194" 
d="M348 670q-69 0 -125 -28.5t-137 -106.5v204q109 121 279 121q115 0 274 -69l80 -35q62 -29 133 -29q132 0 258 135v-211q-122 -114 -276 -114q-105 0 -246 61l-62 27q-104 45 -178 45z" />
    <glyph glyph-name="brokenbar" unicode="&#xa6;" horiz-adv-x="532" 
d="M188 701v696h157v-696h-157zM188 -472v832h157v-832h-157z" />
    <glyph glyph-name="underscore" unicode="_" horiz-adv-x="1130" 
d="M1161 -406h-1190v132h1190v-132z" />
    <glyph glyph-name="ordfeminine" unicode="&#xaa;" horiz-adv-x="575" 
d="M473 1182v-207q0 -45 10 -45q16 0 76 41v-86q-77 -47 -127 -47q-76 0 -94 47q-73 -47 -154 -47q-65 0 -109 41t-44 102q0 108 164 160l139 45v24q0 90 -92 90q-52 0 -97 -23.5t-104 -82.5v141q73 80 207 80q120 0 172.5 -54.5t52.5 -178.5zM334 965v147l-64 -22
q-54 -20 -76 -41t-22 -52q0 -69 72 -69q43 0 90 37z" />
    <glyph glyph-name="ordmasculine" unicode="&#xba;" horiz-adv-x="748" 
d="M360 1415q151 0 245.5 -79.5t94.5 -205.5q0 -120 -94 -200t-235 -80q-138 0 -231 81.5t-93 203.5t88 201t225 79zM371 1307q-78 0 -129.5 -50.5t-51.5 -126.5q0 -73 51.5 -119t133.5 -46q81 0 132.5 47.5t51.5 122.5t-53.5 123.5t-134.5 48.5z" />
    <glyph glyph-name="currency" unicode="&#xa4;" horiz-adv-x="1130" 
d="M213 934l-139 136l115 119l139 -140q53 37 112.5 55t124.5 18q66 0 125.5 -18t111.5 -55l139 140l116 -119l-139 -136q71 -110 71 -235q0 -126 -71 -236l139 -136l-116 -119l-139 140q-52 -36 -111.5 -54.5t-125.5 -18.5q-65 0 -124.5 18.5t-112.5 54.5l-139 -140
l-115 119l139 136q-71 110 -71 236q0 125 71 235zM305 699q0 -108 76 -184t183 -76t183 76t76 184q0 107 -75.5 183t-183.5 76q-107 0 -183 -76t-76 -183z" />
    <glyph glyph-name="Euro" unicode="&#x20ac;" horiz-adv-x="1249" 
d="M426 909h594l-29 -155h-590q-2 -23 -2 -50q0 -28 2 -61h570l-29 -156h-516q91 -321 377 -321q181 0 346 137v-219q-144 -102 -352 -102q-230 0 -379 134t-199 371h-162l29 156h115q0 74 2 111h-146l27 155h141q61 235 215.5 370.5t366.5 135.5q159 0 350 -67l-39 -191
q-174 74 -317 74q-280 0 -375 -322z" />
    <glyph glyph-name="dollar" unicode="$" horiz-adv-x="1110" 
d="M657 1415v-74q199 -30 306 -120v-230q-125 128 -306 170v-405q182 -54 276.5 -157.5t94.5 -238.5t-93 -241q-46 -53 -107.5 -86t-170.5 -51v-222h-168v222q-170 16 -385 143v252q96 -87 185.5 -138t199.5 -73v440q-168 58 -236.5 108t-107.5 120.5t-39 142.5
q0 141 105 240.5t278 123.5v74h168zM489 809v352q-81 -11 -132.5 -58.5t-51.5 -111.5q0 -58 35 -96t124 -75q15 -6 25 -11zM688 522l-31 17v-371q172 40 172 176q0 59 -30.5 97.5t-110.5 80.5z" />
    <glyph glyph-name="cent" unicode="&#xa2;" horiz-adv-x="897" 
d="M739 1270h95l-129 -359q20 -8 24 -8q42 -15 68 -31v-192q-63 51 -150 74l-209 -576q73 -26 129 -26q64 0 134.5 17.5t115.5 45.5v-176q-145 -57 -278 -57q-88 0 -162 18l-141 -387h-97l158 426q-102 57 -160.5 166t-58.5 241q0 224 125.5 358t335.5 134q25 0 79 -6z
M362 223l197 545h-18q-124 0 -201.5 -87.5t-77.5 -227.5q0 -141 100 -230z" />
    <glyph glyph-name="sterling" unicode="&#xa3;" horiz-adv-x="1087" 
d="M694 -8l-108 16q-72 10 -148 10q-166 0 -317 -34l162 602h-148v178h195q52 193 135 352.5t179.5 229t201.5 69.5q27 0 74 -8l114 -213q-58 31 -145 31q-110 0 -192.5 -96t-149.5 -302l-21 -63h156v-178h-209l-102 -387q30 4 78 4q110 0 182 -13l80 -14q37 -8 98 -8
q133 0 207 45v-195q-107 -34 -205 -34q-65 0 -117 8z" />
    <glyph glyph-name="yen" unicode="&#xa5;" horiz-adv-x="1130" 
d="M659 0h-182v326h-416v137h416v143h-416v150h342l-403 710h199l288 -516q50 -86 76 -153q19 42 82 161l275 508h213l-404 -710h340v-150h-410v-143h410v-137h-410v-326z" />
    <glyph glyph-name="florin" unicode="&#x192;" horiz-adv-x="1130" 
d="M721 922l-191 -1090q-24 -140 -84 -200t-176 -60q-102 0 -223 25l35 155q99 -22 151 -22q59 0 85.5 32t41.5 121l179 1039h-201l22 139h203l25 135q23 145 71 209q76 90 218 90q40 0 118 -20l72 -17l18 -4l-34 -154q-108 25 -154 25q-63 0 -88.5 -31.5t-42.5 -128.5
l-18 -104h202l-24 -139h-205z" />
    <glyph glyph-name="grave" unicode="`" horiz-adv-x="683" 
d="M327 1419l138 -300h-112l-230 300h204z" />
    <glyph glyph-name="acute" unicode="&#xb4;" horiz-adv-x="683" 
d="M566 1419l-226 -300h-112l135 300h203z" />
    <glyph glyph-name="circumflex" unicode="&#x2c6;" horiz-adv-x="683" 
d="M433 1427l193 -309h-112l-179 177l-171 -177h-108l187 309h190z" />
    <glyph glyph-name="tilde" unicode="&#x2dc;" horiz-adv-x="683" 
d="M642 1397q-1 -121 -56 -189q-42 -53 -105 -53q-55 0 -148 40t-140 40q-26 0 -45 -20t-23 -60h-84q16 141 58 188.5t106 47.5q58 0 189 -53q67 -27 96 -27q28 0 47.5 19.5t26.5 66.5h78z" />
    <glyph glyph-name="dieresis" unicode="&#xa8;" horiz-adv-x="449" 
d="M31 1366q39 0 67.5 -28t28.5 -68t-27 -67.5t-66 -27.5q-40 0 -68 28.5t-28 67.5q0 40 27.5 67.5t65.5 27.5zM416 1366q39 0 67.5 -28t28.5 -68t-27 -67.5t-66 -27.5q-40 0 -68 28.5t-28 67.5q0 40 27.5 67.5t65.5 27.5z" />
    <glyph glyph-name="macron" unicode="&#xaf;" horiz-adv-x="683" 
d="M680 1339v-149h-677v149h677z" />
    <glyph glyph-name="breve" unicode="&#x2d8;" horiz-adv-x="683" 
d="M631 1397q-24 -132 -99.5 -198t-191.5 -66q-110 0 -188 68.5t-101 195.5h137q16 -65 55 -96t102 -31q58 0 94.5 29.5t52.5 97.5h139z" />
    <glyph glyph-name="ring" unicode="&#x2da;" horiz-adv-x="874" 
d="M439 1497q77 0 132.5 -55t55.5 -134t-55.5 -135t-134.5 -56q-78 0 -133.5 55.5t-55.5 133.5q0 80 56.5 135.5t134.5 55.5zM434 1416q-51 0 -81.5 -30.5t-30.5 -79.5q0 -48 33.5 -81.5t81.5 -33.5t82 33t34 80t-34 79.5t-85 32.5z" />
    <glyph glyph-name="cedilla" unicode="&#xb8;" horiz-adv-x="683" 
d="M428 16l-15 -49q54 -13 84.5 -50t30.5 -84q0 -76 -61 -129.5t-195 -53.5q-37 0 -65 5v113q51 -4 64 -4q57 0 89 22q19 13 19 34q0 24 -20.5 40t-75.5 16q-11 0 -23 -3l51 143h117z" />
    <glyph glyph-name="_2" horiz-adv-x="683" 
d="M327 1419l138 -300h-112l-230 300h204z" />
    <glyph glyph-name="_3" horiz-adv-x="683" 
d="M566 1419l-226 -300h-112l135 300h203z" />
    <glyph glyph-name="_4" horiz-adv-x="683" 
d="M433 1427l193 -309h-112l-179 177l-171 -177h-108l187 309h190z" />
    <glyph glyph-name="_5" horiz-adv-x="683" 
d="M642 1397q-1 -121 -56 -189q-42 -53 -105 -53q-55 0 -148 40t-140 40q-26 0 -45 -20t-23 -60h-84q16 141 58 188.5t106 47.5q58 0 189 -53q67 -27 96 -27q28 0 47.5 19.5t26.5 66.5h78z" />
    <glyph glyph-name="_6" horiz-adv-x="449" 
d="M31 1366q39 0 67.5 -28t28.5 -68t-27 -67.5t-66 -27.5q-40 0 -68 28.5t-28 67.5q0 40 27.5 67.5t65.5 27.5zM416 1366q39 0 67.5 -28t28.5 -68t-27 -67.5t-66 -27.5q-40 0 -68 28.5t-28 67.5q0 40 27.5 67.5t65.5 27.5z" />
    <glyph glyph-name="_7" horiz-adv-x="683" 
d="M680 1339v-149h-677v149h677z" />
    <glyph glyph-name="_8" horiz-adv-x="683" 
d="M631 1397q-24 -132 -99.5 -198t-191.5 -66q-110 0 -188 68.5t-101 195.5h137q16 -65 55 -96t102 -31q58 0 94.5 29.5t52.5 97.5h139z" />
    <glyph glyph-name="_9" horiz-adv-x="874" 
d="M439 1497q77 0 132.5 -55t55.5 -134t-55.5 -135t-134.5 -56q-78 0 -133.5 55.5t-55.5 133.5q0 80 56.5 135.5t134.5 55.5zM434 1416q-51 0 -81.5 -30.5t-30.5 -79.5q0 -48 33.5 -81.5t81.5 -33.5t82 33t34 80t-34 79.5t-85 32.5z" />
    <glyph glyph-name="_10" horiz-adv-x="683" 
d="M342 1356q51 0 87 -35t36 -86q0 -50 -35.5 -84t-87.5 -34q-51 0 -86 34t-35 84q0 51 35 86t86 35z" />
    <glyph glyph-name="gravecomb" unicode="&#x300;" horiz-adv-x="683" 
d="M327 1419l138 -300h-112l-230 300h204z" />
    <glyph glyph-name="acutecomb" unicode="&#x301;" horiz-adv-x="683" 
d="M566 1419l-226 -300h-112l135 300h203z" />
    <glyph glyph-name="uni0302" unicode="&#x302;" horiz-adv-x="683" 
d="M433 1427l193 -309h-112l-179 177l-171 -177h-108l187 309h190z" />
    <glyph glyph-name="tildecomb" unicode="&#x303;" horiz-adv-x="683" 
d="M642 1397q-1 -121 -56 -189q-42 -53 -105 -53q-55 0 -148 40t-140 40q-26 0 -45 -20t-23 -60h-84q16 141 58 188.5t106 47.5q58 0 189 -53q67 -27 96 -27q28 0 47.5 19.5t26.5 66.5h78z" />
    <glyph glyph-name="uni0308" unicode="&#x308;" horiz-adv-x="449" 
d="M31 1366q39 0 67.5 -28t28.5 -68t-27 -67.5t-66 -27.5q-40 0 -68 28.5t-28 67.5q0 40 27.5 67.5t65.5 27.5zM416 1366q39 0 67.5 -28t28.5 -68t-27 -67.5t-66 -27.5q-40 0 -68 28.5t-28 67.5q0 40 27.5 67.5t65.5 27.5z" />
    <glyph glyph-name="uni0304" unicode="&#x304;" horiz-adv-x="683" 
d="M680 1339v-149h-677v149h677z" />
    <glyph glyph-name="uni0306" unicode="&#x306;" horiz-adv-x="683" 
d="M631 1397q-24 -132 -99.5 -198t-191.5 -66q-110 0 -188 68.5t-101 195.5h137q16 -65 55 -96t102 -31q58 0 94.5 29.5t52.5 97.5h139z" />
    <glyph glyph-name="uni030A" unicode="&#x30a;" horiz-adv-x="874" 
d="M439 1497q77 0 132.5 -55t55.5 -134t-55.5 -135t-134.5 -56q-78 0 -133.5 55.5t-55.5 133.5q0 80 56.5 135.5t134.5 55.5zM434 1416q-51 0 -81.5 -30.5t-30.5 -79.5q0 -48 33.5 -81.5t81.5 -33.5t82 33t34 80t-34 79.5t-85 32.5z" />
    <glyph glyph-name="uni0310" unicode="&#x310;" horiz-adv-x="683" 
d="M631 1397q-24 -132 -99.5 -198t-191.5 -66q-110 0 -188 68.5t-101 195.5h137q16 -65 55 -96t102 -31q58 0 94.5 29.5t52.5 97.5h139zM342 1656q51 0 87 -35t36 -86q0 -50 -35.5 -84t-87.5 -34q-51 0 -86 34t-35 84q0 51 35 86t86 35z" />
    <glyph glyph-name="uni0307" unicode="&#x307;" horiz-adv-x="683" 
d="M342 1356q51 0 87 -35t36 -86q0 -50 -35.5 -84t-87.5 -34q-51 0 -86 34t-35 84q0 51 35 86t86 35z" />
    <glyph glyph-name="dotbelowcomb" unicode="&#x323;" horiz-adv-x="683" 
d="M343 -117q51 0 87 -35t36 -86q0 -50 -35.5 -84t-87.5 -34q-51 0 -86 34t-35 84q0 51 35 86t86 35z" />
    <glyph glyph-name="uni032A" unicode="&#x32a;" 
d="M-124 -122v-283h-101v182h-409v-182h-101v283h611z" />
    <glyph glyph-name="uni25FB" unicode="&#x25fb;" horiz-adv-x="1220" 
d="M180 905h860v-860h-860v860zM260 125h700v700h-700v-700z" />
    <glyph glyph-name="uni25FC" unicode="&#x25fc;" horiz-adv-x="1220" 
d="M180 905h860v-860h-860v860z" />
    <glyph glyph-name="uni25FD" unicode="&#x25fd;" horiz-adv-x="1220" 
d="M352 733h516v-516h-516v516zM422 288h376v375h-376v-375z" />
    <glyph glyph-name="uni25FE" unicode="&#x25fe;" horiz-adv-x="1220" 
d="M352 733h516v-516h-516v516z" />
    <glyph glyph-name="arrowleft" unicode="&#x2190;" horiz-adv-x="1189" 
d="M1135 480v-102h-980v102h980zM62 461l484 324l66 -81l-390 -266v-16l390 -266l-66 -81l-484 324v62z" />
    <glyph glyph-name="arrowright" unicode="&#x2192;" horiz-adv-x="1189" 
d="M1042 480v-102h-980v102h980zM1135 399l-484 -324l-66 81l390 266v16l-390 266l66 81l484 -324v-62z" />
    <glyph glyph-name="uni2002" unicode="&#x2002;" horiz-adv-x="602" 
 />
    <glyph glyph-name="uni2004" unicode="&#x2004;" horiz-adv-x="302" 
 />
    <glyph glyph-name="uni2006" unicode="&#x2006;" horiz-adv-x="102" 
 />
    <glyph glyph-name="uni200C" unicode="&#x200c;" 
d="M36 -275h-72v1859h72v-1859z" />
    <glyph glyph-name="uni200D" unicode="&#x200d;" 
d="M219 1369l-49 -49l-134 136v-1731h-72v1731l-134 -136l-49 49l171 169l-171 168l49 49l170 -171l170 171l49 -49l-171 -168z" />
    <glyph glyph-name="uni200B" unicode="&#x200b;" 
 />
    <glyph glyph-name="uni25CC" unicode="&#x25cc;" horiz-adv-x="1217" 
d="M980 858q0 -50 -48 -50q-52 0 -52 50t52 50q48 0 48 -50zM832 956q0 -49 -48 -49q-52 0 -52 49q0 51 52 51q48 0 48 -51zM1079 710q0 -51 -51 -51q-49 0 -49 51q0 49 51 49q49 0 49 -49zM1115 536q0 -50 -48 -50q-52 0 -52 50t52 50q48 0 48 -50zM658 993q0 -51 -50 -51
t-50 51q0 49 50 49t50 -49zM485 956q0 -49 -51 -49q-49 0 -49 49q0 51 49 51q51 0 51 -51zM1079 362q0 -49 -51 -49q-49 0 -49 49q0 51 49 51q51 0 51 -51zM337 858q0 -50 -50 -50t-50 47q0 53 50 53t50 -50zM980 212q0 -49 -48 -49q-52 0 -52 49q0 51 52 51q48 0 48 -51z
M832 114q0 -48 -48 -48q-52 0 -52 48q0 52 52 52q48 0 48 -52zM238 710q0 -51 -48 -51q-52 0 -52 51q0 49 50 49t50 -49zM202 536q1 -50 -48 -50q-52 0 -52 50t52 50q49 0 48 -50zM658 81q0 -51 -50 -51t-50 51q0 49 50 49t50 -49zM238 362q0 -49 -50 -49t-50 49q0 51 50 51
t50 -51zM485 118q0 -52 -51 -52q-49 0 -49 48q0 52 49 52q51 0 51 -48zM337 212q0 -49 -50 -49t-50 49q0 51 50 51t50 -51z" />
    <glyph glyph-name="cereg" 
d="M434 -138q214 62 415.5 -65t219.5 -491l-28 -20q-102 218 -259 366t-348 182v28z" />
    <glyph glyph-name="cereg.above" horiz-adv-x="1151" 
d="M498 1557l19 -18q-68 -108 -85.5 -145.5t64 -67.5t78 -93t-95 -196.5t46.5 -202.5l-7 -17q-223 69 -136.5 199.5t108.5 182t-84 80t-71.5 100t163.5 178.5z" />
    <glyph glyph-name="cereg.conj" 
d="M-1066 -1238q214 62 415.5 -65t219.5 -491l-28 -20q-102 218 -259 366t-348 182v28z" />
    <glyph glyph-name="cereg.alt" horiz-adv-x="1151" 
d="M498 -43l19 -18q-68 -108 -85.5 -145.5t64 -67.5t78 -93t-95 -196.5t46.5 -202.5l-7 -17q-223 69 -136.5 199.5t108.5 182t-84 80t-71.5 100t163.5 178.5z" />
    <glyph glyph-name="uniA980" unicode="&#xa980;" 
d="M-292 1095q-80 -128 -219 -123t-157 187l29 13q47 -87 127 -110.5t200 51.5zM-458 1137q1 85 7 174q-33 -12 -36.5 -93.5t51.5 -126.5l-23 -17q-123 59 -98 184t164 141l15 -23q-11 -86 -49 -241z" />
    <glyph glyph-name="uniA981" unicode="&#xa981;" 
d="M-668 1146q100 48 189 8t107 -222l-29 -13q-47 107 -92 145.5t-175 53.5v28z" />
    <glyph glyph-name="uniA982" unicode="&#xa982;" 
d="M1783 1864l-34 -17q-213 250 -660 316.5t-801 -234.5t-674 -1027l-40 11q290 757 660 1076t859 276t690 -401z" />
    <glyph glyph-name="uniA983" unicode="&#xa983;" horiz-adv-x="519" 
d="M350.5 581q14.5 55 -8.5 75.5t-52 8t-42.5 -57t-13 -104t10.5 -140.5l-27 -13q-43 91 -49.5 176t33 151t106.5 69t106 -37.5t20 -115.5t-194 -452.5t289 -570.5q1223 -566 1131 -1370l-26 -11q-11 646 -1255 1260q-240 139 -284.5 292.5t98.5 469t157.5 370.5z" />
    <glyph glyph-name="uniA984" unicode="&#xa984;" horiz-adv-x="1390" 
d="M164 251q-144 267 -89 670t299.5 598.5t608.5 151.5v-34q-341 18 -560.5 -181t-259.5 -568t83 -596t349 -232q123 4 129 130q5 153 -139 241l11 34q92 2 137.5 54t35 110.5t-62.5 70.5t-98 -7t-48.5 -65t63.5 -92l-9 -23q-102 28 -111 99.5t41.5 114t128.5 43.5t134 -39
t59 -121t-58.5 -127.5t-150.5 -46.5q174 -63 166.5 -251.5t-228.5 -195.5q-287 -5 -431 262zM1081 576q4 50 1 75.5t-22 13t-32.5 -57t-16.5 -89t4 -155.5l-27 -13q-43 91 -41 183.5t33 151t88 61.5t81 -37.5t13.5 -142t-27.5 -241.5t6 -197t78 -51t90 119l25 -12
q-14 -172 -118.5 -187t-142 64t-17.5 273.5t25 241.5zM898 1557l19 -18q-68 -108 -85.5 -145.5t64 -67.5t78 -93t-95 -196.5t46.5 -202.5l-7 -17q-223 69 -136.5 199.5t108.5 182t-84 80t-71.5 100t163.5 178.5z" />
    <glyph glyph-name="uniA985" unicode="&#xa985;" horiz-adv-x="1049" 
d="M407 63q33 4 67.5 19.5t35 30.5t-22.5 15.5t-42.5 -16t-37.5 -49.5zM354 167q-3 -79 14 -86q27 66 76 86t88 2t34 -67.5t-65.5 -76t-125.5 -19.5q-47 4 -71.5 39.5t-26.5 108.5q-1 30 8.5 181t9.5 221q-1 70 -8.5 93t-29.5 25t-39 -15.5t-36 -66.5q-20 -59 -27 -146
t-8 -186q-2 -100 8 -178l9 -79l-27 -13q-43 91 -60 213q-18 121 -5 254t63 212q49 78 129 79q45 -1 68.5 -21t32.5 -54t10.5 -101.5t-9.5 -226.5q-10 -134 -12 -178zM770.5 658q-48.5 5 -80.5 -30.5t-58 -102.5l-34 1q-7 71 -39.5 110t-123.5 8l-16 19q58 78 122.5 73.5
t93.5 -77.5q33 63 84.5 80.5t109.5 -3t87 -97.5q26 -68 30 -180q4 -129 -21 -247.5t-80 -223.5l-37 16q36 130 48 229t9 195q-4 96 -18 152q-28 73 -76.5 78zM334 -138q214 62 415.5 -65t219.5 -491l-28 -20q-102 218 -259 366t-348 182v28z" />
    <glyph glyph-name="uniA986" unicode="&#xa986;" horiz-adv-x="1356" 
d="M377 63q33 4 67.5 19.5t35 30.5t-22.5 15.5t-42.5 -16t-37.5 -49.5zM324 167q-3 -79 14 -86q27 66 76 86t88 2t34 -67.5t-65.5 -76t-125.5 -19.5q-47 4 -71.5 39.5t-26.5 108.5q-1 30 8.5 181t9.5 221q-1 70 -8.5 93t-29.5 25t-39 -15.5t-36 -66.5q-20 -59 -27 -146
t-8 -186q-2 -100 8 -178l9 -79l-27 -13q-43 91 -60 213q-18 121 -5 254t63 212q49 78 129 79q45 -1 68.5 -21t32.5 -54t10.5 -101.5t-9.5 -226.5q-10 -134 -12 -178zM848 58q52 1 77 20t42 79t21 131.5t-2 159.5q-7 88 -23 154t-48 95v23q101 33 174 16.5t112.5 -83
t44.5 -194.5q4 -129 -21 -247.5t-80 -223.5l-37 16q36 130 48 229t9 195q-4 96 -18.5 151.5t-53 84.5t-86.5 16q20 -18 36.5 -90.5t20.5 -152.5q3 -81 -2.5 -147.5t-20.5 -141t-55 -110.5t-121 -39h-74l-11 23q34 112 46 211t9 195q-4 96 -18 152q-28 73 -76.5 78
t-80.5 -30.5t-58 -102.5l-34 1q-7 71 -39.5 110t-123.5 8l-16 19q58 78 122.5 73.5t93.5 -77.5q33 63 84.5 80.5t109.5 -3t87 -97.5q26 -68 30 -180q4 -129 -21 -247q-17 -81 -47 -154zM334 -138q214 62 415.5 -65t219.5 -491l-28 -20q-102 218 -259 366t-348 182v28z" />
    <glyph glyph-name="uniA987" unicode="&#xa987;" horiz-adv-x="1361" 
d="M377 63q33 4 67.5 19.5t35 30.5t-22.5 15.5t-42.5 -16t-37.5 -49.5zM324 167q-3 -79 14 -86q27 66 76 86t88 2t34 -67.5t-65.5 -76t-125.5 -19.5q-47 4 -71.5 39.5t-26.5 108.5q-1 30 8.5 181t9.5 221q-1 70 -8.5 93t-29.5 25t-39 -15.5t-36 -66.5q-20 -59 -27 -146
t-8 -186q-2 -100 8 -178l9 -79l-27 -13q-43 91 -60 213q-18 121 -5 254t63 212q49 78 129 79q45 -1 68.5 -21t32.5 -54t10.5 -101.5t-9.5 -226.5q-10 -134 -12 -178zM848 58q52 1 77 20t42 79t21 131.5t-2 159.5q-7 88 -23 154t-48 95v23q101 33 174 16.5t112.5 -83
t44.5 -194.5q4 -129 -21 -247.5t-80 -223.5l-37 16q36 130 48 229t9 195q-4 96 -18.5 151.5t-53 84.5t-86.5 16q20 -18 36.5 -90.5t20.5 -152.5q3 -81 -2.5 -147.5t-20.5 -141t-55 -110.5t-121 -39h-74l-11 23q34 112 46 211t9 195q-4 96 -18 152q-28 73 -76.5 78
t-80.5 -30.5t-58 -102.5l-34 1q-7 71 -39.5 110t-123.5 8l-16 19q58 78 122.5 73.5t93.5 -77.5q33 63 84.5 80.5t109.5 -3t87 -97.5q26 -68 30 -180q4 -129 -21 -247q-17 -81 -47 -154zM598 -43l19 -18q-68 -108 -85.5 -145.5t64 -67.5t78 -93t-95 -196.5t46.5 -202.5
l-7 -17q-223 69 -136.5 199.5t108.5 182t-84 80t-71.5 100t163.5 178.5z" />
    <glyph glyph-name="uniA988" unicode="&#xa988;" horiz-adv-x="1049" 
d="M407 63q33 4 67.5 19.5t35 30.5t-22.5 15.5t-42.5 -16t-37.5 -49.5zM354 167q-3 -79 14 -86q27 66 76 86t88 2t34 -67.5t-65.5 -76t-125.5 -19.5q-47 4 -71.5 39.5t-26.5 108.5q-1 30 8.5 181t9.5 221q-1 70 -8.5 93t-29.5 25t-39 -15.5t-36 -66.5q-20 -59 -27 -146
t-8 -186q-2 -100 8 -178l9 -79l-27 -13q-43 91 -60 213q-18 121 -5 254t63 212q49 78 129 79q45 -1 68.5 -21t32.5 -54t10.5 -101.5t-9.5 -226.5q-10 -134 -12 -178zM847 621q-28 32 -73.5 36t-79 -26.5t-62.5 -105.5l-34 1q-7 71 -39.5 110t-123.5 8l-16 19
q58 78 122.5 73.5t93.5 -77.5q33 63 84.5 80.5t102.5 3t85.5 -56.5t51 -118.5t-10.5 -236.5t-142 -353.5t-590 -678t-1039 -947.5q205 41 535 274q257 198 764.5 491.5t740 123t129.5 -855.5l-37 -5q50 587 -117.5 752t-598.5 -96t-756.5 -487t-499.5 -263t-203.5 9
t26.5 110t205 194q220 185 738.5 700.5t627 705.5t135.5 327t18 197t-37 92z" />
    <glyph glyph-name="uniA989" unicode="&#xa989;" horiz-adv-x="1035" 
d="M470 -1q-105 2 -149.5 38t-55 98t-0.5 207.5t10 213.5q-1 70 -8.5 93t-29.5 25t-39 -15.5t-36 -66.5q-20 -59 -27 -146t-8 -186q-2 -100 8 -178l9 -79l-27 -13q-43 91 -60 213q-18 121 -5 254t63 212q49 78 129 79q45 -1 68.5 -21t32.5 -54t10.5 -101.5t-4.5 -221.5
t-3 -191.5t26.5 -67.5t95.5 -31h77q43 3 66 20q25 19 43 78t22 130.5t-2 159.5q-7 88 -23 154t-48 95v23q101 33 174 16.5t112.5 -83t44.5 -194.5q4 -129 -21 -247.5t-80 -223.5l-37 16q36 130 48 229t9 195q-4 96 -18.5 151.5t-53 84.5t-86.5 16q20 -18 36.5 -90.5
t20.5 -152.5q3 -81 -2.5 -147.5t-20.5 -136t-55 -110.5t-121 -44h-85zM334 -138q214 62 415.5 -65t219.5 -491l-28 -20q-102 218 -259 366t-348 182v28z" />
    <glyph glyph-name="uniA98A" unicode="&#xa98a;" horiz-adv-x="1049" 
d="M407 63q33 4 67.5 19.5t35 30.5t-22.5 15.5t-42.5 -16t-37.5 -49.5zM354 167q-3 -79 14 -86q27 66 76 86t88 2t34 -67.5t-65.5 -76t-125.5 -19.5q-47 4 -71.5 39.5t-26.5 108.5q-1 30 8.5 181t9.5 221q-1 70 -8.5 93t-29.5 25t-39 -15.5t-36 -66.5q-20 -59 -27 -146
t-8 -186q-2 -100 8 -178l9 -79l-27 -13q-43 91 -60 213q-18 121 -5 254t63 212q49 78 129 79q45 -1 68.5 -21t32.5 -54t10.5 -101.5t-9.5 -226.5q-10 -134 -12 -178zM536 -774l-282 391q-63 84 -134.5 135t-160.5 48.5t-192.5 -97.5t-140 -347.5t29.5 -404t207.5 -186.5
t277.5 31t234.5 194.5t160.5 235.5zM699 -652q864 -1223 1567 -1121v-26q-807 -188 -1674 959q-58 -91 -161.5 -233t-265.5 -213t-347.5 -25t-257 235.5t-24 452t186.5 384t298 112.5t255.5 -69t182.5 -170l178 -209q133 318 182 582.5t46 420.5q-4 96 -18 152
q-28 73 -76.5 78t-80.5 -30.5t-58 -102.5l-34 1q-7 71 -39.5 110t-123.5 8l-16 19q58 78 122.5 73.5t93.5 -77.5q33 63 84.5 80.5t109.5 -3t87 -97.5q26 -68 30 -180q4 -239 -63 -522t-184 -589z" />
    <glyph glyph-name="uniA98B" unicode="&#xa98b;" horiz-adv-x="1049" 
d="M407 63q33 4 67.5 19.5t35 30.5t-22.5 15.5t-42.5 -16t-37.5 -49.5zM354 167q-3 -79 14 -86q27 66 76 86t88 2t34 -67.5t-65.5 -76t-125.5 -19.5q-47 4 -71.5 39.5t-26.5 108.5q-1 30 8.5 181t9.5 221q-1 70 -8.5 93t-29.5 25t-39 -15.5t-36 -66.5q-20 -59 -27 -146
t-8 -186q-2 -100 8 -178l9 -79l-27 -13q-43 91 -60 213q-18 121 -5 254t63 212q49 78 129 79q45 -1 68.5 -21t32.5 -54t10.5 -101.5t-9.5 -226.5q-10 -134 -12 -178zM536 -774l-282 391q-63 84 -134.5 135t-160.5 48.5t-192.5 -97.5t-140 -347.5t29.5 -404t207.5 -186.5
t277.5 31t234.5 194.5t160.5 235.5zM699 -652q864 -1223 1567 -1121v-26q-807 -188 -1674 959q-58 -91 -161.5 -233t-265.5 -213t-347.5 -25t-257 235.5t-24 452t186.5 384t298 112.5t255.5 -69t182.5 -170l178 -209q133 318 182 582.5t46 420.5q-4 96 -18 152
q-28 73 -76.5 78t-80.5 -30.5t-58 -102.5l-34 1q-7 71 -39.5 110t-123.5 8l-16 19q58 78 122.5 73.5t93.5 -77.5q33 63 84.5 80.5t109.5 -3t87 -97.5q26 -68 30 -180q4 -239 -63 -522t-184 -589z" />
    <glyph glyph-name="uniA98C" unicode="&#xa98c;" horiz-adv-x="489" 
d="M305 733q81 19 117.5 -33.5t-1.5 -123.5t-160 -138l-10 23q85 91 104.5 135t-8 63.5t-79 -14t-99.5 -120.5t-49 -247q5 -213 498 -483.5t301 -874.5l-26 -11q79 406 -324.5 666.5t-480.5 435.5t-47 354q25 149 104 249t160 119z" />
    <glyph glyph-name="uniA98D" unicode="&#xa98d;" horiz-adv-x="489" 
d="M305 733q81 19 117.5 -33.5t-1.5 -123.5t-160 -138l-10 23q85 91 104.5 135t-8 63.5t-79 -14t-99.5 -120.5t-49 -247q5 -213 498 -483.5t301 -874.5l-26 -11q79 406 -324.5 666.5t-480.5 435.5t-47 354q25 149 104 249t160 119zM398 1557l19 -18q-68 -108 -85.5 -145.5
t64 -67.5t78 -93t-95 -196.5t46.5 -202.5l-7 -17q-223 69 -136.5 199.5t108.5 182t-84 80t-71.5 100t163.5 178.5z" />
    <glyph glyph-name="uniA98D_uniA980" horiz-adv-x="489" 
d="M305 733q81 19 117.5 -33.5t-1.5 -123.5t-160 -138l-10 23q85 91 104.5 135t-8 63.5t-79 -14t-99.5 -120.5t-49 -247q5 -213 498 -483.5t301 -874.5l-26 -11q79 406 -324.5 666.5t-480.5 435.5t-47 354q25 149 104 249t160 119zM447 2087l19 -18q-68 -108 -85.5 -145.5
t64 -67.5t78 -93t-95 -196.5t46.5 -202.5l-7 -17q-223 69 -136.5 199.5t108.5 182t-84 80t-71.5 100t163.5 178.5zM537 995q-80 -128 -219 -123t-157 187l29 13q47 -87 127 -110.5t200 51.5zM371 1037q1 85 7 174q-33 -12 -36.5 -93.5t51.5 -126.5l-23 -17q-123 59 -98 184
t164 141l15 -23q-11 -86 -49 -241z" />
    <glyph glyph-name="uniA98D_uniA981" horiz-adv-x="489" 
d="M305 733q81 19 117.5 -33.5t-1.5 -123.5t-160 -138l-10 23q85 91 104.5 135t-8 63.5t-79 -14t-99.5 -120.5t-49 -247q5 -213 498 -483.5t301 -874.5l-26 -11q79 406 -324.5 666.5t-480.5 435.5t-47 354q25 149 104 249t160 119zM347 1857l19 -18q-68 -108 -85.5 -145.5
t64 -67.5t78 -93t-95 -196.5t46.5 -202.5l-7 -17q-223 69 -136.5 199.5t108.5 182t-84 80t-71.5 100t163.5 178.5zM141 1046q100 48 189 8t107 -222l-29 -13q-47 107 -92 145.5t-175 53.5v28z" />
    <glyph glyph-name="uniA98D_uniA982" horiz-adv-x="489" 
d="M305 733q81 19 117.5 -33.5t-1.5 -123.5t-160 -138l-10 23q85 91 104.5 135t-8 63.5t-79 -14t-99.5 -120.5t-49 -247q5 -213 498 -483.5t301 -874.5l-26 -11q79 406 -324.5 666.5t-480.5 435.5t-47 354q25 149 104 249t160 119zM347 1557l19 -18q-68 -108 -85.5 -145.5
t64 -67.5t78 -93t-95 -196.5t46.5 -202.5l-7 -17q-223 69 -136.5 199.5t108.5 182t-84 80t-71.5 100t163.5 178.5zM2632 1864l-34 -17q-213 250 -660 316.5t-801 -234.5t-674 -1027l-40 11q290 757 660 1076t859 276t690 -401z" />
    <glyph glyph-name="uniA98E" unicode="&#xa98e;" horiz-adv-x="1001" 
d="M788 -60.5q-95 -155.5 -555 -640t-1024 -947.5q205 41 535 274q257 198 764.5 491.5t740 123t129.5 -855.5l-37 -5q50 587 -117.5 752t-598.5 -96t-756.5 -487t-499.5 -263t-203.5 9t26.5 110t205 194q220 185 723.5 700.5t595.5 667.5t111 285.5t7 216t-34 126t-49 63.5
t-66.5 26t-74 -2t-57.5 -28.5t-36.5 -59.5t-7 -81.5t86.5 -40.5q80 7 119 -38q37 -43 43.5 -136.5t-5.5 -148.5q-15 -75 -60 -111t-116 -39h-85q-105 2 -149.5 38t-55 98t-0.5 207.5t10 213.5q-1 70 -8.5 93t-29.5 25t-39 -15.5t-36 -66.5q-20 -59 -27 -146t-8 -186
q-2 -100 8 -178l9 -79l-27 -13q-43 91 -60 213q-18 121 -5 254t63 212q49 78 129 79q45 -1 68.5 -21t32.5 -54t10.5 -101.5t-4.5 -221.5t-3 -191.5t26.5 -67.5t95.5 -31h77q45 0 75 27q28 20 39 83q4 48 1 110t-19 98q-17 37 -85 29q-103 -3 -132 41.5t-14.5 127.5t63 124.5
t106.5 49.5t111 -1.5t90.5 -34.5t68 -78t43.5 -153t-10 -244t-118 -299.5z" />
    <glyph glyph-name="uniA98F" unicode="&#xa98f;" horiz-adv-x="1350" 
d="M767 33q56 165 60 360q5 187 -26 236t-101 58q-70 8 -100.5 2.5t-53 -36t-22.5 -208.5q-1 -178 17 -282q39 -16 62.5 -43t28 -71.5t-18 -55.5t-63 15t-73.5 110q-44 21 -134 38q-6 -54 -22 -160l-43 3q3 146 6 317q3 170 3 240q-1 70 -8.5 93t-29.5 25t-39 -15.5
t-36 -66.5q-20 -59 -27 -146t-8 -186q-2 -100 8 -178l9 -79l-27 -13q-43 91 -60 213q-18 121 -5 254t63 212q49 78 129 79q45 -1 68.5 -21t32.5 -54t10.5 -101.5t-9.5 -226.5q-5 -79 -11 -142q74 -6 123 -21q-19 133 -19 271t17 199.5t64.5 88.5t144.5 24t172 -64t65 -280
t-61 -363q49 1 74 20t42 79t21 131.5t-2 159.5q-7 88 -23 154t-48 95v23q101 33 174 16.5t112.5 -83t44.5 -194.5q4 -129 -21 -247.5t-80 -223.5l-37 16q36 130 48 229t9 195q-4 96 -18.5 151.5t-53 84.5t-86.5 16q20 -18 36.5 -90.5t20.5 -152.5q3 -81 -2.5 -147.5
t-20.5 -141t-55 -110.5t-121 -39h-90z" />
    <glyph glyph-name="uniA990" unicode="&#xa990;" horiz-adv-x="1349" 
d="M767 33q56 165 60 360q5 187 -26 236t-101 58q-70 8 -100.5 2.5t-53 -36t-22.5 -208.5q-1 -178 17 -282q39 -16 62.5 -43t28 -71.5t-18 -55.5t-63 15t-73.5 110q-44 21 -134 38q-6 -54 -22 -160l-43 3q3 146 6 317q3 170 3 240q-1 70 -8.5 93t-29.5 25t-39 -15.5
t-36 -66.5q-20 -59 -27 -146t-8 -186q-2 -100 8 -178l9 -79l-27 -13q-43 91 -60 213q-18 121 -5 254t63 212q49 78 129 79q45 -1 68.5 -21t32.5 -54t10.5 -101.5t-9.5 -226.5q-5 -79 -11 -142q74 -6 123 -21q-19 133 -19 271t17 199.5t64.5 88.5t144.5 24t172 -64t65 -280
t-61 -363q49 1 74 20t42 79t21 131.5t-2 159.5q-7 88 -23 154t-48 95v23q101 33 174 16.5t112.5 -83t44.5 -194.5q4 -129 -21 -247.5t-80 -223.5l-37 16q36 130 48 229t9 195q-4 96 -18.5 151.5t-53 84.5t-86.5 16q20 -18 36.5 -90.5t20.5 -152.5q3 -81 -2.5 -147.5
t-20.5 -141t-55 -110.5t-121 -39h-90zM334 -138q214 62 415.5 -65t219.5 -491l-28 -20q-102 218 -259 366t-348 182v28z" />
    <glyph glyph-name="uniA991" unicode="&#xa991;" horiz-adv-x="949" 
d="M326 129q87 14 151 10q-21 146 -21 299t17 214.5t64.5 88.5t144.5 24t177 -64t16 -322t-67 -457.5t370 -351.5q1223 -566 1131 -1370l-26 -11q-11 646 -1255 1260q-240 139 -284 293q-42 141 25.5 489.5t36.5 397.5t-101 57.5t-100.5 3t-53 -36t-23 -223.5t17.5 -294
q39 -19 62.5 -46t28 -71.5t-18 -55.5t-63 15t-71.5 107q-42 12 -163 -1q-6 -43 -12 -88l-43 3q3 146 6 317q3 170 3 240q-1 70 -8.5 93t-29.5 25t-39 -15.5t-36 -66.5q-20 -59 -27 -146t-8 -186q-2 -100 8 -178l9 -79l-27 -13q-43 91 -60 213q-18 121 -5 254t63 212
q49 78 129 79q45 -1 68.5 -21t32.5 -54t10.5 -101.5t-9.5 -226.5q-7 -102 -20 -216z" />
    <glyph glyph-name="uniA991.alt" horiz-adv-x="949" 
d="M326 129q87 14 151 10q-21 146 -21 299t17 214.5t64.5 88.5t144.5 24t177 -64t16 -322t-67 -457.5t370 -351.5q1223 -566 1131 -1370l-26 -11q-11 646 -1255 1260q-240 139 -284 293q-42 141 25.5 489.5t36.5 397.5t-101 57.5t-100.5 3t-53 -36t-23 -223.5t17.5 -294
q39 -19 62.5 -46t28 -71.5t-18 -55.5t-63 15t-71.5 107q-42 12 -163 -1q-6 -43 -12 -88l-43 3q3 146 6 317q3 170 3 240q-1 70 -8.5 93t-29.5 25t-39 -15.5t-36 -66.5q-20 -59 -27 -146t-8 -186q-2 -100 8 -178l9 -79l-27 -13q-43 91 -60 213q-18 121 -5 254t63 212
q49 78 129 79q45 -1 68.5 -21t32.5 -54t10.5 -101.5t-9.5 -226.5q-7 -102 -20 -216z" />
    <glyph glyph-name="uniA992" unicode="&#xa992;" horiz-adv-x="1249" 
d="M241 58q49 1 79 20t40.5 81.5t12.5 223.5t9.5 245.5t65.5 109.5t130.5 6.5t121.5 -98t56.5 -207.5t-17 -216t-88.5 -165q63 3 95 31t48 78t21 179t-37 351l10 27q128 29 201 12.5t113 -82.5q39 -67 44 -195q4 -129 -21 -247.5t-80 -223.5l-37 16q36 130 48 229t9 195
q-4 96 -18 152q-15 55 -63.5 84t-121.5 12q38 -219 31 -336t-24 -183t-65 -110.5t-159 -47.5h-80l-3 39q66 94 93.5 187.5t20.5 201t-41.5 166.5t-69 77t-67.5 9t-37.5 -51t-5.5 -223q-1 -182 -16 -256.5t-50 -110.5t-106 -39h-118l-3 39q44 118 58.5 214.5t19.5 162
t3.5 139.5t-14 101t-32.5 15t-32 -59.5t-14 -105t3 -142.5l-27 -13q-27 73 -34.5 166.5t22 152.5t77 70.5t77.5 -9.5t41 -66t9 -128.5t-10 -157t-20.5 -147.5t-47.5 -173z" />
    <glyph glyph-name="uniA993" unicode="&#xa993;" horiz-adv-x="1600" 
d="M920 66q42 8 76.5 50t53.5 97l38 -5q5 -80 29 -123q15 -26 50.5 -25.5t59.5 24t35 86.5q4 48 1 110t-19 98q-17 37 -75 29q-93 -3 -122 41.5t-14.5 127.5t63 124.5t106.5 49.5t107 1.5t89.5 -30.5t67 -81t31.5 -181q4 -129 -21 -247.5t-80 -223.5l-37 16q36 130 48 229
t9 195q-5 123 -22 166.5t-44 63.5t-66.5 26t-74 -2t-57.5 -28.5t-36.5 -59.5t-7 -81.5t76.5 -40.5q70 7 109 -38q37 -43 43.5 -136.5t-5.5 -148.5q-15 -75 -63.5 -115.5t-122 -37t-99.5 82.5q-51 -66 -127 -78.5t-120.5 32t-41.5 145t13 180t-0.5 159t-45 124.5t-103.5 50
t-60 -55.5t21.5 -151t3 -223.5t-44 -195.5t-85.5 -71t-83.5 39t-13.5 174t9.5 257.5t-41.5 171t-93.5 33.5t-91 -71t-36 -174.5t14.5 -220t65 -197l-29 -17q-80 73 -107.5 203t-17 254.5t55.5 204t144 89.5t155 -50t62 -210.5t-13 -274.5t3.5 -141t49.5 55t27 192.5
t-26 252.5t18 165t130.5 25.5t145.5 -66t70 -160t-11 -253.5q-21 -150 6.5 -184t69.5 -26z" />
    <glyph glyph-name="uniA994" unicode="&#xa994;" horiz-adv-x="1049" 
d="M407 63q33 4 67.5 19.5t35 30.5t-22.5 15.5t-42.5 -16t-37.5 -49.5zM354 167q-3 -79 14 -86q27 66 76 86t88 2t34 -67.5t-65.5 -76t-125.5 -19.5q-47 4 -71.5 39.5t-26.5 108.5q-1 30 8.5 181t9.5 221q-1 70 -8.5 93t-29.5 25t-39 -15.5t-36 -66.5q-20 -59 -27 -146
t-8 -186q-2 -100 8 -178l9 -79l-27 -13q-43 91 -60 213q-18 121 -5 254t63 212q49 78 129 79q45 -1 68.5 -21t32.5 -54t10.5 -101.5t-9.5 -226.5q-10 -134 -12 -178zM770.5 658q-48.5 5 -80.5 -30.5t-58 -102.5l-34 1q-7 71 -39.5 110t-123.5 8l-16 19q58 78 122.5 73.5
t93.5 -77.5q33 63 84.5 80.5t109.5 -3t87 -97.5q26 -68 30 -180q4 -129 -21 -247.5t-80 -223.5l-37 16q36 130 48 229t9 195q-4 96 -18 152q-28 73 -76.5 78z" />
    <glyph glyph-name="uniA995" unicode="&#xa995;" horiz-adv-x="1051" 
d="M142 67q30 -5 59 127q-57 -5 -73 -63.5t14 -63.5zM673 83.5q29 23.5 40 86.5q4 48 1 110t-19 98q-17 37 -75 29q-93 -3 -122 41.5t-14.5 127.5t63 124.5t106.5 49.5t107 1.5t89.5 -30.5t67 -81t31.5 -181q4 -129 -21 -247.5t-80 -223.5l-37 16q36 130 48 229t9 195
q-5 123 -22 166.5t-44 63.5t-66.5 26t-74 -2t-57.5 -28.5t-36.5 -59.5t-7 -81.5t76.5 -40.5q70 7 109 -38q37 -43 43.5 -136.5t-5.5 -148.5q-15 -75 -61.5 -112.5t-107.5 -37.5q-77 -1 -182 93t-159 99q-37 -198 -133 -192q-93 8 -74.5 124.5t148.5 135.5q14 81 18.5 151
t3 144t-14 101t-32.5 15t-32 -59.5t-14 -105t3 -142.5l-27 -13q-27 73 -34.5 166.5t22 152.5t77 70.5t77.5 -9.5t41 -66t9 -128.5t-10 -157t-17 -122.5q69 -5 171.5 -95t145.5 -95.5t72 18z" />
    <glyph glyph-name="uniA996" unicode="&#xa996;" horiz-adv-x="1676" 
d="M613 38q66 94 93.5 187.5t20.5 201t-41.5 166.5t-69 77t-67.5 9t-37.5 -51t9.5 -223.5t-11 -256t-80 -110.5t-154 -39q-115 3 -169 66.5t-62 184t50 259.5t233 239l15 -27q-127 -108 -174 -245t-38.5 -231.5t46.5 -135t95 -41.5q69 1 107 25t55.5 76.5t4.5 213.5
t-5.5 245.5t65.5 109.5t130.5 6.5t121.5 -98t56.5 -207.5t-16.5 -216q-25 -88 -89 -165q63 3 95 31t48 78t21 179t-37 351l10 27q128 29 201 12.5t113 -82.5q39 -67 44 -195q4 -129 -22 -223t-86 -178q70 8 119 64.5t55 197.5v103q-4 131 7 195t56 106.5t109 39.5
q151 -7 158.5 -165.5t-166.5 -221.5q89 0 150.5 -46.5t65.5 -143t-44.5 -147t-127 -44t-135.5 66.5l6 16q90 -33 148.5 -18.5t66 97t-45.5 135.5t-145 55l-11 34q154 88 148.5 197.5t-78.5 113.5q-52 -3 -69 -61t-17 -213v-94q0 -151 -67.5 -239t-197.5 -87h-72l-13 25
q86 130 108 219t19 185q-4 96 -18 152q-15 55 -63.5 84t-121.5 12q38 -219 31 -336t-24 -183t-65 -110.5t-159 -47.5h-80z" />
    <glyph glyph-name="uniA996.alt" horiz-adv-x="1656" 
d="M613 38q66 94 93.5 187.5t20.5 201t-41.5 166.5t-69 77t-67.5 9t-37.5 -51t9.5 -223.5t-11 -256t-80 -110.5t-154 -39q-115 3 -169 66.5t-62 184t50 259.5t233 239l15 -27q-127 -108 -174 -245t-38.5 -231.5t46.5 -135t95 -41.5q69 1 107 25t55.5 76.5t4.5 213.5
t-5.5 245.5t65.5 109.5t130.5 6.5t121.5 -98t56.5 -207.5t-16.5 -216q-25 -88 -89 -165q63 3 95 31t48 78t21 179t-37 351l10 27q128 29 201 12.5t113 -82.5q39 -67 44 -195q4 -129 -22 -223t-86 -178q70 8 119 64.5t55 197.5v103q-4 131 7 195t56 106.5t109 39.5
q151 -7 158.5 -165.5t-166.5 -221.5q89 0 150.5 -46.5t65.5 -143t-44.5 -147t-127 -44t-135.5 66.5l6 16q90 -33 148.5 -18.5t66 97t-45.5 135.5t-145 55l-11 34q154 88 148.5 197.5t-78.5 113.5q-52 -3 -69 -61t-17 -213v-94q0 -151 -67.5 -239t-197.5 -87h-72l-13 25
q86 130 108 219t19 185q-4 96 -18 152q-15 55 -63.5 84t-121.5 12q38 -219 31 -336t-24 -183t-65 -110.5t-159 -47.5h-80z" />
    <glyph glyph-name="uniA997" unicode="&#xa997;" horiz-adv-x="1099" 
d="M539 373q239 74 309.5 131t50 110.5t-93.5 63t-129 -8.5t-77.5 -67.5t12.5 -141.5l-17 -8q-94 79 -62 171t154.5 111t215 -15.5t100 -132t-88.5 -151.5t-375 -86zM534 222q214 102 355 58t180 -274l-28 -20q-97 113 -206.5 163.5t-300.5 44.5v28zM458 165q36 -8 62 -33.5
t19 -67.5t-49.5 -56t-86.5 -6t-68.5 43.5t-26.5 108.5q-1 30 8.5 181t9.5 221q-1 70 -8.5 93t-29.5 25t-39 -15.5t-36 -66.5q-20 -59 -27 -146t-8 -186q-2 -100 8 -178l9 -79l-27 -13q-43 91 -60 213q-18 121 -5 254t63 212q49 78 129 79q45 -1 68.5 -21t32.5 -54
t10.5 -101.5t-9.5 -226.5q-10 -134 -12 -178q-3 -89 26.5 -105t49 -5t18 37t-26.5 56z" />
    <glyph glyph-name="uniA997.alt" horiz-adv-x="1099" 
d="M539 373q239 74 309.5 131t50 110.5t-93.5 63t-129 -8.5t-77.5 -67.5t12.5 -141.5l-17 -8q-94 79 -62 171t154.5 111t215 -15.5t100 -132t-88.5 -151.5t-375 -86zM534 222q214 102 355 58t180 -274l-28 -20q-97 113 -206.5 163.5t-300.5 44.5v28zM458 165q36 -8 62 -33.5
t19 -67.5t-49.5 -56t-86.5 -6t-68.5 43.5t-26.5 108.5q-1 30 8.5 181t9.5 221q-1 70 -8.5 93t-29.5 25t-39 -15.5t-36 -66.5q-20 -59 -27 -146t-8 -186q-2 -100 8 -178l9 -79l-27 -13q-43 91 -60 213q-18 121 -5 254t63 212q49 78 129 79q45 -1 68.5 -21t32.5 -54
t10.5 -101.5t-9.5 -226.5q-10 -134 -12 -178q-3 -89 26.5 -105t49 -5t18 37t-26.5 56z" />
    <glyph glyph-name="uniA998" unicode="&#xa998;" horiz-adv-x="1099" 
d="M539 373q239 74 309.5 131t50 110.5t-93.5 63t-129 -8.5t-77.5 -67.5t12.5 -141.5l-17 -8q-94 79 -62 171t154.5 111t215 -15.5t100 -132t-88.5 -151.5t-375 -86zM534 222q214 102 355 58t180 -274l-28 -20q-97 113 -206.5 163.5t-300.5 44.5v28zM458 165q36 -8 62 -33.5
t19 -67.5t-49.5 -56t-86.5 -6t-68.5 43.5t-26.5 108.5q-1 30 8.5 181t9.5 221q-1 70 -8.5 93t-29.5 25t-39 -15.5t-36 -66.5q-20 -59 -27 -146t-8 -186q-2 -100 8 -178l9 -79l-27 -13q-43 91 -60 213q-18 121 -5 254t63 212q49 78 129 79q45 -1 68.5 -21t32.5 -54
t10.5 -101.5t-9.5 -226.5q-10 -134 -12 -178q-3 -89 26.5 -105t49 -5t18 37t-26.5 56zM334 -138q214 62 415.5 -65t219.5 -491l-28 -20q-102 218 -259 366t-348 182v28z" />
    <glyph glyph-name="uniA998.alt" horiz-adv-x="1099" 
d="M539 373q239 74 309.5 131t50 110.5t-93.5 63t-129 -8.5t-77.5 -67.5t12.5 -141.5l-17 -8q-94 79 -62 171t154.5 111t215 -15.5t100 -132t-88.5 -151.5t-375 -86zM534 222q214 102 355 58t180 -274l-28 -20q-97 113 -206.5 163.5t-300.5 44.5v28zM458 165q36 -8 62 -33.5
t19 -67.5t-49.5 -56t-86.5 -6t-68.5 43.5t-26.5 108.5q-1 30 8.5 181t9.5 221q-1 70 -8.5 93t-29.5 25t-39 -15.5t-36 -66.5q-20 -59 -27 -146t-8 -186q-2 -100 8 -178l9 -79l-27 -13q-43 91 -60 213q-18 121 -5 254t63 212q49 78 129 79q45 -1 68.5 -21t32.5 -54
t10.5 -101.5t-9.5 -226.5q-10 -134 -12 -178q-3 -89 26.5 -105t49 -5t18 37t-26.5 56zM334 -138q214 62 415.5 -65t219.5 -491l-28 -20q-102 218 -259 366t-348 182v28z" />
    <glyph glyph-name="uniA999" unicode="&#xa999;" horiz-adv-x="1380" 
d="M407 63q33 4 67.5 19.5t35 30.5t-22.5 15.5t-42.5 -16t-37.5 -49.5zM354 167q-3 -79 14 -86q27 66 76 86t88 2t34 -67.5t-65.5 -76t-125.5 -19.5q-47 4 -71.5 39.5t-26.5 108.5q-1 30 8.5 181t9.5 221q-1 70 -8.5 93t-29.5 25t-39 -15.5t-36 -66.5q-20 -59 -27 -146
t-8 -186q-2 -100 8 -178l9 -79l-27 -13q-43 91 -60 213q-18 121 -5 254t63 212q49 78 129 79q45 -1 68.5 -21t32.5 -54t10.5 -101.5t-9.5 -226.5q-10 -134 -12 -178zM770.5 658q-48.5 5 -80.5 -30.5t-58 -102.5l-34 1q-7 71 -39.5 110t-123.5 8l-16 19q58 78 122.5 73.5
t93.5 -77.5q33 63 84.5 80.5t109.5 -3t87 -97.5q26 -68 30 -180q4 -129 -21 -247.5t-80 -223.5l-37 16q36 130 48 229t9 195q-4 96 -18 152q-28 73 -76.5 78zM854 210l70 -8q-67 -339 -258 -517t-381 -337.5t-234 -367t50.5 -364t282.5 -191.5t350 30.5t254.5 232.5
t130.5 688t20.5 887t-67.5 437l3 27q121 47 216 -23t40 -400l-47 2q11 239 -31 310t-86 61q41 -28 56.5 -395t-18.5 -916.5t-148.5 -738t-304.5 -259.5t-416.5 -22t-328 243.5t-52.5 413.5t247.5 384.5t383.5 330.5t268 492z" />
    <glyph glyph-name="uniA999.full" horiz-adv-x="1380" 
d="M407 63q33 4 67.5 19.5t35 30.5t-22.5 15.5t-42.5 -16t-37.5 -49.5zM354 167q-3 -79 14 -86q27 66 76 86t88 2t34 -67.5t-65.5 -76t-125.5 -19.5q-47 4 -71.5 39.5t-26.5 108.5q-1 30 8.5 181t9.5 221q-1 70 -8.5 93t-29.5 25t-39 -15.5t-36 -66.5q-20 -59 -27 -146
t-8 -186q-2 -100 8 -178l9 -79l-27 -13q-43 91 -60 213q-18 121 -5 254t63 212q49 78 129 79q45 -1 68.5 -21t32.5 -54t10.5 -101.5t-9.5 -226.5q-10 -134 -12 -178zM770.5 658q-48.5 5 -80.5 -30.5t-58 -102.5l-34 1q-7 71 -39.5 110t-123.5 8l-16 19q58 78 122.5 73.5
t93.5 -77.5q33 63 84.5 80.5t109.5 -3t87 -97.5q26 -68 30 -180q4 -129 -21 -247.5t-80 -223.5l-37 16q36 130 48 229t9 195q-4 96 -18 152q-28 73 -76.5 78zM854 210l70 -8q-67 -339 -258 -517t-381 -337.5t-234 -367t50.5 -364t282.5 -191.5t350 30.5t254.5 232.5
t130.5 688t20.5 887t-67.5 437l3 27q121 47 216 -23t40 -400l-47 2q11 239 -31 310t-86 61q41 -28 56.5 -395t-18.5 -916.5t-148.5 -738t-304.5 -259.5t-416.5 -22t-328 243.5t-52.5 413.5t247.5 384.5t383.5 330.5t268 492z" />
    <glyph glyph-name="uniA999.full_long" horiz-adv-x="1380" 
d="M407 63q33 4 67.5 19.5t35 30.5t-22.5 15.5t-42.5 -16t-37.5 -49.5zM354 167q-3 -79 14 -86q27 66 76 86t88 2t34 -67.5t-65.5 -76t-125.5 -19.5q-47 4 -71.5 39.5t-26.5 108.5q-1 30 8.5 181t9.5 221q-1 70 -8.5 93t-29.5 25t-39 -15.5t-36 -66.5q-20 -59 -27 -146
t-8 -186q-2 -100 8 -178l9 -79l-27 -13q-43 91 -60 213q-18 121 -5 254t63 212q49 78 129 79q45 -1 68.5 -21t32.5 -54t10.5 -101.5t-9.5 -226.5q-10 -134 -12 -178zM770.5 658q-48.5 5 -80.5 -30.5t-58 -102.5l-34 1q-7 71 -39.5 110t-123.5 8l-16 19q58 78 122.5 73.5
t93.5 -77.5q33 63 84.5 80.5t109.5 -3t87 -97.5q26 -68 30 -180q4 -129 -21 -247.5t-80 -223.5l-37 16q36 130 48 229t9 195q-4 96 -18 152q-28 73 -76.5 78zM854 210l70 -8q-67 -339 -258 -517t-381 -337.5t-234 -367t50.5 -364t282.5 -191.5t350 30.5t254.5 232.5
t130.5 688t20.5 887t-67.5 437l3 27q121 47 216 -23t40 -400l-47 2q11 239 -31 310t-86 61q41 -28 56.5 -395t-18.5 -916.5t-148.5 -738t-304.5 -259.5t-416.5 -22t-328 243.5t-52.5 413.5t247.5 384.5t383.5 330.5t268 492z" />
    <glyph glyph-name="uniA99A" unicode="&#xa99a;" horiz-adv-x="1699" 
d="M398 63q33 4 67.5 19.5t35 30.5t-22.5 15.5t-42.5 -16t-37.5 -49.5zM345 167q-3 -79 14 -86q27 66 76 86t88 2t34 -67.5t-65.5 -76t-125.5 -19.5q-47 4 -71.5 39.5t-26.5 108.5q-1 30 8.5 181t9.5 221q-1 70 -8.5 93t-29.5 25t-39 -15.5t-36 -66.5q-20 -59 -27 -146
t-8 -186q-2 -100 8 -178l9 -79l-27 -13q-43 91 -60 213q-18 121 -5 254t63 212q49 78 129 79q45 -1 68.5 -21t32.5 -54t10.5 -101.5t-9.5 -226.5q-10 -134 -12 -178zM1186 428q-4 96 -18.5 151.5t-53 84.5t-86.5 16q20 -18 36.5 -90.5t20.5 -152.5q3 -81 -2.5 -147.5
t-20.5 -141t-55 -110.5t-121 -39h-74l-11 23q34 112 46 211t9 195q-4 96 -18 152q-28 73 -76.5 78t-80.5 -30.5t-58 -102.5l-34 1q-7 71 -39.5 110t-123.5 8l-16 19q58 78 122.5 73.5t93.5 -77.5q33 63 84.5 80.5t109.5 -3t87 -97.5q26 -68 30 -180q4 -129 -21 -247
q-17 -81 -47 -154q52 1 77 20t42 79t21 131.5t-2 159.5q-7 88 -23 154t-48 95v23q101 33 174 16.5t112.5 -83t44.5 -194.5q4 -129 -21 -247q-17 -81 -47 -154q52 1 77 20t42 79t21 131.5t-2 159.5q-7 88 -23 154t-48 95v23q101 33 174 16.5t112.5 -83t44.5 -194.5
q4 -129 -21 -247.5t-80 -223.5l-37 16q36 130 48 229t9 195q-4 96 -18.5 151.5t-53 84.5t-86.5 16q20 -18 36.5 -90.5t20.5 -152.5q3 -81 -2.5 -147.5t-20.5 -141t-55 -110.5t-121 -39h-74l-11 23q34 112 46 211t9 195z" />
    <glyph glyph-name="uniA99B" unicode="&#xa99b;" horiz-adv-x="1049" 
d="M402 64q38 3 72.5 18.5t35 30.5t-22.5 15.5t-45 -15.5t-40 -49zM322 26q-10 8 -18 20q-25 35 -27 108q-1 30 8.5 181t9.5 221q-1 70 -8.5 93t-29.5 25t-39 -15.5t-36 -66.5q-20 -59 -27 -146t-8 -186q-2 -100 8 -178l9 -79l-27 -13q-43 91 -60 213q-18 121 -5 254t63 212
q49 78 129 79q45 -1 68.5 -21t32.5 -54t10.5 -101.5t-9.5 -226.5q-10 -134 -12 -178q-2 -58 6 -77q37 58 84 77q49 20 88 2t34 -67.5t-65.5 -76t-125.5 -19.5q-44 -123 0 -283q107 -209 417 -196t553 215l3 -24q-254 -340 -599.5 -340t-450.5 243q-32 64 -29.5 177t52.5 227
zM840.5 593q-21.5 60 -70 65t-80.5 -30.5t-58 -102.5l-34 1q-7 71 -39.5 110t-123.5 8l-16 19q58 78 122.5 73.5t93.5 -77.5q33 63 84.5 80.5t109.5 -3t87 -97.5q27 -76 17 -269q-10 -192 -81 -375l-46 13q47 179 52 352q4 173 -17.5 233z" />
    <glyph glyph-name="uniA99C" unicode="&#xa99c;" horiz-adv-x="1049" 
d="M402 64q38 3 72.5 18.5t35 30.5t-22.5 15.5t-45 -15.5t-40 -49zM322 26q-10 8 -18 20q-25 35 -27 108q-1 30 8.5 181t9.5 221q-1 70 -8.5 93t-29.5 25t-39 -15.5t-36 -66.5q-20 -59 -27 -146t-8 -186q-2 -100 8 -178l9 -79l-27 -13q-43 91 -60 213q-18 121 -5 254t63 212
q49 78 129 79q45 -1 68.5 -21t32.5 -54t10.5 -101.5t-9.5 -226.5q-10 -134 -12 -178q-2 -58 6 -77q37 58 84 77q49 20 88 2t34 -67.5t-65.5 -76t-125.5 -19.5q-44 -123 0 -283q107 -209 417 -196t553 215l3 -24q-254 -340 -599.5 -340t-450.5 243q-32 64 -29.5 177t52.5 227
zM840.5 593q-21.5 60 -70 65t-80.5 -30.5t-58 -102.5l-34 1q-7 71 -39.5 110t-123.5 8l-16 19q58 78 122.5 73.5t93.5 -77.5q33 63 84.5 80.5t109.5 -3t87 -97.5q27 -76 17 -269q-10 -192 -81 -375l-46 13q47 179 52 352q4 173 -17.5 233z" />
    <glyph glyph-name="uniA99D" unicode="&#xa99d;" horiz-adv-x="1200" 
d="M692 -3q-79 3 -105 82q-51 -66 -101.5 -76t-87.5 2t-64.5 42t-36.5 88q-11 62 -1 207.5t10 213.5q-1 70 -8.5 93t-29.5 25t-39 -15.5t-36 -66.5q-20 -59 -27 -146t-8 -186q-2 -100 8 -178l9 -79l-27 -13q-43 91 -60 213q-18 121 -5 254t63 212q49 78 129 79
q45 -1 68.5 -21t32.5 -54t10.5 -101.5t-4.5 -221.5t-3 -200t25 -68.5t60 -15t72.5 49.5t53.5 97l38 -5q5 -80 25 -114.5t70 -34.5q22 0 49 20t45 79t22 130.5t-2 159.5q-7 88 -23 154t-48 95v23q101 33 174 16.5t112.5 -83t44.5 -194.5q4 -129 -21 -247.5t-80 -223.5l-37 16
q36 130 48 229t9 195q-4 96 -18.5 151.5t-53 84.5t-86.5 16q20 -18 36.5 -90.5t20.5 -152.5q3 -81 -2.5 -147.5t-20.5 -136t-53.5 -105.5t-75.5 -44.5t-71 -6.5z" />
    <glyph glyph-name="uniA99E" unicode="&#xa99e;" horiz-adv-x="999" 
d="M692 -3q-79 3 -105 82q-51 -66 -101.5 -76t-87.5 2t-64.5 42t-36.5 88q-11 62 -1 207.5t10 213.5q-1 70 -8.5 93t-29.5 25t-39 -15.5t-36 -66.5q-20 -59 -27 -146t-8 -186q-2 -100 8 -178l9 -79l-27 -13q-43 91 -60 213q-18 121 -5 254t63 212q49 78 129 79
q45 -1 68.5 -21t32.5 -54t10.5 -101.5t-4.5 -221.5t-3 -200t25 -68.5t60 -15t72.5 49.5t53.5 97l38 -5q5 -80 25 -114.5t70 -34.5q22 0 49 20t50 79t22 170.5t-43.5 231.5t-104.5 187l14 17q108 -73 158 -200.5t49.5 -234t-20.5 -176t-58.5 -105.5t-75.5 -44.5t-71 -6.5z
" />
    <glyph glyph-name="uniA99E.alt" horiz-adv-x="999" 
d="M692 -3q-79 3 -105 82q-51 -66 -101.5 -76t-87.5 2t-64.5 42t-36.5 88q-11 62 -1 207.5t10 213.5q-1 70 -8.5 93t-29.5 25t-39 -15.5t-36 -66.5q-20 -59 -27 -146t-8 -186q-2 -100 8 -178l9 -79l-27 -13q-43 91 -60 213q-18 121 -5 254t63 212q49 78 129 79
q45 -1 68.5 -21t32.5 -54t10.5 -101.5t-4.5 -221.5t-3 -200t25 -68.5t60 -15t72.5 49.5t53.5 97l38 -5q5 -80 25 -114.5t70 -34.5q22 0 49 20t50 79t22 170.5t-43.5 231.5t-104.5 187l14 17q108 -73 158 -200.5t49.5 -234t-20.5 -176t-58.5 -105.5t-75.5 -44.5t-71 -6.5z
" />
    <glyph glyph-name="uniA99F" unicode="&#xa99f;" horiz-adv-x="1650" 
d="M525 -1l-3 39q66 94 93.5 187.5t20.5 201t-41.5 166.5t-69 77t-67.5 9t-37.5 -51t-5.5 -223q-1 -182 -16 -256.5t-50 -110.5t-106 -39h-118l-3 39q44 118 58.5 214.5t19.5 162t3.5 139.5t-14 101t-32.5 15t-32 -59.5t-14 -105t3 -142.5l-27 -13q-27 73 -34.5 166.5
t22 152.5t77 70.5t77.5 -9.5t41 -66t9 -128.5t-10 -157t-20.5 -147.5t-47.5 -173q49 1 79 20t40.5 81.5t12.5 223.5t9.5 245.5t65.5 109.5t130.5 6.5t121.5 -98t56.5 -207.5t-16.5 -216q-25 -88 -88 -164q82 3 108 19q30 19 40.5 81.5t12.5 223.5t9.5 245.5t65.5 109.5
t130.5 6.5t121.5 -98t56.5 -207.5t-17 -216t-88.5 -165q63 3 95 31t48 78t21 179t-37 351l10 27q128 29 201 12.5t113 -82.5q39 -67 44 -195q4 -129 -21 -247.5t-80 -223.5l-37 16q36 130 48 229t9 195q-4 96 -18 152q-15 55 -63.5 84t-121.5 12q38 -219 31 -336t-24 -183
t-65 -110.5t-159 -47.5h-80l-3 39q66 94 93.5 187.5t20.5 201t-41.5 166.5t-69 77t-67.5 9t-37.5 -51t-5.5 -223q-1 -182 -16 -256.5t-50 -110.5t-106 -39h-158z" />
    <glyph glyph-name="uniA9A0" unicode="&#xa9a0;" horiz-adv-x="1348" 
d="M825 428q-5 123 -22 166.5t-44 63.5t-66.5 26t-74 -2t-57.5 -28.5t-36.5 -59.5t-7 -81.5t76.5 -40.5q70 7 109 -38q37 -43 43.5 -136.5t-5.5 -148.5q-15 -75 -60 -111t-116 -39h-65q-105 2 -149.5 38t-55 98t-0.5 207.5t10 213.5q-1 70 -8.5 93t-29.5 25t-39 -15.5
t-36 -66.5q-20 -59 -27 -146t-8 -186q-2 -100 8 -178l9 -79l-27 -13q-43 91 -60 213q-18 121 -5 254t63 212q49 78 129 79q45 -1 68.5 -21t32.5 -54t10.5 -101.5t-4.5 -221.5t-3 -191.5t26.5 -67.5t95.5 -31h57q45 0 75 27q28 20 39 83q4 48 1 110t-19 98q-17 37 -75 29
q-93 -3 -122 41.5t-14.5 127.5t63 124.5t106.5 49.5t107 1.5t89.5 -30.5t67 -81t31.5 -181q-5 -261 -55 -401q49 1 74 20t42 79t21 131.5t-2 159.5q-7 88 -23 154t-48 95v23q101 33 174 16.5t112.5 -83t44.5 -194.5q4 -129 -21 -247.5t-80 -223.5l-37 16q36 130 48 229
t9 195q-4 96 -18.5 151.5t-53 84.5t-86.5 16q20 -18 36.5 -90.5t20.5 -152.5q3 -81 -2.5 -147.5t-20.5 -141t-55 -110.5t-121 -39h-90l-10 34q56 165 60 395z" />
    <glyph glyph-name="uniA9A1" unicode="&#xa9a1;" horiz-adv-x="1001" 
d="M471 -424l-19 18q68 108 85.5 145.5t-64 67.5t-78 93t70 210.5t-16.5 212.5l11 15q144 -63 92.5 -207.5t-73.5 -196t84 -80t71.5 -100t-163.5 -178.5zM897 459q4 -129 -21 -247.5t-80 -223.5l-37 16q36 130 48 229t9 195q-5 123 -22 166.5t-44 63.5t-66.5 26t-74 -2
t-57.5 -28.5t-36.5 -59.5t-7 -81.5t76.5 -40.5q70 7 109 -38q37 -43 43.5 -136.5t-5.5 -148.5q-15 -75 -60 -111t-116 -39h-65q-105 2 -149.5 38t-55 98t-0.5 207.5t10 213.5q-1 70 -8.5 93t-29.5 25t-39 -15.5t-36 -66.5q-20 -59 -27 -146t-8 -186q-2 -100 8 -178l9 -79
l-27 -13q-43 91 -60 213q-18 121 -5 254t63 212q49 78 129 79q45 -1 68.5 -21t32.5 -54t10.5 -101.5t-4.5 -221.5t-3 -191.5t26.5 -67.5t95.5 -31h57q45 0 75 27q28 20 39 83q4 48 1 110t-19 98q-17 37 -75 29q-93 -3 -122 41.5t-14.5 127.5t63 124.5t106.5 49.5t107 1.5
t89.5 -30.5t67 -81t31.5 -181z" />
    <glyph glyph-name="uniA9A2" unicode="&#xa9a2;" horiz-adv-x="1250" 
d="M438 146.5q-3 42.5 -35 141.5l21 25q97 -33 258 -156q-49 164 -46 295t28.5 196.5t78 93t164 17t170.5 -77.5t39 -285q-23 -245 -70 -406l-42 5q23 176 28 381q5 204 -26 253t-90 57t-100.5 3t-71.5 -47.5t-34.5 -205.5t41.5 -294q22 -36 46 -64t39 -51t-12.5 -34
t-57.5 10.5t-78 65.5t-114 89.5t-97 60.5q27 -81 11 -138.5t-54 -72t-82 -6.5t-68.5 43.5t-26.5 108.5q-1 30 8.5 181t9.5 221q-1 70 -8.5 93t-29.5 25t-39 -15.5t-36 -66.5q-20 -59 -27 -146t-8 -186q-2 -100 8 -178l9 -79l-27 -13q-43 91 -60 213q-18 121 -5 254t63 212
q49 78 129 79q45 -1 68.5 -21t32.5 -54t10.5 -101.5t-9.5 -226.5q-10 -134 -12 -178q-3 -89 32.5 -103.5t55 13t16.5 70z" />
    <glyph glyph-name="uniA9A3" unicode="&#xa9a3;" horiz-adv-x="1149" 
d="M776 83.5q24 23.5 35 86.5q4 48 1 110t-19 98q-17 37 -75 29q-93 -3 -122 41.5t-14.5 127.5t63 124.5t106.5 49.5t107 1.5t89.5 -30.5t67 -81t31.5 -181q4 -129 -21 -247.5t-80 -223.5l-37 16q36 130 48 229t9 195q-5 123 -22 166.5t-44 63.5t-66.5 26t-74 -2
t-57.5 -28.5t-36.5 -59.5t-7 -81.5t76.5 -40.5q70 7 109 -38q37 -43 43.5 -136.5t-5.5 -148.5q-15 -75 -63.5 -115.5t-122 -37t-99.5 82.5q-51 -66 -101.5 -76t-87.5 2t-64.5 42t-36.5 88q-11 62 -1 207.5t10 213.5q-1 70 -8.5 93t-29.5 25t-39 -15.5t-36 -66.5
q-20 -59 -27 -146t-8 -186q-2 -100 8 -178l9 -79l-27 -13q-43 91 -60 213q-18 121 -5 254t63 212q49 78 129 79q45 -1 68.5 -21t32.5 -54t10.5 -101.5t-4.5 -221.5t-3 -200t25 -68.5t60 -15t72.5 49.5t53.5 97l38 -5q5 -80 29 -123q15 -26 50.5 -25.5t59.5 24z" />
    <glyph glyph-name="uniA9A4" unicode="&#xa9a4;" horiz-adv-x="1052" 
d="M357 203q74 -6 123 -21q-42 118 -39.5 247.5t49.5 216.5q60 112 193.5 113t186.5 -73q64 -68 54 -265q-19 -243 -70 -426l-37 12q18 180 24 379q2 175 -30 239q-33 57 -125.5 57.5t-131.5 -80.5q-37 -84 -34 -209.5t23 -186.5t65 -111.5t41.5 -75.5t-34 -21.5t-54.5 31.5
t-72.5 72.5t-135.5 54.5q-4 -32 -22 -160l-43 3q3 146 6 317q3 170 3 240q-1 70 -8.5 93t-29.5 25t-39 -15.5t-36 -66.5q-20 -59 -27 -146t-8 -186q-2 -100 8 -178l9 -79l-27 -13q-43 91 -60 213q-18 121 -5 254t63 212q49 78 129 79q45 -1 68.5 -21t32.5 -54t10.5 -101.5
t-9.5 -226.5q-5 -79 -11 -142z" />
    <glyph glyph-name="uniA9A5" unicode="&#xa9a5;" horiz-adv-x="1048" 
d="M470 -1q-105 2 -149.5 38t-55 98t-0.5 207.5t10 213.5q-1 70 -8.5 93t-29.5 25t-39 -15.5t-36 -66.5q-20 -59 -27 -146t-8 -186q-2 -100 8 -178l9 -79l-27 -13q-43 91 -60 213q-18 121 -5 254t63 212q49 78 129 79q45 -1 68.5 -21t32.5 -54t10.5 -101.5t-4.5 -221.5
t-3 -191.5t26.5 -67.5t95.5 -31h77q43 3 66 20q25 19 43 78t22 130.5t-2 159.5q-7 88 -23 154t-48 95v23q101 33 174 16.5t112.5 -83t44.5 -194.5q4 -129 -21 -247.5t-80 -223.5l-37 16q36 130 48 229t9 195q-4 96 -18.5 151.5t-53 84.5t-86.5 16q20 -18 36.5 -90.5
t20.5 -152.5q3 -81 -2.5 -147.5t-20.5 -136t-55 -110.5t-121 -44h-85z" />
    <glyph glyph-name="uniA9A6" unicode="&#xa9a6;" horiz-adv-x="1299" 
d="M808 59q100 36 208.5 197t137 309t-55 101.5t-163.5 -218t-127 -389.5zM761.5 181.5q46.5 167.5 142.5 352t207.5 206.5t118 -91.5t-56 -254t-165 -259t-210.5 -138.5q-36 -358 114.5 -518.5t460.5 -139.5t553 203l3 -24q-241 -313 -591.5 -334.5t-491 146.5t-136 426
t51 425.5zM484 66.5q38 7.5 72.5 49.5t53.5 97l38 -5q5 -80 28.5 -123t99.5 -37l7 -49q-26 -6 -51 -6q-106 0 -125 86q-51 -66 -101.5 -76t-87.5 2t-64.5 42t-36.5 88q-11 62 -1 207.5t10 213.5q-1 70 -8.5 93t-29.5 25t-39 -15.5t-36 -66.5q-20 -59 -27 -146t-8 -186
q-2 -100 8 -178l9 -79l-27 -13q-43 91 -60 213q-18 121 -5 254t63 212q49 78 129 79q45 -1 68.5 -21t32.5 -54t10.5 -101.5t-4.5 -221.5t-3 -200t25 -68.5t60 -15z" />
    <glyph glyph-name="uniA9A6.alt" horiz-adv-x="1299" 
d="M808 59q100 36 208.5 197t137 309t-55 101.5t-163.5 -218t-127 -389.5zM761.5 181.5q46.5 167.5 142.5 352t207.5 206.5t118 -91.5t-56 -254t-165 -259t-210.5 -138.5q-36 -358 114.5 -518.5t460.5 -139.5t553 203l3 -24q-241 -313 -591.5 -334.5t-491 146.5t-136 426
t51 425.5zM484 66.5q38 7.5 72.5 49.5t53.5 97l38 -5q5 -80 28.5 -123t99.5 -37l7 -49q-26 -6 -51 -6q-106 0 -125 86q-51 -66 -101.5 -76t-87.5 2t-64.5 42t-36.5 88q-11 62 -1 207.5t10 213.5q-1 70 -8.5 93t-29.5 25t-39 -15.5t-36 -66.5q-20 -59 -27 -146t-8 -186
q-2 -100 8 -178l9 -79l-27 -13q-43 91 -60 213q-18 121 -5 254t63 212q49 78 129 79q45 -1 68.5 -21t32.5 -54t10.5 -101.5t-4.5 -221.5t-3 -200t25 -68.5t60 -15z" />
    <glyph glyph-name="uniA9A7" unicode="&#xa9a7;" horiz-adv-x="1350" 
d="M377 63q33 4 67.5 19.5t35 30.5t-22.5 15.5t-42.5 -16t-37.5 -49.5zM324 167q-3 -79 14 -86q27 66 76 86t88 2t34 -67.5t-65.5 -76t-125.5 -19.5q-47 4 -71.5 39.5t-26.5 108.5q-1 30 8.5 181t9.5 221q-1 70 -8.5 93t-29.5 25t-39 -15.5t-36 -66.5q-20 -59 -27 -146
t-8 -186q-2 -100 8 -178l9 -79l-27 -13q-43 91 -60 213q-18 121 -5 254t63 212q49 78 129 79q45 -1 68.5 -21t32.5 -54t10.5 -101.5t-9.5 -226.5q-10 -134 -12 -178zM848 58q52 1 77 20t42 79t21 131.5t-2 159.5q-7 88 -23 154t-48 95v23q101 33 174 16.5t112.5 -83
t44.5 -194.5q4 -129 -21 -247.5t-80 -223.5l-37 16q36 130 48 229t9 195q-4 96 -18.5 151.5t-53 84.5t-86.5 16q20 -18 36.5 -90.5t20.5 -152.5q3 -81 -2.5 -147.5t-20.5 -141t-55 -110.5t-121 -39h-74l-11 23q34 112 46 211t9 195q-4 96 -18 152q-28 73 -76.5 78
t-80.5 -30.5t-58 -102.5l-34 1q-7 71 -39.5 110t-123.5 8l-16 19q58 78 122.5 73.5t93.5 -77.5q33 63 84.5 80.5t109.5 -3t87 -97.5q26 -68 30 -180q4 -129 -21 -247q-17 -81 -47 -154z" />
    <glyph glyph-name="uniA9A8" unicode="&#xa9a8;" horiz-adv-x="749" 
d="M122 67q30 -5 59 127q-57 -5 -73 -63.5t14 -63.5zM380 182q-42 118 -39.5 247.5t49.5 216.5q60 112 178.5 113t146.5 -101t-90 -242l-29 17q49 113 45.5 181t-76 68.5t-111.5 -80.5q-37 -84 -34 -209.5t23 -186.5t65 -111.5t41.5 -75.5t-34 -21.5t-54.5 31.5t-72 73
q-46 41 -136 92v-3q-37 -198 -133 -192q-93 8 -74.5 124.5t148.5 135.5q14 81 18.5 151t3 144t-14 101t-32.5 15t-32 -59.5t-14 -105t3 -142.5l-27 -13q-27 73 -34.5 166.5t22 152.5t77 70.5t77.5 -9.5t41 -66t9 -128.5t-10 -157t-17 -122.5q68 -31 116 -74z" />
    <glyph glyph-name="uniA9A8.alt" horiz-adv-x="749" 
d="M122 67q30 -5 59 127q-57 -5 -73 -63.5t14 -63.5zM380 182q-42 118 -39.5 247.5t49.5 216.5q60 112 178.5 113t146.5 -101t-90 -242l-29 17q49 113 45.5 181t-76 68.5t-111.5 -80.5q-37 -84 -34 -209.5t23 -186.5t65 -111.5t41.5 -75.5t-34 -21.5t-54.5 31.5t-72 73
q-46 41 -136 92v-3q-37 -198 -133 -192q-93 8 -74.5 124.5t148.5 135.5q14 81 18.5 151t3 144t-14 101t-32.5 15t-32 -59.5t-14 -105t3 -142.5l-27 -13q-27 73 -34.5 166.5t22 152.5t77 70.5t77.5 -9.5t41 -66t9 -128.5t-10 -157t-17 -122.5q68 -31 116 -74z" />
    <glyph glyph-name="uniA9A9" unicode="&#xa9a9;" horiz-adv-x="1051" 
d="M382 -1q-175 -1 -185 118t106.5 196.5t24.5 116t-84.5 123.5t117.5 129q-67 1 -117 -15.5t-70 -75t-27 -145.5t-8.5 -186.5t17.5 -256.5l-27 -13q-43 91 -60.5 212.5t-4.5 254.5t62.5 201.5t168.5 82.5t280 -23l-21 -48q-81 5 -153.5 -37.5t-73 -86t66.5 -74t60 -86
t-92.5 -115.5t-88 -131.5t108.5 -79.5h177q43 3 66 20q25 19 43 78t22 130.5t-2 159.5q-7 88 -23 154t-48 95v23q101 33 174 16.5t112.5 -83t44.5 -194.5q4 -129 -21 -247.5t-80 -223.5l-37 16q36 130 48 229t9 195q-4 96 -18.5 151.5t-53 84.5t-86.5 16q20 -18 36.5 -90.5
t20.5 -152.5q3 -81 -2.5 -147.5t-20.5 -136t-55 -110.5t-121 -44h-185z" />
    <glyph glyph-name="uniA9AA" unicode="&#xa9aa;" horiz-adv-x="1649" 
d="M866.5 579.5q-14.5 55.5 -53 84.5t-86.5 16q20 -18 36.5 -90.5t20.5 -152.5q3 -81 -2.5 -147.5t-20.5 -136t-55 -110.5t-121 -44h-85q-105 2 -149.5 38t-55 98t-0.5 207.5t10 213.5q-1 70 -8.5 93t-29.5 25t-39 -15.5t-36 -66.5q-20 -59 -27 -146t-8 -186q-2 -100 8 -178
l9 -79l-27 -13q-43 91 -60 213q-18 121 -5 254t63 212q49 78 129 79q45 -1 68.5 -21t32.5 -54t10.5 -101.5t-4.5 -221.5t-3 -191.5t26.5 -67.5t95.5 -31h77q43 3 66 20q25 19 43 78t22 130.5t-2 159.5q-7 88 -23 154t-48 95v23q101 33 174 16.5t112.5 -83t36.5 -262t0 -233
t26.5 -67.5t95.5 -31h77q43 3 66 20q25 19 43 78t22 130.5t-2 159.5q-7 88 -23 154t-48 95v23q101 33 174 16.5t112.5 -83t44.5 -194.5q4 -129 -21 -247.5t-80 -223.5l-37 16q36 130 48 229t9 195q-4 96 -18.5 151.5t-53 84.5t-86.5 16q20 -18 36.5 -90.5t20.5 -152.5
q3 -81 -2.5 -147.5t-20.5 -136t-55 -110.5t-121 -44h-85q-105 2 -149.5 38t-55 98t-2.5 225.5t-6.5 219z" />
    <glyph glyph-name="uniA9AB" unicode="&#xa9ab;" horiz-adv-x="849" 
d="M241 58h10q63 3 95 31t48 78t21 179t-37 351l10 27q128 29 201 12.5t113 -82.5q39 -67 44 -195q4 -129 -21 -247.5t-80 -223.5l-37 16q36 130 48 229t9 195q-4 96 -18 152q-15 55 -63.5 84t-121.5 12q38 -219 31 -336t-24 -183t-65 -110.5t-159 -47.5h-80l-3 39
q44 118 58.5 214.5t19.5 162t3.5 139.5t-14 101t-32.5 15t-32 -59.5t-14 -105t3 -142.5l-27 -13q-27 73 -34.5 166.5t22 152.5t77 70.5t77.5 -9.5t41 -66t9 -128.5t-10 -157t-20.5 -147.5t-47.5 -173z" />
    <glyph glyph-name="uniA9AC" unicode="&#xa9ac;" horiz-adv-x="1814" 
d="M1462 59h20q42 0 89 20t85 79t37 170.5t-43.5 231.5t-104.5 187l14 17q108 -73 158 -200.5t49.5 -234t-28 -175.5t-90 -108.5t-163.5 -45.5h-88l-13 47q74 173 81 381q-4 96 -18 152q-15 55 -63.5 84t-121.5 12q38 -219 31 -336t-24 -183t-65 -110.5t-159 -47.5h-80
l-3 39q66 94 93.5 187.5t20.5 201t-41.5 166.5t-69 77t-67.5 9t-37.5 -51t-5.5 -223q-1 -182 -16 -256.5t-50 -110.5t-106 -39h-158l-3 39q66 94 93.5 187.5t20.5 201t-41.5 166.5t-69 77t-67.5 9t-37.5 -51t-5.5 -223q-1 -182 -16 -256.5t-50 -110.5t-106 -39h-118l-3 39
q44 118 58.5 214.5t19.5 162t3.5 139.5t-14 101t-32.5 15t-32 -59.5t-14 -105t3 -142.5l-27 -13q-27 73 -34.5 166.5t22 152.5t77 70.5t77.5 -9.5t41 -66t9 -128.5t-10 -157t-20.5 -147.5t-47.5 -173q49 1 79 20t40.5 81.5t12.5 223.5t9.5 245.5t65.5 109.5t130.5 6.5
t121.5 -98t56.5 -207.5t-16.5 -216q-25 -88 -88 -164q82 3 108 19q30 19 40.5 81.5t12.5 223.5t9.5 245.5t65.5 109.5t130.5 6.5t121.5 -98t56.5 -207.5t-17 -216t-88.5 -165q63 3 95 31t48 78t21 179t-37 351l10 27q128 29 201 12.5t113 -82.5q39 -67 44 -195
q4 -129 -16.5 -219.5t-67.5 -180.5z" />
    <glyph glyph-name="uniA9AC.alt" horiz-adv-x="1809" 
d="M1462 59h20q42 0 89 20t85 79t37 170.5t-43.5 231.5t-104.5 187l14 17q108 -73 158 -200.5t49.5 -234t-28 -175.5t-90 -108.5t-163.5 -45.5h-88l-13 47q74 173 81 381q-4 96 -18 152q-15 55 -63.5 84t-121.5 12q38 -219 31 -336t-24 -183t-65 -110.5t-159 -47.5h-80
l-3 39q66 94 93.5 187.5t20.5 201t-41.5 166.5t-69 77t-67.5 9t-37.5 -51t-5.5 -223q-1 -182 -16 -256.5t-50 -110.5t-106 -39h-158l-3 39q66 94 93.5 187.5t20.5 201t-41.5 166.5t-69 77t-67.5 9t-37.5 -51t-5.5 -223q-1 -182 -16 -256.5t-50 -110.5t-106 -39h-118l-3 39
q44 118 58.5 214.5t19.5 162t3.5 139.5t-14 101t-32.5 15t-32 -59.5t-14 -105t3 -142.5l-27 -13q-27 73 -34.5 166.5t22 152.5t77 70.5t77.5 -9.5t41 -66t9 -128.5t-10 -157t-20.5 -147.5t-47.5 -173q49 1 79 20t40.5 81.5t12.5 223.5t9.5 245.5t65.5 109.5t130.5 6.5
t121.5 -98t56.5 -207.5t-16.5 -216q-25 -88 -88 -164q82 3 108 19q30 19 40.5 81.5t12.5 223.5t9.5 245.5t65.5 109.5t130.5 6.5t121.5 -98t56.5 -207.5t-17 -216t-88.5 -165q63 3 95 31t48 78t21 179t-37 351l10 27q128 29 201 12.5t113 -82.5q39 -67 44 -195
q4 -129 -16.5 -219.5t-67.5 -180.5z" />
    <glyph glyph-name="uniA9AD" unicode="&#xa9ad;" horiz-adv-x="1500" 
d="M834 35q-48 43 -40.5 143t17.5 179.5t-0.5 159t-45 124.5t-103.5 50t-60 -55.5t21.5 -151t3 -223.5t-44 -195.5t-85.5 -71t-83.5 39t-13.5 174t9.5 257.5t-41.5 171t-93.5 33.5t-91 -71t-36 -174.5t14.5 -220t65 -197l-29 -17q-80 73 -107.5 203t-17 254.5t55.5 204
t144 89.5t155 -50t62 -210.5t-13 -274.5t3.5 -141t49.5 55t27 192.5t-26 252.5t18 165t130.5 25.5t145.5 -66t70 -160t-11 -254t2.5 -183t63.5 -32.5h58q43 3 66 20q25 19 43 78t22 130.5t-2 159.5q-7 88 -23 154t-48 95v23q101 33 174 16.5t112.5 -83t44.5 -194.5
q4 -129 -21 -247.5t-80 -223.5l-37 16q36 130 48 229t9 195q-4 96 -18.5 151.5t-53 84.5t-86.5 16q20 -18 36.5 -90.5t20.5 -152.5q3 -81 -2.5 -147.5t-20.5 -136t-55 -110.5t-121 -44h-65q-80 2 -117 36z" />
    <glyph glyph-name="uniA9AE" unicode="&#xa9ae;" horiz-adv-x="1001" 
d="M898 459q4 -129 -21 -247.5t-80 -223.5l-37 16q36 130 48 229t9 195q-5 123 -22 166.5t-44 63.5t-66.5 26t-74 -2t-57.5 -28.5t-36.5 -59.5t-7 -81.5t76.5 -40.5q70 7 109 -38q37 -43 43.5 -136.5t-5.5 -148.5q-15 -75 -60 -111t-116 -39h-65q-105 2 -149.5 38t-55 98
t-0.5 207.5t10 213.5q-1 70 -8.5 93t-29.5 25t-39 -15.5t-36 -66.5q-20 -59 -27 -146t-8 -186q-2 -100 8 -178l9 -79l-27 -13q-43 91 -60 213q-18 121 -5 254t63 212q49 78 129 79q45 -1 68.5 -21t32.5 -54t10.5 -101.5t-4.5 -221.5t-3 -191.5t26.5 -67.5t95.5 -31h57
q45 0 75 27q28 20 39 83q4 48 1 110t-19 98q-17 37 -75 29q-93 -3 -122 41.5t-14.5 127.5t63 124.5t106.5 49.5t107 1.5t89.5 -30.5t67 -81t31.5 -181z" />
    <glyph glyph-name="uniA9AF" unicode="&#xa9af;" horiz-adv-x="1250" 
d="M434 -138q214 62 415.5 -65t219.5 -491l-28 -20q-102 218 -259 366t-348 182v28zM241 58q49 1 79 20t40.5 81.5t12.5 223.5t9.5 245.5t65.5 109.5t130.5 6.5t121.5 -98t56.5 -207.5t-17 -216t-88.5 -165q63 3 95 31t48 78t21 179t-37 351l10 27q128 29 201 12.5
t113 -82.5q39 -67 44 -195q4 -129 -21 -247.5t-80 -223.5l-37 16q36 130 48 229t9 195q-4 96 -18 152q-15 55 -63.5 84t-121.5 12q38 -219 31 -336t-24 -183t-65 -110.5t-159 -47.5h-80l-3 39q66 94 93.5 187.5t20.5 201t-41.5 166.5t-69 77t-67.5 9t-37.5 -51t-5.5 -223
q-1 -182 -16 -256.5t-50 -110.5t-106 -39h-118l-3 39q44 118 58.5 214.5t19.5 162t3.5 139.5t-14 101t-32.5 15t-32 -59.5t-14 -105t3 -142.5l-27 -13q-27 73 -34.5 166.5t22 152.5t77 70.5t77.5 -9.5t41 -66t9 -128.5t-10 -157t-20.5 -147.5t-47.5 -173z" />
    <glyph glyph-name="uniA9B0" unicode="&#xa9b0;" horiz-adv-x="1048" 
d="M662 171q-105 231 -152.5 267t-99.5 -7l-18 23q63 88 139.5 51.5t164.5 -328.5zM470 -1q-105 2 -149.5 38t-55 98t-0.5 207.5t10 213.5q-1 70 -8.5 93t-29.5 25t-39 -15.5t-36 -66.5q-20 -59 -27 -146t-8 -186q-2 -100 8 -178l9 -79l-27 -13q-43 91 -60 213
q-18 121 -5 254t63 212q49 78 129 79q45 -1 68.5 -21t32.5 -54t10.5 -101.5t-4.5 -221.5t-3 -191.5t26.5 -67.5t95.5 -31h77q43 3 66 20q25 19 43 78t22 130.5t-2 159.5q-7 88 -23 154t-48 95v23q101 33 174 16.5t112.5 -83t44.5 -194.5q4 -129 -21 -247.5t-80 -223.5
l-37 16q36 130 48 229t9 195q-4 96 -18.5 151.5t-53 84.5t-86.5 16q20 -18 36.5 -90.5t20.5 -152.5q3 -81 -2.5 -147.5t-20.5 -136t-55 -110.5t-121 -44h-85z" />
    <glyph glyph-name="uniA9B1" unicode="&#xa9b1;" horiz-adv-x="1051" 
d="M122 67q30 -5 59 127q-57 -5 -73 -63.5t14 -63.5zM635.5 80q16.5 17 33.5 77t21 131.5t-2 159.5q-7 88 -23 154t-48 95v23q101 33 174 16.5t112.5 -83t44.5 -194.5q4 -129 -21 -247.5t-80 -223.5l-37 16q36 130 48 229t9 195q-4 96 -18.5 151.5t-53 84.5t-86.5 16
q20 -18 36.5 -90.5t20.5 -152.5q3 -81 -2.5 -147.5t-20.5 -138t-51 -109.5t-78 -43q-75 -10 -191 88.5t-170 103.5q-37 -198 -133 -192q-93 8 -74.5 124.5t148.5 135.5q14 81 18.5 151t3 144t-14 101t-32.5 15t-32 -59.5t-14 -105t3 -142.5l-27 -13q-27 73 -34.5 166.5
t22 152.5t77 70.5t77.5 -9.5t41 -66t9 -128.5t-10 -157t-17 -122.5q69 -5 181.5 -95t150.5 -95q23 -3 39.5 14z" />
    <glyph glyph-name="uniA9B2" unicode="&#xa9b2;" horiz-adv-x="1350" 
d="M201.5 410q4.5 70 8 144t-9 101t-32.5 15t-32 -59.5t-14 -105t3 -142.5l-27 -13q-27 73 -34.5 166.5t22 152.5t77 70.5t77.5 -9.5t41 -66t9 -128.5t-10 -156.5q-8 -70 -9.5 -149.5t31.5 -120t90 -41.5q69 1 107 25t55.5 76.5t4.5 213.5t-5.5 245.5t65.5 109.5t130.5 6.5
t121.5 -98t56.5 -207.5t-16.5 -216q-25 -88 -89 -165h30q49 1 74 20t42 79t21 131.5t-2 159.5q-7 88 -23 154t-48 95v23q101 33 174 16.5t112.5 -83t44.5 -194.5q4 -129 -21 -247.5t-80 -223.5l-37 16q36 130 48 229t9 195q-4 96 -18.5 151.5t-53 84.5t-86.5 16
q20 -18 36.5 -90.5t20.5 -152.5q3 -81 -2.5 -147.5t-20.5 -141t-55 -110.5t-121 -39h-130l-3 39q66 94 93.5 187.5t20.5 201t-41.5 166.5t-69 77t-67.5 9t-37.5 -51t9.5 -223.5t-11 -256t-80 -110.5t-154 -39q-115 3 -164 66.5t-42 169t11.5 175.5z" />
    <glyph glyph-name="uniA9B3" unicode="&#xa9b3;" 
d="M-475.5 1011.5q33.5 12.5 41.5 41.5l29 -4q-6 -108 -94 -113q-109 -5 -118 125l23 12q22 -38 53.5 -56t65 -5.5zM-775.5 1011.5q33.5 12.5 41.5 41.5l29 -4q-6 -108 -94 -113q-109 -5 -118 125l23 12q22 -38 53.5 -56t65 -5.5zM-625.5 1211.5q33.5 12.5 41.5 41.5l29 -4
q-6 -108 -94 -113q-109 -5 -118 125l23 12q22 -38 53.5 -56t65 -5.5z" />
    <glyph glyph-name="uniA9B3_uniA980" unicode="&#xe051;" 
d="M-475.5 1011.5q33.5 12.5 41.5 41.5l29 -4q-6 -108 -94 -113q-109 -5 -118 125l23 12q22 -38 53.5 -56t65 -5.5zM-775.5 1011.5q33.5 12.5 41.5 41.5l29 -4q-6 -108 -94 -113q-109 -5 -118 125l23 12q22 -38 53.5 -56t65 -5.5zM-625.5 1211.5q33.5 12.5 41.5 41.5l29 -4
q-6 -108 -94 -113q-109 -5 -118 125l23 12q22 -38 53.5 -56t65 -5.5zM-475.5 1011.5q33.5 12.5 41.5 41.5l29 -4q-6 -108 -94 -113q-109 -5 -118 125l23 12q22 -38 53.5 -56t65 -5.5zM-775.5 1011.5q33.5 12.5 41.5 41.5l29 -4q-6 -108 -94 -113q-109 -5 -118 125l23 12
q22 -38 53.5 -56t65 -5.5zM-625.5 1211.5q33.5 12.5 41.5 41.5l29 -4q-6 -108 -94 -113q-109 -5 -118 125l23 12q22 -38 53.5 -56t65 -5.5zM-416 1495q-80 -128 -219 -123t-157 187l29 13q47 -87 127 -110.5t200 51.5zM-582 1537q1 85 7 174q-33 -12 -36.5 -93.5
t51.5 -126.5l-23 -17q-123 59 -98 184t164 141l15 -23q-11 -86 -49 -241z" />
    <glyph glyph-name="uniA9B3_uniA981" unicode="&#xe052;" 
d="M-475.5 1011.5q33.5 12.5 41.5 41.5l29 -4q-6 -108 -94 -113q-109 -5 -118 125l23 12q22 -38 53.5 -56t65 -5.5zM-775.5 1011.5q33.5 12.5 41.5 41.5l29 -4q-6 -108 -94 -113q-109 -5 -118 125l23 12q22 -38 53.5 -56t65 -5.5zM-625.5 1211.5q33.5 12.5 41.5 41.5l29 -4
q-6 -108 -94 -113q-109 -5 -118 125l23 12q22 -38 53.5 -56t65 -5.5zM-918 1546q100 48 189 8t107 -222l-29 -13q-47 107 -92 145.5t-175 53.5v28z" />
    <glyph glyph-name="uniA9B3_uniA982" unicode="&#xe053;" 
d="M1783 1864l-34 -17q-213 250 -660 316.5t-801 -234.5t-674 -1027l-40 11q290 757 660 1076t859 276t690 -401zM-575.5 1011.5q33.5 12.5 41.5 41.5l29 -4q-6 -108 -94 -113q-109 -5 -118 125l23 12q22 -38 53.5 -56t65 -5.5zM-875.5 1011.5q33.5 12.5 41.5 41.5l29 -4
q-6 -108 -94 -113q-109 -5 -118 125l23 12q22 -38 53.5 -56t65 -5.5zM-725.5 1211.5q33.5 12.5 41.5 41.5l29 -4q-6 -108 -94 -113q-109 -5 -118 125l23 12q22 -38 53.5 -56t65 -5.5z" />
    <glyph glyph-name="uniA9B3_uniA9B6" unicode="&#xe054;" 
d="M-187 1060l15 -15q-122 -136 -301 -128t-224 168t58.5 352t312.5 224.5t302.5 -164.5t-47.5 -553l-39 13q79 361 12 500t-224.5 124t-241 -166t-65 -288t158.5 -153.5t283 86.5zM-805.5 1011.5q33.5 12.5 41.5 41.5l29 -4q-6 -108 -94 -113q-109 -5 -118 125l23 12
q22 -38 53.5 -56t65 -5.5zM-1105.5 1011.5q33.5 12.5 41.5 41.5l29 -4q-6 -108 -94 -113q-109 -5 -118 125l23 12q22 -38 53.5 -56t65 -5.5zM-955.5 1211.5q33.5 12.5 41.5 41.5l29 -4q-6 -108 -94 -113q-109 -5 -118 125l23 12q22 -38 53.5 -56t65 -5.5z" />
    <glyph glyph-name="uniA9B3_uniA9B6_uniA980" unicode="&#xe055;" 
d="M-787 1060l15 -15q-122 -136 -301 -128t-224 168t58.5 352t312.5 224.5t302.5 -164.5t-47.5 -553l-39 13q79 361 12 500t-224.5 124t-241 -166t-65 -288t158.5 -153.5t283 86.5zM-1455.5 1011.5q33.5 12.5 41.5 41.5l29 -4q-6 -108 -94 -113q-109 -5 -118 125l23 12
q22 -38 53.5 -56t65 -5.5zM-1755.5 1011.5q33.5 12.5 41.5 41.5l29 -4q-6 -108 -94 -113q-109 -5 -118 125l23 12q22 -38 53.5 -56t65 -5.5zM-1605.5 1211.5q33.5 12.5 41.5 41.5l29 -4q-6 -108 -94 -113q-109 -5 -118 125l23 12q22 -38 53.5 -56t65 -5.5zM-172 1095
q-80 -128 -219 -123t-157 187l29 13q47 -87 127 -110.5t200 51.5zM-338 1137q1 85 7 174q-33 -12 -36.5 -93.5t51.5 -126.5l-23 -17q-123 59 -98 184t164 141l15 -23q-11 -86 -49 -241z" />
    <glyph glyph-name="uniA9B3_uniA9B6_uniA981" unicode="&#xe056;" 
d="M-687 1060l15 -15q-122 -136 -301 -128t-224 168t58.5 352t312.5 224.5t302.5 -164.5t-47.5 -553l-39 13q79 361 12 500t-224.5 124t-241 -166t-65 -288t158.5 -153.5t283 86.5zM-428 1146q100 48 189 8t107 -222l-29 -13q-47 107 -92 145.5t-175 53.5v28z
M-1355.5 1011.5q33.5 12.5 41.5 41.5l29 -4q-6 -108 -94 -113q-109 -5 -118 125l23 12q22 -38 53.5 -56t65 -5.5zM-1655.5 1011.5q33.5 12.5 41.5 41.5l29 -4q-6 -108 -94 -113q-109 -5 -118 125l23 12q22 -38 53.5 -56t65 -5.5zM-1505.5 1211.5q33.5 12.5 41.5 41.5l29 -4
q-6 -108 -94 -113q-109 -5 -118 125l23 12q22 -38 53.5 -56t65 -5.5z" />
    <glyph glyph-name="uniA9B3_uniA9B6_uniA982" unicode="&#xe057;" 
d="M-687 1060l15 -15q-122 -136 -301 -128t-224 168t58.5 352t312.5 224.5t302.5 -164.5t-47.5 -553l-39 13q79 361 12 500t-224.5 124t-241 -166t-65 -288t158.5 -153.5t283 86.5zM1783 1864l-34 -17q-213 250 -660 316.5t-801 -234.5t-674 -1027l-40 11q290 757 660 1076
t859 276t690 -401zM-1355.5 1011.5q33.5 12.5 41.5 41.5l29 -4q-6 -108 -94 -113q-109 -5 -118 125l23 12q22 -38 53.5 -56t65 -5.5zM-1655.5 1011.5q33.5 12.5 41.5 41.5l29 -4q-6 -108 -94 -113q-109 -5 -118 125l23 12q22 -38 53.5 -56t65 -5.5zM-1505.5 1211.5
q33.5 12.5 41.5 41.5l29 -4q-6 -108 -94 -113q-109 -5 -118 125l23 12q22 -38 53.5 -56t65 -5.5z" />
    <glyph glyph-name="uniA9B3_uniA9B7" unicode="&#xe058;" 
d="M-187 1060l15 -15q-122 -136 -301 -128t-224 168t58.5 352t312.5 224.5t302.5 -164.5t-47.5 -553l-39 13q79 361 12 500t-224.5 124t-241 -166t-65 -288t158.5 -153.5t283 86.5zM-468 1346q100 48 189 8t107 -222l-29 -13q-47 107 -92 145.5t-175 53.5v28zM-875.5 1011.5
q33.5 12.5 41.5 41.5l29 -4q-6 -108 -94 -113q-109 -5 -118 125l23 12q22 -38 53.5 -56t65 -5.5zM-1175.5 1011.5q33.5 12.5 41.5 41.5l29 -4q-6 -108 -94 -113q-109 -5 -118 125l23 12q22 -38 53.5 -56t65 -5.5zM-1025.5 1211.5q33.5 12.5 41.5 41.5l29 -4
q-6 -108 -94 -113q-109 -5 -118 125l23 12q22 -38 53.5 -56t65 -5.5z" />
    <glyph glyph-name="uniA9B3_uniA9B7_uniA980" unicode="&#xe059;" 
d="M-787 1060l15 -15q-122 -136 -301 -128t-224 168t58.5 352t312.5 224.5t302.5 -164.5t-47.5 -553l-39 13q79 361 12 500t-224.5 124t-241 -166t-65 -288t158.5 -153.5t283 86.5zM-1068 1346q100 48 189 8t107 -222l-29 -13q-47 107 -92 145.5t-175 53.5v28z
M-1455.5 1011.5q33.5 12.5 41.5 41.5l29 -4q-6 -108 -94 -113q-109 -5 -118 125l23 12q22 -38 53.5 -56t65 -5.5zM-1755.5 1011.5q33.5 12.5 41.5 41.5l29 -4q-6 -108 -94 -113q-109 -5 -118 125l23 12q22 -38 53.5 -56t65 -5.5zM-1605.5 1211.5q33.5 12.5 41.5 41.5l29 -4
q-6 -108 -94 -113q-109 -5 -118 125l23 12q22 -38 53.5 -56t65 -5.5zM-172 1095q-80 -128 -219 -123t-157 187l29 13q47 -87 127 -110.5t200 51.5zM-338 1137q1 85 7 174q-33 -12 -36.5 -93.5t51.5 -126.5l-23 -17q-123 59 -98 184t164 141l15 -23q-11 -86 -49 -241z" />
    <glyph glyph-name="uniA9B3_uniA9B7_uniA981" unicode="&#xe05a;" 
d="M-687 1060l15 -15q-122 -136 -301 -128t-224 168t58.5 352t312.5 224.5t302.5 -164.5t-47.5 -553l-39 13q79 361 12 500t-224.5 124t-241 -166t-65 -288t158.5 -153.5t283 86.5zM-968 1346q100 48 189 8t107 -222l-29 -13q-47 107 -92 145.5t-175 53.5v28zM-368 1146
q100 48 189 8t107 -222l-29 -13q-47 107 -92 145.5t-175 53.5v28zM-1355.5 1011.5q33.5 12.5 41.5 41.5l29 -4q-6 -108 -94 -113q-109 -5 -118 125l23 12q22 -38 53.5 -56t65 -5.5zM-1655.5 1011.5q33.5 12.5 41.5 41.5l29 -4q-6 -108 -94 -113q-109 -5 -118 125l23 12
q22 -38 53.5 -56t65 -5.5zM-1505.5 1211.5q33.5 12.5 41.5 41.5l29 -4q-6 -108 -94 -113q-109 -5 -118 125l23 12q22 -38 53.5 -56t65 -5.5z" />
    <glyph glyph-name="uniA9B3_uniA9B7_uniA982" unicode="&#xe05b;" 
d="M-587 1060l15 -15q-122 -136 -301 -128t-224 168t58.5 352t312.5 224.5t302.5 -164.5t-47.5 -553l-39 13q79 361 12 500t-224.5 124t-241 -166t-65 -288t158.5 -153.5t283 86.5zM-868 1346q100 48 189 8t107 -222l-29 -13q-47 107 -92 145.5t-175 53.5v28zM1883 1864
l-34 -17q-213 250 -660 316.5t-801 -234.5t-674 -1027l-40 11q290 757 660 1076t859 276t690 -401zM-1255.5 1011.5q33.5 12.5 41.5 41.5l29 -4q-6 -108 -94 -113q-109 -5 -118 125l23 12q22 -38 53.5 -56t65 -5.5zM-1555.5 1011.5q33.5 12.5 41.5 41.5l29 -4
q-6 -108 -94 -113q-109 -5 -118 125l23 12q22 -38 53.5 -56t65 -5.5zM-1405.5 1211.5q33.5 12.5 41.5 41.5l29 -4q-6 -108 -94 -113q-109 -5 -118 125l23 12q22 -38 53.5 -56t65 -5.5z" />
    <glyph glyph-name="uniA9B3_uniA9BC" unicode="&#xe05c;" 
d="M-1070.5 1219.5q223.5 -235.5 614.5 -308.5l-1 -38q-448 56 -690 306t-194.5 615t325.5 594t703 215.5t654 -228t200.5 -564t-307.5 -526.5t-629.5 -122t-407.5 348l23 14q106 -228 394.5 -262.5t559.5 122.5t289.5 471t-206 497t-602.5 194.5t-631 -211t-285.5 -552
t191 -565zM-1465.5 1011.5q33.5 12.5 41.5 41.5l29 -4q-6 -108 -94 -113q-109 -5 -118 125l23 12q22 -38 53.5 -56t65 -5.5zM-1765.5 1011.5q33.5 12.5 41.5 41.5l29 -4q-6 -108 -94 -113q-109 -5 -118 125l23 12q22 -38 53.5 -56t65 -5.5zM-1615.5 1211.5
q33.5 12.5 41.5 41.5l29 -4q-6 -108 -94 -113q-109 -5 -118 125l23 12q22 -38 53.5 -56t65 -5.5z" />
    <glyph glyph-name="uniA9B3_uniA9BC_uniA980" unicode="&#xe05d;" 
d="M-1470.5 1219.5q223.5 -235.5 614.5 -308.5l-1 -38q-448 56 -690 306t-194.5 615t325.5 594t703 215.5t654 -228t200.5 -564t-307.5 -526.5t-629.5 -122t-407.5 348l23 14q106 -228 394.5 -262.5t559.5 122.5t289.5 471t-206 497t-602.5 194.5t-631 -211t-285.5 -552
t191 -565zM-1755.5 1011.5q33.5 12.5 41.5 41.5l29 -4q-6 -108 -94 -113q-109 -5 -118 125l23 12q22 -38 53.5 -56t65 -5.5zM-2055.5 1011.5q33.5 12.5 41.5 41.5l29 -4q-6 -108 -94 -113q-109 -5 -118 125l23 12q22 -38 53.5 -56t65 -5.5zM-1905.5 1211.5
q33.5 12.5 41.5 41.5l29 -4q-6 -108 -94 -113q-109 -5 -118 125l23 12q22 -38 53.5 -56t65 -5.5zM-372 1595q-80 -128 -219 -123t-157 187l29 13q47 -87 127 -110.5t200 51.5zM-538 1637q1 85 7 174q-33 -12 -36.5 -93.5t51.5 -126.5l-23 -17q-123 59 -98 184t164 141
l15 -23q-11 -86 -49 -241z" />
    <glyph glyph-name="uniA9B3_uniA9BC_uniA981" unicode="&#xe05e;" 
d="M-1170.5 1219.5q223.5 -235.5 614.5 -308.5l-1 -38q-448 56 -690 306t-194.5 615t325.5 594t703 215.5t654 -228t200.5 -564t-307.5 -526.5t-629.5 -122t-407.5 348l23 14q106 -228 394.5 -262.5t559.5 122.5t289.5 471t-206 497t-602.5 194.5t-631 -211t-285.5 -552
t191 -565zM-398 1686q100 48 189 8t107 -222l-29 -13q-47 107 -92 145.5t-175 53.5v28zM-1455.5 1011.5q33.5 12.5 41.5 41.5l29 -4q-6 -108 -94 -113q-109 -5 -118 125l23 12q22 -38 53.5 -56t65 -5.5zM-1755.5 1011.5q33.5 12.5 41.5 41.5l29 -4q-6 -108 -94 -113
q-109 -5 -118 125l23 12q22 -38 53.5 -56t65 -5.5zM-1605.5 1211.5q33.5 12.5 41.5 41.5l29 -4q-6 -108 -94 -113q-109 -5 -118 125l23 12q22 -38 53.5 -56t65 -5.5z" />
    <glyph glyph-name="uniA9B3_uniA9BC_uniA982" unicode="&#xe05f;" horiz-adv-x="1" 
d="M-1385.5 1154.5q208.5 -200.5 529.5 -243.5l-1 -38q-378 26 -605 241t-179.5 525t317 484t643 140.5t517.5 -223t45.5 -454.5t-317.5 -381.5t-464.5 -51.5t-302.5 358l23 14q106 -228 289.5 -272.5t394.5 52t299.5 331t-51 387.5t-466 184.5t-571 -136t-277 -442
t176 -475zM1883 1864l-34 -17q-213 250 -660 316.5t-801 -234.5t-674 -1027l-40 11q290 757 660 1076t859 276t690 -401zM-1655.5 1011.5q33.5 12.5 41.5 41.5l29 -4q-6 -108 -94 -113q-109 -5 -118 125l23 12q22 -38 53.5 -56t65 -5.5zM-1955.5 1011.5q33.5 12.5 41.5 41.5
l29 -4q-6 -108 -94 -113q-109 -5 -118 125l23 12q22 -38 53.5 -56t65 -5.5zM-1805.5 1211.5q33.5 12.5 41.5 41.5l29 -4q-6 -108 -94 -113q-109 -5 -118 125l23 12q22 -38 53.5 -56t65 -5.5z" />
    <glyph glyph-name="uniA9B4" unicode="&#xa9b4;" horiz-adv-x="500" 
d="M191 635q-85 74 -179 105l2 30q174 -23 270 -125.5t124 -264t-19.5 -275.5t-167 -109t-123.5 177l25 12q35 -103 105 -109t94 89t-11 245.5t-120 224.5z" />
    <glyph glyph-name="uniA9B5" unicode="&#xa9b5;" horiz-adv-x="500" 
d="M191 635q-85 74 -179 105l2 30q174 -23 270 -125.5t124 -264t-19.5 -275.5t-167 -109t-123.5 177l25 12q35 -103 105 -109t94 89t-11 245.5t-120 224.5z" />
    <glyph glyph-name="uniA9B6" unicode="&#xa9b6;" 
d="M-387 1060l15 -15q-122 -136 -301 -128t-224 168t58.5 352t312.5 224.5t302.5 -164.5t-47.5 -553l-39 13q79 361 12 500t-224.5 124t-241 -166t-65 -288t158.5 -153.5t283 86.5z" />
    <glyph glyph-name="uniA9B6_uniA980" unicode="&#xe048;" 
d="M-787 1060l15 -15q-122 -136 -301 -128t-224 168t58.5 352t312.5 224.5t302.5 -164.5t-47.5 -553l-39 13q79 361 12 500t-224.5 124t-241 -166t-65 -288t158.5 -153.5t283 86.5zM-162 1095q-80 -128 -219 -123t-157 187l29 13q47 -87 127 -110.5t200 51.5zM-328 1137
q1 85 7 174q-33 -12 -36.5 -93.5t51.5 -126.5l-23 -17q-123 59 -98 184t164 141l15 -23q-11 -86 -49 -241z" />
    <glyph glyph-name="uniA9B6_uniA981" unicode="&#xe049;" 
d="M-687 1060l15 -15q-122 -136 -301 -128t-224 168t58.5 352t312.5 224.5t302.5 -164.5t-47.5 -553l-39 13q79 361 12 500t-224.5 124t-241 -166t-65 -288t158.5 -153.5t283 86.5zM-428 1146q100 48 189 8t107 -222l-29 -13q-47 107 -92 145.5t-175 53.5v28z" />
    <glyph glyph-name="uniA9B6_uniA982" unicode="&#xe04a;" 
d="M-687 1060l15 -15q-122 -136 -301 -128t-224 168t58.5 352t312.5 224.5t302.5 -164.5t-47.5 -553l-39 13q79 361 12 500t-224.5 124t-241 -166t-65 -288t158.5 -153.5t283 86.5zM1783 1864l-34 -17q-213 250 -660 316.5t-801 -234.5t-674 -1027l-40 11q290 757 660 1076
t859 276t690 -401z" />
    <glyph glyph-name="uniA9B7" unicode="&#xa9b7;" 
d="M-387 1060l15 -15q-122 -136 -301 -128t-224 168t58.5 352t312.5 224.5t302.5 -164.5t-47.5 -553l-39 13q79 361 12 500t-224.5 124t-241 -166t-65 -288t158.5 -153.5t283 86.5zM-668 1346q100 48 189 8t107 -222l-29 -13q-47 107 -92 145.5t-175 53.5v28z" />
    <glyph glyph-name="uniA9B7_uniA980" unicode="&#xe04b;" 
d="M-787 1060l15 -15q-122 -136 -301 -128t-224 168t58.5 352t312.5 224.5t302.5 -164.5t-47.5 -553l-39 13q79 361 12 500t-224.5 124t-241 -166t-65 -288t158.5 -153.5t283 86.5zM-1068 1346q100 48 189 8t107 -222l-29 -13q-47 107 -92 145.5t-175 53.5v28zM-162 1095
q-80 -128 -219 -123t-157 187l29 13q47 -87 127 -110.5t200 51.5zM-328 1137q1 85 7 174q-33 -12 -36.5 -93.5t51.5 -126.5l-23 -17q-123 59 -98 184t164 141l15 -23q-11 -86 -49 -241z" />
    <glyph glyph-name="uniA9B7_uniA981" unicode="&#xe04c;" 
d="M-687 1060l15 -15q-122 -136 -301 -128t-224 168t58.5 352t312.5 224.5t302.5 -164.5t-47.5 -553l-39 13q79 361 12 500t-224.5 124t-241 -166t-65 -288t158.5 -153.5t283 86.5zM-968 1346q100 48 189 8t107 -222l-29 -13q-47 107 -92 145.5t-175 53.5v28zM-368 1146
q100 48 189 8t107 -222l-29 -13q-47 107 -92 145.5t-175 53.5v28z" />
    <glyph glyph-name="uniA9B7_uniA982" unicode="&#xe04d;" 
d="M-587 1060l15 -15q-122 -136 -301 -128t-224 168t58.5 352t312.5 224.5t302.5 -164.5t-47.5 -553l-39 13q79 361 12 500t-224.5 124t-241 -166t-65 -288t158.5 -153.5t283 86.5zM-868 1346q100 48 189 8t107 -222l-29 -13q-47 107 -92 145.5t-175 53.5v28zM1883 1864
l-34 -17q-213 250 -660 316.5t-801 -234.5t-674 -1027l-40 11q290 757 660 1076t859 276t690 -401z" />
    <glyph glyph-name="uniA9B8" unicode="&#xa9b8;" 
d="M-2242 -1648q205 41 534.5 274t754.5 586t703 689l41 -16q-182 -370 -612 -772t-763 -605.5t-507.5 -229.5t-202 24.5t6.5 88.5q1407 1139 1966 1584l24 -23q-468 -452 -1945 -1600z" />
    <glyph glyph-name="uniA9B8.conj" 
d="M-1592 -2248q205 41 534.5 274t754.5 586t703 689l41 -16q-182 -370 -612 -772t-763 -605.5t-507.5 -229.5t-202 24.5t6.5 88.5q1289 1022 1384 1094l24 -23q-101 -126 -1363 -1110z" />
    <glyph glyph-name="uniA9B9" unicode="&#xa9b9;" 
d="M-2242 -1648q205 41 534.5 274t754.5 586t703 689l41 -16q-182 -370 -612 -772t-763 -605.5t-507.5 -229.5t-202 24.5t6.5 88.5q1407 1139 1966 1584l24 -23q-468 -452 -1945 -1600z" />
    <glyph glyph-name="uniA9B9.conj" 
d="M-1492 -2248q205 41 534.5 274t754.5 586t703 689l41 -16q-182 -370 -612 -772t-763 -605.5t-507.5 -229.5t-202 24.5t6.5 88.5q1289 1022 1384 1094l24 -23q-101 -126 -1363 -1110z" />
    <glyph glyph-name="uniA9BA" unicode="&#xa9ba;" horiz-adv-x="457" 
d="M283 579.5q6 113.5 -82.5 127t-159.5 -38.5l-24 30q86 91 205.5 76t137 -131t-57 -669.5t-52 -967.5t240 -574t531.5 -152.5t620 154.5l16 -28q-300 -254 -673 -274.5t-592 189t-242 632.5t51.5 968t80.5 658.5z" />
    <glyph glyph-name="uniA9BB" unicode="&#xa9bb;" horiz-adv-x="467" 
d="M248 1557l19 -18q-68 -108 -85.5 -145.5t64 -67.5t78 -93t-95 -196.5t46.5 -202.5l-7 -17q-223 69 -136.5 199.5t108.5 182t-84 80t-71.5 100t163.5 178.5zM283 579.5q6 113.5 -82.5 127t-159.5 -38.5l-24 30q86 91 205.5 76t137 -131t-57 -669.5t-52 -967.5t240 -574
t531.5 -152.5t620 154.5l16 -28q-300 -254 -673 -274.5t-592 189t-242 632.5t51.5 968t80.5 658.5z" />
    <glyph glyph-name="uniA9BC" unicode="&#xa9bc;" horiz-adv-x="1" 
d="M-1070.5 1219.5q223.5 -235.5 614.5 -308.5l-1 -38q-448 56 -690 306t-194.5 615t325.5 594t703 215.5t654 -228t200.5 -564t-307.5 -526.5t-629.5 -122t-407.5 348l23 14q106 -228 394.5 -262.5t559.5 122.5t289.5 471t-206 497t-602.5 194.5t-631 -211t-285.5 -552
t191 -565z" />
    <glyph glyph-name="uniA9BC.short" horiz-adv-x="1" 
d="M-1070.5 1154.5q193.5 -200.5 514.5 -243.5l-1 -38q-378 26 -590 241t-174.5 530t302 484t633 145.5t487.5 -223t50.5 -464.5t-287.5 -381.5t-464.5 -51.5t-302.5 358l23 14q106 -228 289.5 -272.5t394.5 52t269.5 331t-56 397.5t-436 184.5t-561 -141t-262 -442
t171 -480z" />
    <glyph glyph-name="uniA9BC_uniA980" unicode="&#xe04e;" 
d="M-1470.5 1219.5q223.5 -235.5 614.5 -308.5l-1 -38q-448 56 -690 306t-194.5 615t325.5 594t703 215.5t654 -228t200.5 -564t-307.5 -526.5t-629.5 -122t-407.5 348l23 14q106 -228 394.5 -262.5t559.5 122.5t289.5 471t-206 497t-602.5 194.5t-631 -211t-285.5 -552
t191 -565zM-342 1595q-80 -128 -219 -123t-157 187l29 13q47 -87 127 -110.5t200 51.5zM-508 1637q1 85 7 174q-33 -12 -36.5 -93.5t51.5 -126.5l-23 -17q-123 59 -98 184t164 141l15 -23q-11 -86 -49 -241z" />
    <glyph glyph-name="uniA9BC_uniA981" unicode="&#xe04f;" 
d="M-1170.5 1219.5q223.5 -235.5 614.5 -308.5l-1 -38q-448 56 -690 306t-194.5 615t325.5 594t703 215.5t654 -228t200.5 -564t-307.5 -526.5t-629.5 -122t-407.5 348l23 14q106 -228 394.5 -262.5t559.5 122.5t289.5 471t-206 497t-602.5 194.5t-631 -211t-285.5 -552
t191 -565zM-398 1686q100 48 189 8t107 -222l-29 -13q-47 107 -92 145.5t-175 53.5v28z" />
    <glyph glyph-name="uniA9BC_uniA982" unicode="&#xe050;" horiz-adv-x="1" 
d="M-1370.5 1154.5q193.5 -200.5 514.5 -243.5l-1 -38q-378 26 -590 241t-174.5 530t302 484t633 145.5t487.5 -223t50.5 -464.5t-287.5 -381.5t-464.5 -51.5t-302.5 358l23 14q106 -228 289.5 -272.5t394.5 52t269.5 331t-56 397.5t-436 184.5t-561 -141t-262 -442
t171 -480zM1883 1864l-34 -17q-213 250 -660 316.5t-801 -234.5t-674 -1027l-40 11q290 757 660 1076t859 276t690 -401z" />
    <glyph glyph-name="uniA9BD" unicode="&#xa9bd;" 
d="M-869 -922q-62 -79 -238 -307.5t-201 -313t5 -134t154 -21.5v-44q-149 -53 -215 -12t-38.5 166t261 424.5t263.5 353.5zM-1029 -1395.5q91 -62.5 216.5 -21.5t208.5 217.5t49 412.5t-163 354l13 37q129 8 261 104q185 175 248 502l70 -8q-47 -339 -238 -527
q-137 -116 -245 -129q97 -61 136.5 -306t-43 -445.5t-235.5 -267.5t-289 -12t-143.5 227.5t82.5 360.5q116 218 207 242t99 -67t-84 -214l-39 68q47 87 39 125.5t-60 -19t-110 -175.5q-48 -120 -59.5 -258t79.5 -200.5z" />
    <glyph glyph-name="uniA9BD.conj" 
d="M-629 -1682q-62 -79 -238 -307.5t-147 -367.5l-28 -4q-93 138 140.5 437.5t263.5 353.5zM-789 -2165.5q91 -72.5 231 -36.5t243.5 207.5t58.5 386.5t-222 375l13 37q241 -161 291.5 -401.5t-57 -429.5t-270.5 -241t-299 13t-143.5 237.5t82.5 360.5q116 218 207 242
t99 -67t-84 -214l-39 68q47 87 39 125.5t-60 -19t-110 -175.5q-48 -120 -59.5 -258t79.5 -210.5z" />
    <glyph glyph-name="uniA9BD.disjointed" 
d="M-629 -922q-62 -79 -238 -307.5t-201 -313t5 -134t154 -21.5v-44q-149 -53 -215 -12t-38.5 166t261 424.5t263.5 353.5zM-789 -1395.5q91 -62.5 226.5 -26.5t243.5 217.5t84 517.5t-243 554l13 37q283 -219 312.5 -564t-78 -550.5t-270.5 -267.5t-299 -7t-143.5 227.5
t82.5 360.5q116 218 207 242t99 -67t-84 -214l-39 68q47 87 39 125.5t-60 -19t-110 -175.5q-48 -120 -59.5 -258t79.5 -200.5z" />
    <glyph glyph-name="uniA9BD.conj_disjointed" 
d="M-629 -1682q-62 -79 -238 -307.5t-147 -367.5l-28 -4q-93 138 140.5 437.5t263.5 353.5zM-789 -2165.5q91 -72.5 231 -36.5t243.5 207.5t58.5 386.5t-222 375l13 37q241 -161 291.5 -401.5t-57 -429.5t-270.5 -241t-299 13t-143.5 237.5t82.5 360.5q116 218 207 242
t99 -67t-84 -214l-39 68q47 87 39 125.5t-60 -19t-110 -175.5q-48 -120 -59.5 -258t79.5 -210.5z" />
    <glyph glyph-name="uniA9BE" unicode="&#xa9be;" horiz-adv-x="500" 
d="M-196 210l70 -8q-67 -339 -258 -517t-381 -337.5t-234 -367t45 -370.5t274.5 -202t365.5 27t272.5 243t120.5 698t10.5 887t-67.5 437l3 27q121 47 216 -23t105.5 -296.5t1.5 -766.5t-147 -1480l-51 3q99 1009 108.5 1503.5t-2 696.5t-53.5 262.5t-86 50.5
q41 -28 56.5 -395t-8.5 -916.5t-138.5 -748t-322.5 -270t-432 -18.5t-320 254t-47 420t247.5 384.5t383.5 330.5t268 492z" />
    <glyph glyph-name="uniA9BE.alt" horiz-adv-x="500" 
d="M-196 210l70 -8q-67 -339 -258 -517t-381 -337.5t-234 -367t45 -370.5t274.5 -202t365.5 27t272.5 243t120.5 698t10.5 887t-67.5 437l3 27q121 47 216 -23t105.5 -296.5t-58.5 -425.5l-34 10q14 170 2.5 372t-53.5 262.5t-86 50.5q41 -28 56.5 -395t-8.5 -916.5
t-138.5 -748t-322.5 -270t-432 -18.5t-320 254t-47 420t247.5 384.5t383.5 330.5t268 492z" />
    <glyph glyph-name="uniA9BE.full_uniA9B8.short" horiz-adv-x="500" 
d="M-196 210l70 -8q-67 -339 -258 -517t-381 -337.5t-234 -367t45 -370.5t274.5 -202t365.5 27t272.5 243t120.5 698t10.5 887t-67.5 437l3 27q121 47 216 -23t105.5 -296.5t-58.5 -425.5l-34 10q14 170 2.5 372t-53.5 262.5t-86 50.5q41 -28 56.5 -395t-8.5 -916.5
t-138.5 -748t-322.5 -270t-432 -18.5t-320 254t-47 420t247.5 384.5t383.5 330.5t268 492zM-1772 -1648q205 41 534.5 274t754.5 586t703 689l41 -16q-182 -370 -612 -772t-763 -605.5t-507.5 -229.5t-202 24.5t6.5 88.5q1407 1139 1966 1584l24 -23q-468 -452 -1945 -1600z
" />
    <glyph glyph-name="uniA9BE.full_uniA9B9.short" horiz-adv-x="500" 
d="M-196 210l70 -8q-67 -339 -258 -517t-381 -337.5t-234 -367t45 -370.5t274.5 -202t365.5 27t272.5 243t120.5 698t10.5 887t-67.5 437l3 27q121 47 216 -23t105.5 -296.5t-58.5 -425.5l-34 10q14 170 2.5 372t-53.5 262.5t-86 50.5q41 -28 56.5 -395t-8.5 -916.5
t-138.5 -748t-322.5 -270t-432 -18.5t-320 254t-47 420t247.5 384.5t383.5 330.5t268 492zM-1772 -1648q205 41 534.5 274t754.5 586t703 689l41 -16q-182 -370 -612 -772t-763 -605.5t-507.5 -229.5t-202 24.5t6.5 88.5q1407 1139 1966 1584l24 -23q-468 -452 -1945 -1600z
" />
    <glyph glyph-name="uniA9BE.disjointed" horiz-adv-x="500" 
d="M-156 -40l30 -8q-37 -209 -233 -348t-396 -277.5t-244 -346t45 -370.5t274.5 -202t365.5 27t272.5 243t120.5 698t10.5 887t-67.5 437l3 27q121 47 216 -23t105.5 -296.5t1.5 -766.5t-147 -1480l-51 3q99 1009 108.5 1503.5t-2 696.5t-53.5 262.5t-86 50.5
q41 -28 56.5 -395t-8.5 -916.5t-138.5 -748t-322.5 -270t-432 -18.5t-320 254t-47 420t257.5 363.5t398.5 270.5t283 323z" />
    <glyph glyph-name="uniA9BE.disjointed_full" horiz-adv-x="500" 
d="M117 677q41 -28 56.5 -395t-8.5 -916.5t-138.5 -748t-322.5 -270t-432 -18.5t-320 254t-47 420t257.5 363.5t398.5 270.5t283 323l30 -8q-37 -209 -233 -348t-396 -277.5t-244 -346t45 -370.5t274.5 -202t365.5 27t272.5 243t120.5 698t10.5 887t-67.5 437l3 27
q121 47 216 -23t105.5 -296.5t-58.5 -425.5l-34 10q14 170 2.5 372t-53.5 262.5t-86 50.5z" />
    <glyph glyph-name="uniA9BE.disjointed_full_uniA9B8" horiz-adv-x="500" 
d="M117 677q41 -28 56.5 -395t-8.5 -916.5t-138.5 -748t-322.5 -270t-432 -18.5t-320 254t-47 420t257.5 363.5t398.5 270.5t283 323l30 -8q-37 -209 -233 -348t-396 -277.5t-244 -346t45 -370.5t274.5 -202t365.5 27t272.5 243t120.5 698t10.5 887t-67.5 437l3 27
q121 47 216 -23t105.5 -296.5t-58.5 -425.5l-34 10q14 170 2.5 372t-53.5 262.5t-86 50.5zM-1772 -1648q205 41 534.5 274t754.5 586t703 689l41 -16q-182 -370 -612 -772t-763 -605.5t-507.5 -229.5t-202 24.5t6.5 88.5q1407 1139 1966 1584l24 -23q-468 -452 -1945 -1600z
" />
    <glyph glyph-name="uniA9BE.disjointed_full_uniA9B9" horiz-adv-x="500" 
d="M117 677q41 -28 56.5 -395t-8.5 -916.5t-138.5 -748t-322.5 -270t-432 -18.5t-320 254t-47 420t257.5 363.5t398.5 270.5t283 323l30 -8q-37 -209 -233 -348t-396 -277.5t-244 -346t45 -370.5t274.5 -202t365.5 27t272.5 243t120.5 698t10.5 887t-67.5 437l3 27
q121 47 216 -23t105.5 -296.5t-58.5 -425.5l-34 10q14 170 2.5 372t-53.5 262.5t-86 50.5zM-1772 -1648q205 41 534.5 274t754.5 586t703 689l41 -16q-182 -370 -612 -772t-763 -605.5t-507.5 -229.5t-202 24.5t6.5 88.5q1407 1139 1966 1584l24 -23q-468 -452 -1945 -1600z
" />
    <glyph glyph-name="uniA9BE.conj" horiz-adv-x="517" 
d="M-196 -890l70 -8q-47 -339 -189 -443t-285 -145t-154 -159t139.5 -152t315.5 32t257.5 243t120.5 798t10.5 987t-67.5 437l3 27q121 47 216 -23t105.5 -296.5t1.5 -766.5t-147 -1680l-51 3q99 1209 108.5 1703.5t-2 696.5t-53.5 262.5t-86 50.5q41 -28 56.5 -395
t-8.5 -1016.5t-138.5 -848t-307.5 -270t-387 -23.5t-185 219t197.5 237t297.5 159.5t162 370.5z" />
    <glyph glyph-name="uniA9BE.conj_alt" horiz-adv-x="517" 
d="M-196 -890l70 -8q-47 -339 -189 -443t-285 -145t-154 -159t139.5 -152t315.5 32t257.5 243t120.5 798t10.5 987t-67.5 437l3 27q121 47 216 -23t105.5 -296.5t5 -590t-66.5 -899.5l-51 3q22 605 28 923t-5.5 520t-53.5 262.5t-86 50.5q41 -28 56.5 -395t-8.5 -1016.5
t-138.5 -848t-307.5 -270t-387 -23.5t-185 219t197.5 237t297.5 159.5t162 370.5z" />
    <glyph glyph-name="uniA9BE.conj_full_uniA9B8.conj_" horiz-adv-x="517" 
d="M-196 -890l70 -8q-47 -339 -189 -443t-285 -145t-154 -159t139.5 -152t315.5 32t257.5 243t120.5 798t10.5 987t-67.5 437l3 27q121 47 216 -23t105.5 -296.5t5 -590t-66.5 -899.5l-51 3q22 605 28 923t-5.5 520t-53.5 262.5t-86 50.5q41 -28 56.5 -395t-8.5 -1016.5
t-138.5 -848t-307.5 -270t-387 -23.5t-185 219t197.5 237t297.5 159.5t162 370.5zM-1092 -2248q205 41 534.5 274t754.5 586t703 689l41 -16q-182 -370 -612 -772t-763 -605.5t-507.5 -229.5t-202 24.5t6.5 88.5q1289 1022 1384 1114l24 -43q-101 -126 -1363 -1110z" />
    <glyph glyph-name="uniA9BE.conj_full_uniA9B9.conj_" horiz-adv-x="517" 
d="M-196 -890l70 -8q-47 -339 -189 -443t-285 -145t-154 -159t139.5 -152t315.5 32t257.5 243t120.5 798t10.5 987t-67.5 437l3 27q121 47 216 -23t105.5 -296.5t5 -590t-66.5 -899.5l-51 3q22 605 28 923t-5.5 520t-53.5 262.5t-86 50.5q41 -28 56.5 -395t-8.5 -1016.5
t-138.5 -848t-307.5 -270t-387 -23.5t-185 219t197.5 237t297.5 159.5t162 370.5zM-1092 -2248q205 41 534.5 274t754.5 586t703 689l41 -16q-182 -370 -612 -772t-763 -605.5t-507.5 -229.5t-202 24.5t6.5 88.5q1289 1022 1384 1114l24 -43q-101 -126 -1363 -1110z" />
    <glyph glyph-name="uniA9BE.conj_disjointed" horiz-adv-x="517" 
d="M-133 -1103l27 -11q-45 -131 -198 -221t-296 -141t-154 -174t139.5 -152t315.5 37t257.5 243t120.5 798t10.5 987t-67.5 437l3 27q121 47 216 -23t105.5 -296.5t1.5 -766.5t-147 -1680l-51 3q99 1209 108.5 1703.5t-2 696.5t-53.5 262.5t-86 50.5q41 -28 56.5 -395
t-8.5 -1016.5t-138.5 -848t-307.5 -270t-382 -28.5t-185 229t192.5 252t319.5 136t203 161z" />
    <glyph glyph-name="uniA9BE.conj_disjointed_full" horiz-adv-x="517" 
d="M117 677q41 -28 56.5 -395t-8.5 -1016.5t-138.5 -848t-307.5 -270t-382 -28.5t-185 229t192.5 252t319.5 136t203 161l27 -11q-45 -131 -198 -221t-296 -141t-154 -174t139.5 -152t315.5 37t257.5 243t120.5 798t10.5 987t-67.5 437l3 27q121 47 216 -23t105.5 -296.5
t5 -590t-66.5 -899.5l-51 3q22 605 28 923t-5.5 520t-53.5 262.5t-86 50.5z" />
    <glyph glyph-name="uniA9BE.conj_disjointed_full_un" horiz-adv-x="517" 
d="M117 677q41 -28 56.5 -395t-8.5 -1016.5t-138.5 -848t-307.5 -270t-382 -28.5t-185 229t192.5 252t319.5 136t203 161l27 -11q-45 -131 -198 -221t-296 -141t-154 -174t139.5 -152t315.5 37t257.5 243t120.5 798t10.5 987t-67.5 437l3 27q121 47 216 -23t105.5 -296.5
t5 -590t-66.5 -899.5l-51 3q22 605 28 923t-5.5 520t-53.5 262.5t-86 50.5zM-1102 -2248q205 41 534.5 274t754.5 586t703 689l41 -16q-182 -370 -612 -772t-763 -605.5t-507.5 -229.5t-202 24.5t6.5 88.5q1289 1022 1384 1094l24 -23q-101 -126 -1363 -1110z" />
    <glyph glyph-name="uniA9BE.conj_disjointed_full_un" horiz-adv-x="517" 
d="M117 677q41 -28 56.5 -395t-8.5 -1016.5t-138.5 -848t-307.5 -270t-382 -28.5t-185 229t192.5 252t319.5 136t203 161l27 -11q-45 -131 -198 -221t-296 -141t-154 -174t139.5 -152t315.5 37t257.5 243t120.5 798t10.5 987t-67.5 437l3 27q121 47 216 -23t105.5 -296.5
t5 -590t-66.5 -899.5l-51 3q22 605 28 923t-5.5 520t-53.5 262.5t-86 50.5zM-1102 -2248q205 41 534.5 274t754.5 586t703 689l41 -16q-182 -370 -612 -772t-763 -605.5t-507.5 -229.5t-202 24.5t6.5 88.5q1289 1022 1384 1094l24 -23q-101 -126 -1363 -1110z" />
    <glyph glyph-name="uniA9BF" unicode="&#xa9bf;" horiz-adv-x="253" 
d="M577 1861.5q347 287.5 851 261t779 -487.5l-40 -16q-250 396 -735 425.5t-807 -254t-417 -827.5t36 -860.5t374 -312.5l-6 -34q-298 -51 -450 305.5t-42 934.5t457 865.5z" />
    <glyph glyph-name="uniA9BF.conj" horiz-adv-x="253" 
d="M577 1861.5q347 287.5 851 261t779 -487.5l-40 -16q-250 396 -735 425.5t-807 -254t-417 -827.5t36 -860.5t374 -312.5l-6 -34q-298 -51 -450 305.5t-42 934.5t457 865.5z" />
    <glyph glyph-name="uniA9BF.conj_short" horiz-adv-x="253" 
d="M577 1861.5q347 287.5 851 261t779 -487.5l-40 -16q-250 396 -735 425.5t-807 -254t-417 -827.5t36 -860.5t374 -312.5l-6 -34q-298 -51 -450 305.5t-42 934.5t457 865.5z" />
    <glyph glyph-name="uniA9BF_uniA9B8.conj_large" 
d="M-505 -1528.5q-20 -269.5 -348.5 -518.5t-545.5 -275t-244.5 24.5t6.5 88.5l45 -39q276 48 628 335t335 414t-577.5 -58t-881 -201.5t-427 108.5t-53.5 440l33 -1q-22 -302 86 -400.5t396 -79t928 225.5t620 -63.5zM-1592 -2248l-45 39q1289 1022 1384 1094l24 -23
q-101 -126 -1363 -1110z" />
    <glyph glyph-name="uniA9BF_uniA9B8.conj_med" 
d="M-505 -1528.5q-20 -269.5 -348.5 -518.5t-545.5 -275t-244.5 24.5t6.5 88.5l45 -39q276 48 628 335t335 414t-577.5 -58t-881 -201.5t-427 108.5t-53.5 440l33 -1q-22 -302 86 -400.5t396 -79t928 225.5t620 -63.5zM-1592 -2248l-45 39q1289 1022 1384 1094l24 -23
q-101 -126 -1363 -1110z" />
    <glyph glyph-name="uniA9BF_uniA9B8.conj_small" 
d="M-505 -1528.5q-20 -269.5 -348.5 -518.5t-545.5 -275t-244.5 24.5t6.5 88.5l45 -39q276 48 628 335t335 414t-577.5 -58t-881 -201.5t-427 108.5t-53.5 440l33 -1q-22 -302 86 -400.5t396 -79t928 225.5t620 -63.5zM-1592 -2248l-45 39q1289 1022 1384 1094l24 -23
q-101 -126 -1363 -1110z" />
    <glyph glyph-name="uniA9C0" unicode="&#xa9c0;" horiz-adv-x="500" 
d="M79 -624q28 521 10.5 887t-67.5 437l3 27q121 47 216 -23t105.5 -296.5t1.5 -766.5t-147 -1480l-51 3q99 1009 108.5 1503.5t-2 696.5t-53.5 262.5t-86 50.5q41 -28 56.5 -395t-8.5 -916q-15 -248 -48 -451.5t-129.5 -357t-284 -224t-405.5 -4.5t-314.5 275.5t-17 482
t365 375.5t535.5 -68l-11 -26q-252 123 -491 31.5t-303 -339t20.5 -424t257.5 -231.5t329 2.5t243 197t119 327.5t48 444z" />
    <glyph glyph-name="uniA9C1" unicode="&#xa9c1;" horiz-adv-x="1978" 
d="M407 63q33 4 67.5 19.5t35 30.5t-22.5 15.5t-42.5 -16t-37.5 -49.5zM354 167q-3 -79 14 -86q27 66 76 86t88 2t34 -67.5t-65.5 -76t-125.5 -19.5q-47 4 -71.5 39.5t-26.5 108.5q-1 30 8.5 181t9.5 221q-1 70 -8.5 93t-29.5 25t-39 -15.5t-36 -66.5q-20 -59 -27 -146
t-8 -186q-2 -100 8 -178l9 -79l-27 -13q-43 91 -60 213q-18 121 -5 254t63 212q49 78 129 79q45 -1 68.5 -21t32.5 -54t10.5 -101.5t-9.5 -226.5q-10 -134 -12 -178zM770.5 658q-48.5 5 -80.5 -30.5t-58 -102.5l-34 1q-7 71 -39.5 110t-123.5 8l-16 19q58 78 122.5 73.5
t93.5 -77.5q33 63 84.5 80.5t109.5 -3t87 -97.5q26 -68 30 -180q4 -129 -21 -247.5t-80 -223.5l-37 16q36 130 48 229t9 195q-4 96 -18 152q-28 73 -76.5 78zM1258 -1510q25 -6 84 -59t102 -76.5t102 163.5q42 200 54 401t28 457q28 521 10.5 887t-57.5 477l13 17
q101 17 196 -53t105.5 -296.5t1.5 -766.5t-147 -1480l-51 3q99 1009 108.5 1503.5t-2 696.5t-48.5 257t-71 56q22 -80 37 -421t-9 -890q-15 -248 -33 -464.5t-68 -408.5q-51 -192 -130 -204.5t-149 54t-98 77.5q-29 -89 -75 -98.5t-61 18.5t-7.5 69t32.5 68.5t52 27.5
q103 529 131 1163q9 494 -2.5 696t-53.5 262.5t-86 50.5q41 -28 56.5 -395t-8.5 -916q-15 -248 -48 -451.5t-129.5 -357t-284 -224t-405.5 -4.5t-314.5 275.5t-17 482t342.5 431.5l22 -23q-205 -187 -269 -434.5t20.5 -424t257.5 -231.5t329 2.5t243 197t119 327.5t48 444
q28 521 10.5 887t-67.5 437l3 27q121 47 216 -23t105.5 -296.5t1.5 -766.5q-27 -670 -139 -1151zM891 -894l8 -33q-223 -47 -325.5 94.5t-69 303.5t160 241.5t302.5 73.5t434 -145.5t803 -570.5l-19 -43q-590 352 -845.5 491t-409.5 144t-247 -55t-108.5 -193t68 -232.5
t248.5 -75.5z" />
    <glyph glyph-name="uniA9C2" unicode="&#xa9c2;" horiz-adv-x="1978" 
d="M407 63q33 4 67.5 19.5t35 30.5t-22.5 15.5t-42.5 -16t-37.5 -49.5zM354 167q-3 -79 14 -86q27 66 76 86t88 2t34 -67.5t-65.5 -76t-125.5 -19.5q-47 4 -71.5 39.5t-26.5 108.5q-1 30 8.5 181t9.5 221q-1 70 -8.5 93t-29.5 25t-39 -15.5t-36 -66.5q-20 -59 -27 -146
t-8 -186q-2 -100 8 -178l9 -79l-27 -13q-43 91 -60 213q-18 121 -5 254t63 212q49 78 129 79q45 -1 68.5 -21t32.5 -54t10.5 -101.5t-9.5 -226.5q-10 -134 -12 -178zM770.5 658q-48.5 5 -80.5 -30.5t-58 -102.5l-34 1q-7 71 -39.5 110t-123.5 8l-16 19q58 78 122.5 73.5
t93.5 -77.5q33 63 84.5 80.5t109.5 -3t87 -97.5q26 -68 30 -180q4 -129 -21 -247.5t-80 -223.5l-37 16q36 130 48 229t9 195q-4 96 -18 152q-28 73 -76.5 78zM1258 -1510q25 -6 84 -59t102 -76.5t102 163.5q42 200 54 401t28 457q28 521 10.5 887t-57.5 477l13 17
q101 17 196 -53t105.5 -296.5t1.5 -766.5t-147 -1480l-51 3q99 1009 108.5 1503.5t-2 696.5t-48.5 257t-71 56q22 -80 37 -421t-9 -890q-15 -248 -33 -464.5t-68 -408.5q-51 -192 -130 -204.5t-149 54t-98 77.5q-29 -89 -75 -98.5t-61 18.5t-7.5 69t32.5 68.5t52 27.5
q103 529 131 1163q9 494 -2.5 696t-53.5 262.5t-86 50.5q41 -28 56.5 -395t-8.5 -916q-15 -248 -48 -451.5t-129.5 -357t-284 -224t-405.5 -4.5t-314.5 275.5t-17 482t342.5 431.5l22 -23q-205 -187 -269 -434.5t20.5 -424t257.5 -231.5t329 2.5t243 197t119 327.5t48 444
q28 521 10.5 887t-67.5 437l3 27q121 47 216 -23t105.5 -296.5t1.5 -766.5q-27 -670 -139 -1151zM891 -894l8 -33q-223 -47 -325.5 94.5t-69 303.5t160 241.5t302.5 73.5t434 -145.5t803 -570.5l-19 -43q-590 352 -845.5 491t-409.5 144t-247 -55t-108.5 -193t68 -232.5
t248.5 -75.5z" />
    <glyph glyph-name="uniA9C3" unicode="&#xa9c3;" horiz-adv-x="1978" 
d="M407 63q33 4 67.5 19.5t35 30.5t-22.5 15.5t-42.5 -16t-37.5 -49.5zM354 167q-3 -79 14 -86q27 66 76 86t88 2t34 -67.5t-65.5 -76t-125.5 -19.5q-47 4 -71.5 39.5t-26.5 108.5q-1 30 8.5 181t9.5 221q-1 70 -8.5 93t-29.5 25t-39 -15.5t-36 -66.5q-20 -59 -27 -146
t-8 -186q-2 -100 8 -178l9 -79l-27 -13q-43 91 -60 213q-18 121 -5 254t63 212q49 78 129 79q45 -1 68.5 -21t32.5 -54t10.5 -101.5t-9.5 -226.5q-10 -134 -12 -178zM770.5 658q-48.5 5 -80.5 -30.5t-58 -102.5l-34 1q-7 71 -39.5 110t-123.5 8l-16 19q58 78 122.5 73.5
t93.5 -77.5q33 63 84.5 80.5t109.5 -3t87 -97.5q26 -68 30 -180q4 -129 -21 -247.5t-80 -223.5l-37 16q36 130 48 229t9 195q-4 96 -18 152q-28 73 -76.5 78zM1258 -1510q25 -6 84 -59t102 -76.5t102 163.5q42 200 54 401t28 457q28 521 10.5 887t-57.5 477l13 17
q101 17 196 -53t105.5 -296.5t1.5 -766.5t-147 -1480l-51 3q99 1009 108.5 1503.5t-2 696.5t-48.5 257t-71 56q22 -80 37 -421t-9 -890q-15 -248 -33 -464.5t-68 -408.5q-51 -192 -130 -204.5t-149 54t-98 77.5q-29 -89 -75 -98.5t-61 18.5t-7.5 69t32.5 68.5t52 27.5
q103 529 131 1163q9 494 -2.5 696t-53.5 262.5t-86 50.5q41 -28 56.5 -395t-8.5 -916q-15 -248 -48 -451.5t-129.5 -357t-284 -224t-405.5 -4.5t-314.5 275.5t-17 482t342.5 431.5l22 -23q-205 -187 -269 -434.5t20.5 -424t257.5 -231.5t329 2.5t243 197t119 327.5t48 444
q28 521 10.5 887t-67.5 437l3 27q121 47 216 -23t105.5 -296.5t1.5 -766.5q-27 -670 -139 -1151zM891 -894l8 -33q-223 -47 -325.5 94.5t-69 303.5t160 241.5t302.5 73.5t434 -145.5t803 -570.5l-19 -43q-590 352 -845.5 491t-409.5 144t-247 -55t-108.5 -193t68 -232.5
t248.5 -75.5z" />
    <glyph glyph-name="uniA9C4" unicode="&#xa9c4;" horiz-adv-x="2516" 
d="M945 63q33 4 67.5 19.5t35 30.5t-22.5 15.5t-42.5 -16t-37.5 -49.5zM892 167q-3 -79 14 -86q27 66 76 86t88 2t34 -67.5t-65.5 -76t-125.5 -19.5q-47 4 -71.5 39.5t-26.5 108.5q-1 30 8.5 181t9.5 221q-1 70 -8.5 93t-29.5 25t-39 -15.5t-36 -66.5q-20 -59 -27 -146
t-8 -186q-2 -100 8 -178l9 -79l-27 -13q-43 91 -60 213q-18 121 -5 254t63 212q49 78 129 79q45 -1 68.5 -21t32.5 -54t10.5 -101.5t-9.5 -226.5q-10 -134 -12 -178zM1308.5 658q-48.5 5 -80.5 -30.5t-58 -102.5l-34 1q-7 71 -39.5 110t-123.5 8l-16 19q58 78 122.5 73.5
t93.5 -77.5q33 63 84.5 80.5t109.5 -3t87 -97.5q26 -68 30 -180q4 -129 -21 -247.5t-80 -223.5l-37 16q36 130 48 229t9 195q-4 96 -18 152q-28 73 -76.5 78zM1429 -894l8 -33q-223 -47 -325.5 94.5t-69 303.5t160 241.5t302.5 73.5t434 -145.5t803 -570.5l-19 -43
q-590 352 -845.5 491t-409.5 144t-247 -55t-108.5 -193t68 -232.5t248.5 -75.5zM873 -1623.5q226 -31.5 382 31t243.5 199.5t119.5 325t48 444q28 521 10.5 887t-67.5 437l3 27q121 47 216 -23t105.5 -296.5t1.5 -766.5q-27 -670 -139 -1151q25 -6 84 -59t102 -76.5
t102 163.5q42 200 54 401t28 457q28 521 10.5 887t-57.5 477l13 17q101 17 196 -53t105.5 -296.5t1.5 -766.5t-147 -1480l-51 3q99 1009 108.5 1503.5t-2 696.5t-48.5 257t-71 56q22 -80 37 -421t-9 -890q-15 -248 -33 -464.5t-68 -408.5q-51 -192 -130 -204.5t-149 54
t-98 77.5q-29 -89 -75 -98.5t-61 18.5t-7.5 69t32.5 68.5t52 27.5q103 529 131 1163q9 494 -2.5 696t-53.5 262.5t-86 50.5q41 -28 56.5 -395t-8.5 -916q-15 -248 -48 -451.5t-129.5 -357t-284 -229t-439 -39.5t-460.5 222.5t-298.5 563t26 931.5t432.5 888l39 -29
q-273 -331 -373.5 -852t-34 -867t265.5 -542t425 -227.5z" />
    <glyph glyph-name="uniA9C5" unicode="&#xa9c5;" horiz-adv-x="2516" 
d="M945 63q33 4 67.5 19.5t35 30.5t-22.5 15.5t-42.5 -16t-37.5 -49.5zM892 167q-3 -79 14 -86q27 66 76 86t88 2t34 -67.5t-65.5 -76t-125.5 -19.5q-47 4 -71.5 39.5t-26.5 108.5q-1 30 8.5 181t9.5 221q-1 70 -8.5 93t-29.5 25t-39 -15.5t-36 -66.5q-20 -59 -27 -146
t-8 -186q-2 -100 8 -178l9 -79l-27 -13q-43 91 -60 213q-18 121 -5 254t63 212q49 78 129 79q45 -1 68.5 -21t32.5 -54t10.5 -101.5t-9.5 -226.5q-10 -134 -12 -178zM1308.5 658q-48.5 5 -80.5 -30.5t-58 -102.5l-34 1q-7 71 -39.5 110t-123.5 8l-16 19q58 78 122.5 73.5
t93.5 -77.5q33 63 84.5 80.5t109.5 -3t87 -97.5q26 -68 30 -180q4 -129 -21 -247.5t-80 -223.5l-37 16q36 130 48 229t9 195q-4 96 -18 152q-28 73 -76.5 78zM1429 -894l8 -33q-223 -47 -325.5 94.5t-69 303.5t160 241.5t302.5 73.5t434 -145.5t803 -570.5l-19 -43
q-590 352 -845.5 491t-409.5 144t-247 -55t-108.5 -193t68 -232.5t248.5 -75.5zM871.5 -1627q217.5 -27 373.5 35.5t248.5 199t124.5 324.5t48 444q28 521 10.5 887t-67.5 437l3 27q121 47 216 -23t105.5 -296.5t1.5 -766.5q-27 -670 -139 -1151q25 -6 84 -59t102 -76.5
t102 163.5q42 200 54 401t28 457q28 521 10.5 887t-57.5 477l13 17q101 17 196 -53t105.5 -296.5t1.5 -766.5t-147 -1480l-51 3q99 1009 108.5 1503.5t-2 696.5t-48.5 257t-71 56q22 -80 37 -421t-9 -890q-15 -248 -33 -464.5t-68 -408.5q-51 -192 -130 -204.5t-149 54
t-98 77.5q-29 -89 -75 -98.5t-61 18.5t-7.5 69t32.5 68.5t52 27.5q103 529 131 1163q9 494 -2.5 696t-53.5 262.5t-86 50.5q41 -28 56.5 -395t-8.5 -916q-15 -248 -48 -451.5t-129.5 -357t-284 -229t-439 -46t-465.5 232.5t-298.5 624.5t25.5 949.5t457 816q347 287 861 271
l-7 -44q-474 -5 -796 -288q-322 -284 -417 -768t-33.5 -870t269 -596t425 -237z" />
    <glyph glyph-name="uniA9C6" unicode="&#xa9c6;" horiz-adv-x="651" 
d="M345 -10h-4q-270 8 -270 385q15 366 268 373h8q253 -7 268 -373q-8 -377 -270 -385zM155 380q0 -316 187 -319q189 3 189 319q-12 301 -188 306q-176 -5 -188 -306z" />
    <glyph glyph-name="uniA9C7" unicode="&#xa9c7;" horiz-adv-x="545" 
d="M82 140q72 105 204.5 102t201.5 -152l-19 -28q-89 58 -179 68t-199 -16zM82 540q72 105 204.5 102t201.5 -152l-19 -28q-89 58 -179 68t-199 -16z" />
    <glyph glyph-name="uniA9C8" unicode="&#xa9c8;" horiz-adv-x="545" 
d="M82 540q72 105 204.5 102t201.5 -152l-19 -28q-89 58 -179 68t-199 -16z" />
    <glyph glyph-name="uniA9C9" unicode="&#xa9c9;" horiz-adv-x="1086" 
d="M582 540q72 105 204.5 102t201.5 -152l-19 -28q-89 58 -179 68t-199 -16zM82 540q72 105 204.5 102t201.5 -152l-19 -28q-89 58 -179 68t-199 -16z" />
    <glyph glyph-name="uniA9CA" unicode="&#xa9ca;" horiz-adv-x="457" 
d="M283 579.5q6 113.5 -62.5 127t-119.5 -38.5l-24 30q66 91 165.5 76t117 -131t-52 -719.5t-67 -982.5t113.5 -795l-42 -35q-168 389 -171 777t66.5 983t75.5 708.5z" />
    <glyph glyph-name="uniA9CB" unicode="&#xa9cb;" horiz-adv-x="700" 
d="M283 579.5q6 113.5 -62.5 127t-119.5 -38.5l-24 30q66 91 165.5 76t117 -131t-52 -719.5t-67 -982.5t113.5 -795l-42 -35q-168 389 -171 777t66.5 983t75.5 708.5zM553 579.5q6 113.5 -62.5 127t-119.5 -38.5l-24 30q66 91 165.5 76t117 -131t-52 -719.5t-67 -982.5
t113.5 -795l-42 -35q-168 389 -171 777t66.5 983t75.5 708.5z" />
    <glyph glyph-name="uniA9CC" unicode="&#xa9cc;" horiz-adv-x="457" 
d="M283 579.5q6 113.5 -62.5 127t-119.5 -38.5l-24 30q66 91 165.5 76t117 -131t-52 -719.5t-67 -982.5t113.5 -795l-42 -35q-168 389 -171 777t66.5 983t75.5 708.5zM298 1557l19 -18q-68 -108 -85.5 -145.5t64 -67.5t78 -93t-95 -196.5t46.5 -202.5l-7 -17
q-223 69 -136.5 199.5t108.5 182t-84 80t-71.5 100t163.5 178.5z" />
    <glyph glyph-name="uniA9CD" unicode="&#xa9cd;" horiz-adv-x="457" 
d="M283 579.5q6 113.5 -62.5 127t-119.5 -38.5l-24 30q66 91 165.5 76t117 -131t-52 -719.5t-67 -982.5t113.5 -795l-42 -35q-168 389 -171 777t66.5 983t75.5 708.5zM298 1557l19 -18q-68 -108 -85.5 -145.5t64 -67.5t78 -93t-95 -196.5t46.5 -202.5l-7 -17
q-223 69 -136.5 199.5t108.5 182t-84 80t-71.5 100t163.5 178.5z" />
    <glyph glyph-name="uniA9CF" unicode="&#xa9cf;" horiz-adv-x="551" 
d="M177 -2l-26 4q8 442 -99 712l23 34q105 -47 216 -46.5t193 50.5l13 -12q-71 -89 -150.5 -111t-163.5 16q82 -286 -6 -647z" />
    <glyph glyph-name="uniA9D0" unicode="&#xa9d0;" horiz-adv-x="675" 
d="M345 -10h-4q-270 8 -270 385q15 366 268 373h8q253 -7 268 -373q-8 -377 -270 -385zM155 380q0 -316 187 -319q189 3 189 319q-12 301 -188 306q-176 -5 -188 -306z" />
    <glyph glyph-name="uniA9D1" unicode="&#xa9d1;" horiz-adv-x="1249" 
d="M241 58q49 1 79 20t40.5 81.5t12.5 223.5t9.5 245.5t65.5 109.5t130.5 6.5t121.5 -98t56.5 -207.5t-17 -216t-88.5 -165q63 3 95 31t48 78t21 179t-37 351l10 27q128 29 201 12.5t113 -82.5q39 -67 44 -195q4 -129 -21 -247.5t-80 -223.5l-37 16q36 130 48 229t9 195
q-4 96 -18 152q-15 55 -63.5 84t-121.5 12q38 -219 31 -336t-24 -183t-65 -110.5t-159 -47.5h-80l-3 39q66 94 93.5 187.5t20.5 201t-41.5 166.5t-69 77t-67.5 9t-37.5 -51t-5.5 -223q-1 -182 -16 -256.5t-50 -110.5t-106 -39h-118l-3 39q44 118 58.5 214.5t19.5 162
t3.5 139.5t-14 101t-32.5 15t-32 -59.5t-14 -105t3 -142.5l-27 -13q-27 73 -34.5 166.5t22 152.5t77 70.5t77.5 -9.5t41 -66t9 -128.5t-10 -157t-20.5 -147.5t-47.5 -173z" />
    <glyph glyph-name="uniA9D2" unicode="&#xa9d2;" horiz-adv-x="1049" 
d="M407 63q33 4 67.5 19.5t35 30.5t-22.5 15.5t-42.5 -16t-37.5 -49.5zM354 167q-3 -79 14 -86q27 66 76 86t88 2t34 -67.5t-65.5 -76t-125.5 -19.5q-47 4 -71.5 39.5t-26.5 108.5q-1 30 8.5 181t9.5 221q-1 70 -8.5 93t-29.5 25t-39 -15.5t-36 -66.5q-20 -59 -27 -146
t-8 -186q-2 -100 8 -178l9 -79l-27 -13q-43 91 -60 213q-18 121 -5 254t63 212q49 78 129 79q45 -1 68.5 -21t32.5 -54t10.5 -101.5t-9.5 -226.5q-10 -134 -12 -178zM513 -807l-259 424q-63 84 -134.5 135t-160.5 48.5t-192.5 -97.5t-140 -347.5t29.5 -404t207.5 -186.5
t277.5 31t223 178t149 219zM676 -685q659 -1132 1290 -1088v-26q-727 -188 -1397 926q-58 -91 -150 -216.5t-254 -196.5t-347.5 -25t-257 235.5t-24 452t186.5 384t298 112.5t255.5 -69t182.5 -170l155 -242q156 351 205 615.5t46 420.5q-4 96 -18 152q-28 73 -76.5 78
t-80.5 -30.5t-58 -102.5l-34 1q-7 71 -39.5 110t-123.5 8l-16 19q58 78 122.5 73.5t93.5 -77.5q33 63 84.5 80.5t109.5 -3t87 -97.5q26 -68 30 -180q4 -239 -63 -522t-207 -622z" />
    <glyph glyph-name="uniA9D3" unicode="&#xa9d3;" horiz-adv-x="1541" 
d="M407 63q33 4 67.5 19.5t35 30.5t-22.5 15.5t-42.5 -16t-37.5 -49.5zM354 167q-3 -79 14 -86q27 66 76 86t88 2t34 -67.5t-65.5 -76t-125.5 -19.5q-47 4 -71.5 39.5t-26.5 108.5q-1 30 8.5 181t9.5 221q-1 70 -8.5 93t-29.5 25t-39 -15.5t-36 -66.5q-20 -59 -27 -146
t-8 -186q-2 -100 8 -178l9 -79l-27 -13q-43 91 -60 213q-18 121 -5 254t63 212q49 78 129 79q45 -1 68.5 -21t32.5 -54t10.5 -101.5t-9.5 -226.5q-10 -134 -12 -178zM770.5 658q-48.5 5 -80.5 -30.5t-58 -102.5l-34 1q-7 71 -39.5 110t-123.5 8l-16 19q58 78 122.5 73.5
t93.5 -77.5q33 63 84.5 80.5t109.5 -3t87 -97.5q26 -68 30 -180q4 -129 -21 -247.5t-80 -223.5l-37 16q36 130 48 229t9 195q-4 96 -18 152q-28 73 -76.5 78zM854 210l70 -8q-47 -289 -233 -427t-346 -257.5t-214 -282t5.5 -324t237.5 -211.5t350 25.5t264.5 242.5
t130.5 548t20.5 747t-67.5 437l3 27q121 47 216 -23t105.5 -296.5t1.5 -766.5t-147 -1480l-51 3q99 1009 108.5 1503.5t-2 696.5t-53.5 262.5t-86 50.5q41 -28 56.5 -395t-18.5 -776.5t-148.5 -598t-314.5 -269.5t-416.5 -17t-283 263.5t-2.5 373.5t227.5 299.5t343.5 250.5
t243 402z" />
    <glyph glyph-name="uniA9D4" unicode="&#xa9d4;" horiz-adv-x="899" 
d="M162 207q-152 211 -92 589t323.5 524t551.5 -1l-22 -32q-281 98 -500.5 -41t-264.5 -483t86 -515q125 -183 351 -188v-71q-287 -5 -433 218zM595 60q123 4 129 130q5 153 -139 241l11 34q92 2 137.5 54t35 110.5t-62.5 70.5t-98 -7t-48.5 -65t63.5 -92l-9 -23
q-102 28 -111 99.5t41.5 114t128.5 43.5t134 -39t59 -121t-58.5 -127.5t-150.5 -46.5q174 -63 166.5 -251.5t-228.5 -195.5v71z" />
    <glyph glyph-name="uniA9D5" unicode="&#xa9d5;" horiz-adv-x="1323" 
d="M1195 1204.5q110 -161.5 99.5 -404t-211.5 -1071.5t-81 -1668l-51 3q-175 801 24.5 1658.5t213 1080t-84.5 362.5t-301 165t-379 -93q-210 -143 -260.5 -470.5t80.5 -518.5q125 -183 351 -188v-71q-287 -5 -433 218q-152 231 -87 594t319 519q214 127 452.5 86.5
t348.5 -202zM595 60q123 4 129 130q5 153 -139 241l11 34q92 2 137.5 54t35 110.5t-62.5 70.5t-98 -7t-48.5 -65t63.5 -92l-9 -23q-102 28 -111 99.5t41.5 114t128.5 43.5t134 -39t59 -121t-58.5 -127.5t-150.5 -46.5q174 -63 166.5 -251.5t-228.5 -195.5v71z" />
    <glyph glyph-name="uniA9D6" unicode="&#xa9d6;" horiz-adv-x="489" 
d="M305 733q81 19 117.5 -33.5t-1.5 -123.5t-160 -138l-10 23q85 91 104.5 135t-8 63.5t-79 -14t-99.5 -120.5t-49 -247q5 -213 498 -483.5t301 -874.5l-26 -11q79 406 -324.5 666.5t-480.5 435.5t-47 354q25 149 104 249t160 119z" />
    <glyph glyph-name="uniA9D7" unicode="&#xa9d7;" horiz-adv-x="1500" 
d="M834 35q-48 43 -40.5 143t17.5 179.5t-0.5 159t-45 124.5t-103.5 50t-60 -55.5t21.5 -151t3 -223.5t-44 -195.5t-85.5 -71t-83.5 39t-13.5 174t9.5 257.5t-41.5 171t-93.5 33.5t-91 -71t-36 -174.5t14.5 -220t65 -197l-29 -17q-80 73 -107.5 203t-17 254.5t55.5 204
t144 89.5t155 -50t62 -210.5t-13 -274.5t3.5 -141t49.5 55t27 192.5t-26 252.5t18 165t130.5 25.5t145.5 -66t70 -160t-11 -254t2.5 -183t63.5 -32.5h58q43 3 66 20q25 19 43 78t22 130.5t-2 159.5q-7 88 -23 154t-48 95v23q101 33 174 16.5t112.5 -83t44.5 -194.5
q4 -129 -21 -247.5t-80 -223.5l-37 16q36 130 48 229t9 195q-4 96 -18.5 151.5t-53 84.5t-86.5 16q20 -18 36.5 -90.5t20.5 -152.5q3 -81 -2.5 -147.5t-20.5 -136t-55 -110.5t-121 -44h-65q-80 2 -117 36z" />
    <glyph glyph-name="uniA9D8" unicode="&#xa9d8;" horiz-adv-x="1299" 
d="M808 59q100 36 208.5 197t137 309t-55 101.5t-163.5 -218t-127 -389.5zM761.5 181.5q46.5 167.5 142.5 352t207.5 206.5t118 -91.5t-56 -254t-165 -259t-210.5 -138.5q-36 -358 114.5 -518.5t460.5 -139.5t553 203l3 -24q-241 -313 -591.5 -334.5t-491 146.5t-136 426
t51 425.5zM484 66.5q38 7.5 72.5 49.5t53.5 97l38 -5q5 -80 28.5 -123t99.5 -37l7 -49q-26 -6 -51 -6q-106 0 -125 86q-51 -66 -101.5 -76t-87.5 2t-64.5 42t-36.5 88q-11 62 -1 207.5t10 213.5q-1 70 -8.5 93t-29.5 25t-39 -15.5t-36 -66.5q-20 -59 -27 -146t-8 -186
q-2 -100 8 -178l9 -79l-27 -13q-43 91 -60 213q-18 121 -5 254t63 212q49 78 129 79q45 -1 68.5 -21t32.5 -54t10.5 -101.5t-4.5 -221.5t-3 -200t25 -68.5t60 -15z" />
    <glyph glyph-name="uniA9D9" unicode="&#xa9d9;" horiz-adv-x="1649" 
d="M866.5 579.5q-14.5 55.5 -53 84.5t-86.5 16q20 -18 36.5 -90.5t20.5 -152.5q3 -81 -2.5 -147.5t-20.5 -136t-55 -110.5t-121 -44h-85q-105 2 -149.5 38t-55 98t-0.5 207.5t10 213.5q-1 70 -8.5 93t-29.5 25t-39 -15.5t-36 -66.5q-20 -59 -27 -146t-8 -186q-2 -100 8 -178
l9 -79l-27 -13q-43 91 -60 213q-18 121 -5 254t63 212q49 78 129 79q45 -1 68.5 -21t32.5 -54t10.5 -101.5t-4.5 -221.5t-3 -191.5t26.5 -67.5t95.5 -31h77q43 3 66 20q25 19 43 78t22 130.5t-2 159.5q-7 88 -23 154t-48 95v23q101 33 174 16.5t112.5 -83t36.5 -262t0 -233
t26.5 -67.5t95.5 -31h77q43 3 66 20q25 19 43 78t22 130.5t-2 159.5q-7 88 -23 154t-48 95v23q101 33 174 16.5t112.5 -83t44.5 -194.5q4 -129 -21 -247.5t-80 -223.5l-37 16q36 130 48 229t9 195q-4 96 -18.5 151.5t-53 84.5t-86.5 16q20 -18 36.5 -90.5t20.5 -152.5
q3 -81 -2.5 -147.5t-20.5 -136t-55 -110.5t-121 -44h-85q-105 2 -149.5 38t-55 98t-2.5 225.5t-6.5 219z" />
    <glyph glyph-name="uniA9DE" unicode="&#xa9de;" horiz-adv-x="668" 
d="M338 -10h-4q-262 5 -270 285q15 266 268 473h8q253 -207 268 -473q-8 -280 -270 -285zM148 277q0 -216 188 -220q188 4 188 220q-12 197 -188 379q-176 -182 -188 -379z" />
    <glyph glyph-name="uniA9DF" unicode="&#xa9df;" horiz-adv-x="902" 
d="M523 122.5q39 61.5 25 300.5q-14 181 -61 279v25q121 48 214 -19t81.5 -314.5t-96.5 -418.5l-35 17q38 184 44.5 382t-25.5 253.5t-91 56.5q31 -35 51 -259q15 -245 -48 -338.5t-143 -87.5h-80l-3 39q42 102 54.5 209t-3.5 228t-55 163t-88.5 33.5t-79.5 -71.5
t-36 -174.5t15 -221.5t55 -197l-29 -17q-80 73 -107.5 203t-19 253t57.5 206t143 89.5t153 -52t75 -191.5t-1.5 -252.5t-52.5 -187.5h17q30 3 69 64.5z" />
    <glyph glyph-name="uniA98F_uniA9BF" unicode="&#xe098;" horiz-adv-x="1657" 
d="M577 1861.5q347 287.5 851 261t779 -487.5l-40 -16q-250 396 -735 425.5t-807 -254t-417 -827.5t36 -860.5t374 -312.5l-6 -34q-298 -51 -450 305.5t-42 934.5t457 865.5zM1067 33q56 165 60 360q5 187 -26 236t-101 58q-70 8 -100.5 2.5t-53 -36t-22.5 -208.5
q-1 -178 17 -282q39 -16 62.5 -43t28 -71.5t-18 -55.5t-63 15t-73.5 110q-44 21 -134 38q-6 -54 -22 -160l-43 3q3 146 6 317q3 170 3 240q-1 70 -8.5 93t-29.5 25t-39 -15.5t-36 -66.5q-20 -59 -27 -146t-8 -186q-2 -100 8 -178l9 -79l-27 -13q-43 91 -60 213
q-18 121 -5 254t63 212q49 78 129 79q45 -1 68.5 -21t32.5 -54t10.5 -101.5t-9.5 -226.5q-5 -79 -11 -142q74 -6 123 -21q-19 133 -19 271t17 199.5t64.5 88.5t144.5 24t172 -64t65 -280t-61 -363q49 1 74 20t42 79t21 131.5t-2 159.5q-7 88 -23 154t-48 95v23
q101 33 174 16.5t112.5 -83t44.5 -194.5q4 -129 -21 -247.5t-80 -223.5l-37 16q36 130 48 229t9 195q-4 96 -18.5 151.5t-53 84.5t-86.5 16q20 -18 36.5 -90.5t20.5 -152.5q3 -81 -2.5 -147.5t-20.5 -141t-55 -110.5t-121 -39h-90z" />
    <glyph glyph-name="uniA990_uniA9BF" unicode="&#xe099;" horiz-adv-x="1657" 
d="M577 1861.5q347 287.5 851 261t779 -487.5l-40 -16q-250 396 -735 425.5t-807 -254t-417 -827.5t36 -860.5t374 -312.5l-6 -34q-298 -51 -450 305.5t-42 934.5t457 865.5zM1067 33q56 165 60 360q5 187 -26 236t-101 58q-70 8 -100.5 2.5t-53 -36t-22.5 -208.5
q-1 -178 17 -282q39 -16 62.5 -43t28 -71.5t-18 -55.5t-63 15t-73.5 110q-44 21 -134 38q-6 -54 -22 -160l-43 3q3 146 6 317q3 170 3 240q-1 70 -8.5 93t-29.5 25t-39 -15.5t-36 -66.5q-20 -59 -27 -146t-8 -186q-2 -100 8 -178l9 -79l-27 -13q-43 91 -60 213
q-18 121 -5 254t63 212q49 78 129 79q45 -1 68.5 -21t32.5 -54t10.5 -101.5t-9.5 -226.5q-5 -79 -11 -142q74 -6 123 -21q-19 133 -19 271t17 199.5t64.5 88.5t144.5 24t172 -64t65 -280t-61 -363q49 1 74 20t42 79t21 131.5t-2 159.5q-7 88 -23 154t-48 95v23
q101 33 174 16.5t112.5 -83t44.5 -194.5q4 -129 -21 -247.5t-80 -223.5l-37 16q36 130 48 229t9 195q-4 96 -18.5 151.5t-53 84.5t-86.5 16q20 -18 36.5 -90.5t20.5 -152.5q3 -81 -2.5 -147.5t-20.5 -141t-55 -110.5t-121 -39h-90zM634 -138q214 62 415.5 -65t219.5 -491
l-28 -20q-102 218 -259 366t-348 182v28z" />
    <glyph glyph-name="uniA991_uniA9BF" unicode="&#xe09a;" horiz-adv-x="1339" 
d="M577 1861.5q347 287.5 851 261t779 -487.5l-40 -16q-250 396 -735 425.5t-807 -254t-417 -827.5t36 -860.5t374 -312.5l-6 -34q-298 -51 -450 305.5t-42 934.5t457 865.5zM626 129q87 14 151 10q-21 146 -21 299t17 214.5t64.5 88.5t144.5 24t177 -64t16 -322t-67 -457.5
t370 -351.5q1223 -566 1131 -1370l-26 -11q-11 646 -1255 1260q-240 139 -284 293q-42 141 25.5 489.5t36.5 397.5t-101 57.5t-100.5 3t-53 -36t-23 -223.5t17.5 -294q39 -19 62.5 -46t28 -71.5t-18 -55.5t-63 15t-71.5 107q-42 12 -163 -1q-6 -43 -12 -88l-43 3
q3 146 6 317q3 170 3 240q-1 70 -8.5 93t-29.5 25t-39 -15.5t-36 -66.5q-20 -59 -27 -146t-8 -186q-2 -100 8 -178l9 -79l-27 -13q-43 91 -60 213q-18 121 -5 254t63 212q49 78 129 79q45 -1 68.5 -21t32.5 -54t10.5 -101.5t-9.5 -226.5q-7 -102 -20 -216z" />
    <glyph glyph-name="uniA992_uniA9BF" unicode="&#xe09b;" horiz-adv-x="1613" 
d="M577 1861.5q347 287.5 851 261t779 -487.5l-40 -16q-250 396 -735 425.5t-807 -254t-417 -827.5t36 -860.5t374 -312.5l-6 -34q-298 -51 -450 305.5t-42 934.5t457 865.5zM541 58q49 1 79 20t40.5 81.5t12.5 223.5t9.5 245.5t65.5 109.5t130.5 6.5t121.5 -98t56.5 -207.5
t-17 -216t-88.5 -165q63 3 95 31t48 78t21 179t-37 351l10 27q128 29 201 12.5t113 -82.5q39 -67 44 -195q4 -129 -21 -247.5t-80 -223.5l-37 16q36 130 48 229t9 195q-4 96 -18 152q-15 55 -63.5 84t-121.5 12q38 -219 31 -336t-24 -183t-65 -110.5t-159 -47.5h-80l-3 39
q66 94 93.5 187.5t20.5 201t-41.5 166.5t-69 77t-67.5 9t-37.5 -51t-5.5 -223q-1 -182 -16 -256.5t-50 -110.5t-106 -39h-118l-3 39q44 118 58.5 214.5t19.5 162t3.5 139.5t-14 101t-32.5 15t-32 -59.5t-14 -105t3 -142.5l-27 -13q-27 73 -34.5 166.5t22 152.5t77 70.5
t77.5 -9.5t41 -66t9 -128.5t-10 -157t-20.5 -147.5t-47.5 -173z" />
    <glyph glyph-name="uniA993_uniA9BF" unicode="&#xe09c;" horiz-adv-x="1958" 
d="M577 1861.5q347 287.5 851 261t779 -487.5l-40 -16q-250 396 -735 425.5t-807 -254t-417 -827.5t36 -860.5t374 -312.5l-6 -34q-298 -51 -450 305.5t-42 934.5t457 865.5zM1220 66q42 8 76.5 50t53.5 97l38 -5q5 -80 29 -123q15 -26 50.5 -25.5t59.5 24t35 86.5
q4 48 1 110t-19 98q-17 37 -75 29q-93 -3 -122 41.5t-14.5 127.5t63 124.5t106.5 49.5t107 1.5t89.5 -30.5t67 -81t31.5 -181q4 -129 -21 -247.5t-80 -223.5l-37 16q36 130 48 229t9 195q-5 123 -22 166.5t-44 63.5t-66.5 26t-74 -2t-57.5 -28.5t-36.5 -59.5t-7 -81.5
t76.5 -40.5q70 7 109 -38q37 -43 43.5 -136.5t-5.5 -148.5q-15 -75 -63.5 -115.5t-122 -37t-99.5 82.5q-51 -66 -127 -78.5t-120.5 32t-41.5 145t13 180t-0.5 159t-45 124.5t-103.5 50t-60 -55.5t21.5 -151t3 -223.5t-44 -195.5t-85.5 -71t-83.5 39t-13.5 174t9.5 257.5
t-41.5 171t-93.5 33.5t-91 -71t-36 -174.5t14.5 -220t65 -197l-29 -17q-80 73 -107.5 203t-17 254.5t55.5 204t144 89.5t155 -50t62 -210.5t-13 -274.5t3.5 -141t49.5 55t27 192.5t-26 252.5t18 165t130.5 25.5t145.5 -66t70 -160t-11 -253.5q-21 -150 6.5 -184t69.5 -26z
" />
    <glyph glyph-name="uniA994_uniA9BF" unicode="&#xe09d;" horiz-adv-x="1390" 
d="M577 1861.5q347 287.5 851 261t779 -487.5l-40 -16q-250 396 -735 425.5t-807 -254t-417 -827.5t36 -860.5t374 -312.5l-6 -34q-298 -51 -450 305.5t-42 934.5t457 865.5zM707 63q33 4 67.5 19.5t35 30.5t-22.5 15.5t-42.5 -16t-37.5 -49.5zM654 167q-3 -79 14 -86
q27 66 76 86t88 2t34 -67.5t-65.5 -76t-125.5 -19.5q-47 4 -71.5 39.5t-26.5 108.5q-1 30 8.5 181t9.5 221q-1 70 -8.5 93t-29.5 25t-39 -15.5t-36 -66.5q-20 -59 -27 -146t-8 -186q-2 -100 8 -178l9 -79l-27 -13q-43 91 -60 213q-18 121 -5 254t63 212q49 78 129 79
q45 -1 68.5 -21t32.5 -54t10.5 -101.5t-9.5 -226.5q-10 -134 -12 -178zM1070.5 658q-48.5 5 -80.5 -30.5t-58 -102.5l-34 1q-7 71 -39.5 110t-123.5 8l-16 19q58 78 122.5 73.5t93.5 -77.5q33 63 84.5 80.5t109.5 -3t87 -97.5q26 -68 30 -180q4 -129 -21 -247.5t-80 -223.5
l-37 16q36 130 48 229t9 195q-4 96 -18 152q-28 73 -76.5 78z" />
    <glyph glyph-name="uniA995_uniA9BF" unicode="&#xe09e;" horiz-adv-x="1410" 
d="M577 1861.5q347 287.5 851 261t779 -487.5l-40 -16q-250 396 -735 425.5t-807 -254t-417 -827.5t36 -860.5t374 -312.5l-6 -34q-298 -51 -450 305.5t-42 934.5t457 865.5zM442 67q30 -5 59 127q-57 -5 -73 -63.5t14 -63.5zM973 83.5q29 23.5 40 86.5q4 48 1 110t-19 98
q-17 37 -75 29q-93 -3 -122 41.5t-14.5 127.5t63 124.5t106.5 49.5t107 1.5t89.5 -30.5t67 -81t31.5 -181q4 -129 -21 -247.5t-80 -223.5l-37 16q36 130 48 229t9 195q-5 123 -22 166.5t-44 63.5t-66.5 26t-74 -2t-57.5 -28.5t-36.5 -59.5t-7 -81.5t76.5 -40.5q70 7 109 -38
q37 -43 43.5 -136.5t-5.5 -148.5q-15 -75 -61.5 -112.5t-107.5 -37.5q-77 -1 -182 93t-159 99q-37 -198 -133 -192q-93 8 -74.5 124.5t148.5 135.5q14 81 18.5 151t3 144t-14 101t-32.5 15t-32 -59.5t-14 -105t3 -142.5l-27 -13q-27 73 -34.5 166.5t22 152.5t77 70.5
t77.5 -9.5t41 -66t9 -128.5t-10 -157t-17 -122.5q69 -5 171.5 -95t145.5 -95.5t72 18z" />
    <glyph glyph-name="uniA996_uniA9BF" unicode="&#xe09f;" horiz-adv-x="2009" 
d="M577 1861.5q347 287.5 851 261t779 -487.5l-40 -16q-250 396 -735 425.5t-807 -254t-417 -827.5t36 -860.5t374 -312.5l-6 -34q-298 -51 -450 305.5t-42 934.5t457 865.5zM913 38q66 94 93.5 187.5t20.5 201t-41.5 166.5t-69 77t-67.5 9t-37.5 -51t9.5 -223.5t-11 -256
t-80 -110.5t-154 -39q-115 3 -169 66.5t-62 184t50 259.5t233 239l15 -27q-127 -108 -174 -245t-38.5 -231.5t46.5 -135t95 -41.5q69 1 107 25t55.5 76.5t4.5 213.5t-5.5 245.5t65.5 109.5t130.5 6.5t121.5 -98t56.5 -207.5t-16.5 -216q-25 -88 -89 -165q63 3 95 31t48 78
t21 179t-37 351l10 27q128 29 201 12.5t113 -82.5q39 -67 44 -195q4 -129 -22 -223t-86 -178q70 8 119 64.5t55 197.5v103q-4 131 7 195t56 106.5t109 39.5q151 -7 158.5 -165.5t-166.5 -221.5q89 0 150.5 -46.5t65.5 -143t-44.5 -147t-127 -44t-135.5 66.5l6 16
q90 -33 148.5 -18.5t66 97t-45.5 135.5t-145 55l-11 34q154 88 148.5 197.5t-78.5 113.5q-52 -3 -69 -61t-17 -213v-94q0 -151 -67.5 -239t-197.5 -87h-72l-13 25q86 130 108 219t19 185q-4 96 -18 152q-15 55 -63.5 84t-121.5 12q38 -219 31 -336t-24 -183t-65 -110.5
t-159 -47.5h-80z" />
    <glyph glyph-name="uniA997_uniA9BF" unicode="&#xe0a0;" horiz-adv-x="1441" 
d="M577 1861.5q347 287.5 851 261t779 -487.5l-40 -16q-250 396 -735 425.5t-807 -254t-417 -827.5t36 -860.5t374 -312.5l-6 -34q-298 -51 -450 305.5t-42 934.5t457 865.5zM839 373q239 74 309.5 131t50 110.5t-93.5 63t-129 -8.5t-77.5 -67.5t12.5 -141.5l-17 -8
q-94 79 -62 171t154.5 111t215 -15.5t100 -132t-88.5 -151.5t-375 -86zM834 222q214 102 355 58t180 -274l-28 -20q-97 113 -206.5 163.5t-300.5 44.5v28zM758 165q36 -8 62 -33.5t19 -67.5t-49.5 -56t-86.5 -6t-68.5 43.5t-26.5 108.5q-1 30 8.5 181t9.5 221q-1 70 -8.5 93
t-29.5 25t-39 -15.5t-36 -66.5q-20 -59 -27 -146t-8 -186q-2 -100 8 -178l9 -79l-27 -13q-43 91 -60 213q-18 121 -5 254t63 212q49 78 129 79q45 -1 68.5 -21t32.5 -54t10.5 -101.5t-9.5 -226.5q-10 -134 -12 -178q-3 -89 26.5 -105t49 -5t18 37t-26.5 56z" />
    <glyph glyph-name="uniA998_uniA9BF" unicode="&#xe0a1;" horiz-adv-x="1441" 
d="M577 1861.5q347 287.5 851 261t779 -487.5l-40 -16q-250 396 -735 425.5t-807 -254t-417 -827.5t36 -860.5t374 -312.5l-6 -34q-298 -51 -450 305.5t-42 934.5t457 865.5zM839 373q239 74 309.5 131t50 110.5t-93.5 63t-129 -8.5t-77.5 -67.5t12.5 -141.5l-17 -8
q-94 79 -62 171t154.5 111t215 -15.5t100 -132t-88.5 -151.5t-375 -86zM834 222q214 102 355 58t180 -274l-28 -20q-97 113 -206.5 163.5t-300.5 44.5v28zM758 165q36 -8 62 -33.5t19 -67.5t-49.5 -56t-86.5 -6t-68.5 43.5t-26.5 108.5q-1 30 8.5 181t9.5 221q-1 70 -8.5 93
t-29.5 25t-39 -15.5t-36 -66.5q-20 -59 -27 -146t-8 -186q-2 -100 8 -178l9 -79l-27 -13q-43 91 -60 213q-18 121 -5 254t63 212q49 78 129 79q45 -1 68.5 -21t32.5 -54t10.5 -101.5t-9.5 -226.5q-10 -134 -12 -178q-3 -89 26.5 -105t49 -5t18 37t-26.5 56zM634 -138
q214 62 415.5 -65t219.5 -491l-28 -20q-102 218 -259 366t-348 182v28z" />
    <glyph glyph-name="uniA999_uniA9BF" unicode="&#xe0a2;" horiz-adv-x="1796" 
d="M577 1861.5q347 287.5 851 261t779 -487.5l-40 -16q-250 396 -735 425.5t-807 -254t-417 -827.5t36 -860.5t374 -312.5l-6 -34q-298 -51 -450 305.5t-42 934.5t457 865.5zM707 63q33 4 67.5 19.5t35 30.5t-22.5 15.5t-42.5 -16t-37.5 -49.5zM654 167q-3 -79 14 -86
q27 66 76 86t88 2t34 -67.5t-65.5 -76t-125.5 -19.5q-47 4 -71.5 39.5t-26.5 108.5q-1 30 8.5 181t9.5 221q-1 70 -8.5 93t-29.5 25t-39 -15.5t-36 -66.5q-20 -59 -27 -146t-8 -186q-2 -100 8 -178l9 -79l-27 -13q-43 91 -60 213q-18 121 -5 254t63 212q49 78 129 79
q45 -1 68.5 -21t32.5 -54t10.5 -101.5t-9.5 -226.5q-10 -134 -12 -178zM1070.5 658q-48.5 5 -80.5 -30.5t-58 -102.5l-34 1q-7 71 -39.5 110t-123.5 8l-16 19q58 78 122.5 73.5t93.5 -77.5q33 63 84.5 80.5t109.5 -3t87 -97.5q26 -68 30 -180q4 -129 -21 -247.5t-80 -223.5
l-37 16q36 130 48 229t9 195q-4 96 -18 152q-28 73 -76.5 78zM1154 210l70 -8q-67 -339 -258 -517t-381 -337.5t-234 -367t50.5 -364t282.5 -191.5t350 30.5t254.5 232.5t130.5 688t20.5 887t-67.5 437l3 27q121 47 216 -23t40 -400l-47 2q11 239 -31 310t-86 61
q41 -28 56.5 -395t-18.5 -916.5t-148.5 -738t-304.5 -259.5t-416.5 -22t-328 243.5t-52.5 413.5t247.5 384.5t383.5 330.5t268 492z" />
    <glyph glyph-name="uniA99A_uniA9BF" unicode="&#xe0a3;" horiz-adv-x="1968" 
d="M577 1861.5q347 287.5 851 261t779 -487.5l-40 -16q-250 396 -735 425.5t-807 -254t-417 -827.5t36 -860.5t374 -312.5l-6 -34q-298 -51 -450 305.5t-42 934.5t457 865.5zM698 63q33 4 67.5 19.5t35 30.5t-22.5 15.5t-42.5 -16t-37.5 -49.5zM645 167q-3 -79 14 -86
q27 66 76 86t88 2t34 -67.5t-65.5 -76t-125.5 -19.5q-47 4 -71.5 39.5t-26.5 108.5q-1 30 8.5 181t9.5 221q-1 70 -8.5 93t-29.5 25t-39 -15.5t-36 -66.5q-20 -59 -27 -146t-8 -186q-2 -100 8 -178l9 -79l-27 -13q-43 91 -60 213q-18 121 -5 254t63 212q49 78 129 79
q45 -1 68.5 -21t32.5 -54t10.5 -101.5t-9.5 -226.5q-10 -134 -12 -178zM1486 428q-4 96 -18.5 151.5t-53 84.5t-86.5 16q20 -18 36.5 -90.5t20.5 -152.5q3 -81 -2.5 -147.5t-20.5 -141t-55 -110.5t-121 -39h-74l-11 23q34 112 46 211t9 195q-4 96 -18 152q-28 73 -76.5 78
t-80.5 -30.5t-58 -102.5l-34 1q-7 71 -39.5 110t-123.5 8l-16 19q58 78 122.5 73.5t93.5 -77.5q33 63 84.5 80.5t109.5 -3t87 -97.5q26 -68 30 -180q4 -129 -21 -247q-17 -81 -47 -154q52 1 77 20t42 79t21 131.5t-2 159.5q-7 88 -23 154t-48 95v23q101 33 174 16.5
t112.5 -83t44.5 -194.5q4 -129 -21 -247q-17 -81 -47 -154q52 1 77 20t42 79t21 131.5t-2 159.5q-7 88 -23 154t-48 95v23q101 33 174 16.5t112.5 -83t44.5 -194.5q4 -129 -21 -247.5t-80 -223.5l-37 16q36 130 48 229t9 195q-4 96 -18.5 151.5t-53 84.5t-86.5 16
q20 -18 36.5 -90.5t20.5 -152.5q3 -81 -2.5 -147.5t-20.5 -141t-55 -110.5t-121 -39h-74l-11 23q34 112 46 211t9 195z" />
    <glyph glyph-name="uniA99B_uniA9BF" unicode="&#xe0a4;" horiz-adv-x="1492" 
d="M577 1861.5q347 287.5 851 261t779 -487.5l-40 -16q-250 396 -735 425.5t-807 -254t-417 -827.5t36 -860.5t374 -312.5l-6 -34q-298 -51 -450 305.5t-42 934.5t457 865.5zM802 64q38 3 72.5 18.5t35 30.5t-22.5 15.5t-45 -15.5t-40 -49zM722 26q-10 8 -18 20
q-25 35 -27 108q-1 30 8.5 181t9.5 221q-1 70 -8.5 93t-29.5 25t-39 -15.5t-36 -66.5q-20 -59 -27 -146t-8 -186q-2 -100 8 -178l9 -79l-27 -13q-43 91 -60 213q-18 121 -5 254t63 212q49 78 129 79q45 -1 68.5 -21t32.5 -54t10.5 -101.5t-9.5 -226.5q-10 -134 -12 -178
q-2 -58 6 -77q37 58 84 77q49 20 88 2t34 -67.5t-65.5 -76t-125.5 -19.5q-44 -123 0 -283q107 -209 417 -196t553 215l3 -24q-254 -340 -599.5 -340t-450.5 243q-32 64 -29.5 177t52.5 227zM1240.5 593q-21.5 60 -70 65t-80.5 -30.5t-58 -102.5l-34 1q-7 71 -39.5 110
t-123.5 8l-16 19q58 78 122.5 73.5t93.5 -77.5q33 63 84.5 80.5t109.5 -3t87 -97.5q27 -76 17 -269q-10 -192 -81 -375l-46 13q47 179 52 352q4 173 -17.5 233z" />
    <glyph glyph-name="uniA99C_uniA9BF" unicode="&#xe0a5;" horiz-adv-x="1492" 
d="M577 1861.5q347 287.5 851 261t779 -487.5l-40 -16q-250 396 -735 425.5t-807 -254t-417 -827.5t36 -860.5t374 -312.5l-6 -34q-298 -51 -450 305.5t-42 934.5t457 865.5zM802 64q38 3 72.5 18.5t35 30.5t-22.5 15.5t-45 -15.5t-40 -49zM722 26q-10 8 -18 20
q-25 35 -27 108q-1 30 8.5 181t9.5 221q-1 70 -8.5 93t-29.5 25t-39 -15.5t-36 -66.5q-20 -59 -27 -146t-8 -186q-2 -100 8 -178l9 -79l-27 -13q-43 91 -60 213q-18 121 -5 254t63 212q49 78 129 79q45 -1 68.5 -21t32.5 -54t10.5 -101.5t-9.5 -226.5q-10 -134 -12 -178
q-2 -58 6 -77q37 58 84 77q49 20 88 2t34 -67.5t-65.5 -76t-125.5 -19.5q-44 -123 0 -283q107 -209 417 -196t553 215l3 -24q-254 -340 -599.5 -340t-450.5 243q-32 64 -29.5 177t52.5 227zM1240.5 593q-21.5 60 -70 65t-80.5 -30.5t-58 -102.5l-34 1q-7 71 -39.5 110
t-123.5 8l-16 19q58 78 122.5 73.5t93.5 -77.5q33 63 84.5 80.5t109.5 -3t87 -97.5q27 -76 17 -269q-10 -192 -81 -375l-46 13q47 179 52 352q4 173 -17.5 233z" />
    <glyph glyph-name="uniA99D_uniA9BF" unicode="&#xe0a6;" horiz-adv-x="1512" 
d="M577 1861.5q347 287.5 851 261t779 -487.5l-40 -16q-250 396 -735 425.5t-807 -254t-417 -827.5t36 -860.5t374 -312.5l-6 -34q-298 -51 -450 305.5t-42 934.5t457 865.5zM992 -3q-79 3 -105 82q-51 -66 -101.5 -76t-87.5 2t-64.5 42t-36.5 88q-11 62 -1 207.5t10 213.5
q-1 70 -8.5 93t-29.5 25t-39 -15.5t-36 -66.5q-20 -59 -27 -146t-8 -186q-2 -100 8 -178l9 -79l-27 -13q-43 91 -60 213q-18 121 -5 254t63 212q49 78 129 79q45 -1 68.5 -21t32.5 -54t10.5 -101.5t-4.5 -221.5t-3 -200t25 -68.5t60 -15t72.5 49.5t53.5 97l38 -5
q5 -80 25 -114.5t70 -34.5q22 0 49 20t45 79t22 130.5t-2 159.5q-7 88 -23 154t-48 95v23q101 33 174 16.5t112.5 -83t44.5 -194.5q4 -129 -21 -247.5t-80 -223.5l-37 16q36 130 48 229t9 195q-4 96 -18.5 151.5t-53 84.5t-86.5 16q20 -18 36.5 -90.5t20.5 -152.5
q3 -81 -2.5 -147.5t-20.5 -136t-53.5 -105.5t-75.5 -44.5t-71 -6.5z" />
    <glyph glyph-name="uniA99E_uniA9BF" unicode="&#xe0a7;" horiz-adv-x="1349" 
d="M577 1861.5q347 287.5 851 261t779 -487.5l-40 -16q-250 396 -735 425.5t-807 -254t-417 -827.5t36 -860.5t374 -312.5l-6 -34q-298 -51 -450 305.5t-42 934.5t457 865.5zM1042 -3q-79 3 -105 82q-51 -66 -101.5 -76t-87.5 2t-64.5 42t-36.5 88q-11 62 -1 207.5t10 213.5
q-1 70 -8.5 93t-29.5 25t-39 -15.5t-36 -66.5q-20 -59 -27 -146t-8 -186q-2 -100 8 -178l9 -79l-27 -13q-43 91 -60 213q-18 121 -5 254t63 212q49 78 129 79q45 -1 68.5 -21t32.5 -54t10.5 -101.5t-4.5 -221.5t-3 -200t25 -68.5t60 -15t72.5 49.5t53.5 97l38 -5
q5 -80 25 -114.5t70 -34.5q22 0 49 20t50 79t22 170.5t-43.5 231.5t-104.5 187l14 17q108 -73 158 -200.5t49.5 -234t-20.5 -176t-58.5 -105.5t-75.5 -44.5t-71 -6.5z" />
    <glyph glyph-name="uniA99F_uniA9BF" unicode="&#xe0a8;" horiz-adv-x="2009" 
d="M577 1861.5q347 287.5 851 261t779 -487.5l-40 -16q-250 396 -735 425.5t-807 -254t-417 -827.5t36 -860.5t374 -312.5l-6 -34q-298 -51 -450 305.5t-42 934.5t457 865.5zM825 -1l-3 39q66 94 93.5 187.5t20.5 201t-41.5 166.5t-69 77t-67.5 9t-37.5 -51t-5.5 -223
q-1 -182 -16 -256.5t-50 -110.5t-106 -39h-118l-3 39q44 118 58.5 214.5t19.5 162t3.5 139.5t-14 101t-32.5 15t-32 -59.5t-14 -105t3 -142.5l-27 -13q-27 73 -34.5 166.5t22 152.5t77 70.5t77.5 -9.5t41 -66t9 -128.5t-10 -157t-20.5 -147.5t-47.5 -173q49 1 79 20
t40.5 81.5t12.5 223.5t9.5 245.5t65.5 109.5t130.5 6.5t121.5 -98t56.5 -207.5t-16.5 -216q-25 -88 -88 -164q82 3 108 19q30 19 40.5 81.5t12.5 223.5t9.5 245.5t65.5 109.5t130.5 6.5t121.5 -98t56.5 -207.5t-17 -216t-88.5 -165q63 3 95 31t48 78t21 179t-37 351l10 27
q128 29 201 12.5t113 -82.5q39 -67 44 -195q4 -129 -21 -247.5t-80 -223.5l-37 16q36 130 48 229t9 195q-4 96 -18 152q-15 55 -63.5 84t-121.5 12q38 -219 31 -336t-24 -183t-65 -110.5t-159 -47.5h-80l-3 39q66 94 93.5 187.5t20.5 201t-41.5 166.5t-69 77t-67.5 9
t-37.5 -51t-5.5 -223q-1 -182 -16 -256.5t-50 -110.5t-106 -39h-158z" />
    <glyph glyph-name="uniA9A0_uniA9BF" unicode="&#xe0a9;" horiz-adv-x="1636" 
d="M577 1861.5q347 287.5 851 261t779 -487.5l-40 -16q-250 396 -735 425.5t-807 -254t-417 -827.5t36 -860.5t374 -312.5l-6 -34q-298 -51 -450 305.5t-42 934.5t457 865.5zM1075 428q-5 123 -22 166.5t-44 63.5t-66.5 26t-74 -2t-57.5 -28.5t-36.5 -59.5t-7 -81.5
t76.5 -40.5q70 7 109 -38q37 -43 43.5 -136.5t-5.5 -148.5q-15 -75 -60 -111t-116 -39h-65q-105 2 -149.5 38t-55 98t-0.5 207.5t10 213.5q-1 70 -8.5 93t-29.5 25t-39 -15.5t-36 -66.5q-20 -59 -27 -146t-8 -186q-2 -100 8 -178l9 -79l-27 -13q-43 91 -60 213
q-18 121 -5 254t63 212q49 78 129 79q45 -1 68.5 -21t32.5 -54t10.5 -101.5t-4.5 -221.5t-3 -191.5t26.5 -67.5t95.5 -31h57q45 0 75 27q28 20 39 83q4 48 1 110t-19 98q-17 37 -75 29q-93 -3 -122 41.5t-14.5 127.5t63 124.5t106.5 49.5t107 1.5t89.5 -30.5t67 -81
t31.5 -181q-5 -261 -55 -401q49 1 74 20t42 79t21 131.5t-2 159.5q-7 88 -23 154t-48 95v23q101 33 174 16.5t112.5 -83t44.5 -194.5q4 -129 -21 -247.5t-80 -223.5l-37 16q36 130 48 229t9 195q-4 96 -18.5 151.5t-53 84.5t-86.5 16q20 -18 36.5 -90.5t20.5 -152.5
q3 -81 -2.5 -147.5t-20.5 -141t-55 -110.5t-121 -39h-90l-10 34q56 165 60 395z" />
    <glyph glyph-name="uniA9A1_uniA9BF" unicode="&#xe0aa;" horiz-adv-x="1339" 
d="M577 1861.5q347 287.5 851 261t779 -487.5l-40 -16q-250 396 -735 425.5t-807 -254t-417 -827.5t36 -860.5t374 -312.5l-6 -34q-298 -51 -450 305.5t-42 934.5t457 865.5zM831 -424l-19 18q68 108 85.5 145.5t-64 67.5t-78 93t70 210.5t-16.5 212.5l11 15
q144 -63 92.5 -207.5t-73.5 -196t84 -80t71.5 -100t-163.5 -178.5zM1257 459q4 -129 -21 -247.5t-80 -223.5l-37 16q36 130 48 229t9 195q-5 123 -22 166.5t-44 63.5t-66.5 26t-74 -2t-57.5 -28.5t-36.5 -59.5t-7 -81.5t76.5 -40.5q70 7 109 -38q37 -43 43.5 -136.5
t-5.5 -148.5q-15 -75 -60 -111t-116 -39h-65q-105 2 -149.5 38t-55 98t-0.5 207.5t10 213.5q-1 70 -8.5 93t-29.5 25t-39 -15.5t-36 -66.5q-20 -59 -27 -146t-8 -186q-2 -100 8 -178l9 -79l-27 -13q-43 91 -60 213q-18 121 -5 254t63 212q49 78 129 79q45 -1 68.5 -21
t32.5 -54t10.5 -101.5t-4.5 -221.5t-3 -191.5t26.5 -67.5t95.5 -31h57q45 0 75 27q28 20 39 83q4 48 1 110t-19 98q-17 37 -75 29q-93 -3 -122 41.5t-14.5 127.5t63 124.5t106.5 49.5t107 1.5t89.5 -30.5t67 -81t31.5 -181z" />
    <glyph glyph-name="uniA9A2_uniA9BF" unicode="&#xe0ab;" horiz-adv-x="1552" 
d="M577 1861.5q347 287.5 851 261t779 -487.5l-40 -16q-250 396 -735 425.5t-807 -254t-417 -827.5t36 -860.5t374 -312.5l-6 -34q-298 -51 -450 305.5t-42 934.5t457 865.5zM738 146.5q-3 42.5 -35 141.5l21 25q97 -33 258 -156q-49 164 -46 295t28.5 196.5t78 93t164 17
t170.5 -77.5t39 -285q-23 -245 -70 -406l-42 5q23 176 28 381q5 204 -26 253t-90 57t-100.5 3t-71.5 -47.5t-34.5 -205.5t41.5 -294q22 -36 46 -64t39 -51t-12.5 -34t-57.5 10.5t-78 65.5t-114 89.5t-97 60.5q27 -81 11 -138.5t-54 -72t-82 -6.5t-68.5 43.5t-26.5 108.5
q-1 30 8.5 181t9.5 221q-1 70 -8.5 93t-29.5 25t-39 -15.5t-36 -66.5q-20 -59 -27 -146t-8 -186q-2 -100 8 -178l9 -79l-27 -13q-43 91 -60 213q-18 121 -5 254t63 212q49 78 129 79q45 -1 68.5 -21t32.5 -54t10.5 -101.5t-9.5 -226.5q-10 -134 -12 -178q-3 -89 32.5 -103.5
t55 13t16.5 70z" />
    </font>
</defs>
</svg>
